<?xml version="1.0" standalone="no"?>
<!DOCTYPE svg PUBLIC "-//W3C//DTD SVG 1.1//EN" "http://www.w3.org/Graphics/SVG/1.1/DTD/svg11.dtd" >
<svg>
<metadata>
Created by FontForge 20090914 at Fri Jul 15 20:40:20 2016
 By www-data
</metadata>
<defs>
<font id="TF2Build" horiz-adv-x="1454" >
  <font-face 
    font-family="TF2 Build"
    font-weight="400"
    font-stretch="normal"
    units-per-em="2048"
    panose-1="2 0 0 0 0 0 0 0 0 0"
    ascent="1536"
    descent="-512"
    x-height="1434"
    cap-height="1430"
    bbox="-185 -366.428 2109 1835"
    underline-thickness="102"
    underline-position="-103"
    unicode-range="U+0020-U+2212"
  />
<missing-glyph horiz-adv-x="819" 
 />
    <glyph glyph-name=".notdef" horiz-adv-x="819" 
 />
    <glyph glyph-name="space" unicode=" " horiz-adv-x="819" 
 />
    <glyph glyph-name="exclam" unicode="!" horiz-adv-x="504" 
d="M315 471l-243 14l37 930l290 -14zM0 150c0 20 3.83594 39.832 11.5029 59.499s18.667 37.167 33 52.5s31.666 27.833 51.999 37.5s43.5 14.834 69.5 15.501c28 0.666992 52.833 -4 74.5 -14s39.834 -23 54.501 -39s25.334 -33.833 32.001 -53.5s9.66699 -39.167 9 -58.5
c-1.33301 -22 -6.83301 -42 -16.5 -60s-22.334 -33.5 -38.001 -46.5s-33.5 -23.167 -53.5 -30.5s-40.667 -11 -62 -11c-20.667 0 -40.834 3.66699 -60.501 11s-37.334 17.5 -53.001 30.5s-28.334 28.5 -38.001 46.5s-14.5 38 -14.5 60z" />
    <glyph glyph-name="quotedbl" unicode="&#x22;" horiz-adv-x="483" 
d="M190 1534h185l-47 -363l-121 17l-17 346v0zM2 1522l170 2l-35 -353l-108 -4l-27 355v0z" />
    <glyph glyph-name="numbersign" unicode="#" horiz-adv-x="1352" 
d="M1180 588l24 -246h-196l-25 -221l-197 24v172h-270v-221h-246v197h-196l-25 196l221 25v246h-270v221h270l-24 344h270v-319h320l24 270l246 -25l-25 -245h172v-222h-196l-25 -221zM516 539l295 24l25 221l-320 -24v-221z" />
    <glyph glyph-name="dollar" unicode="$" horiz-adv-x="799" 
d="M282 1374l161.999 0.00195312l-31 -244l31 -2c12 0 28.333 -1.83301 49 -5.5s43.334 -9.5 68.001 -17.5s49.5 -18 74.5 -30s47.833 -26.333 68.5 -43l-114 -194c-18.667 16 -39.834 30.5 -63.501 43.5s-47.667 23.5 -72 31.5s-48.333 13.167 -72 15.5
s-45 0.833008 -64 -4.5s-34.833 -15 -47.5 -29s-20.334 -33 -23.001 -57c0 -30 8 -55.833 24 -77.5s35.833 -41.5 59.5 -59.5s49.334 -35.833 77.001 -53.5s53 -37.834 76 -60.501s41.667 -49.167 56 -79.5s20.5 -67.166 18.5 -110.499
c-9.33301 -41.333 -28.666 -74 -57.999 -98s-64.666 -39.667 -105.999 -47l8 -213h-147l26 213c-28.667 3.33301 -56.834 10.166 -84.501 20.499s-52.167 21.166 -73.5 32.499c-26 12.667 -50.333 27 -73 43l82 146c49.333 -41.333 93.666 -66.5 132.999 -75.5
s71.333 -5.16699 96 11.5c8 8 9.16699 17.833 3.5 29.5s-15.5 24.167 -29.5 37.5s-30.5 27.166 -49.5 41.499l-58 42.5l-55.5 40c-17.333 12.667 -30.666 24 -39.999 34l-31 26.5c-15.333 13 -30.5 30.333 -45.5 52s-26.833 47.834 -35.5 78.501s-9 66.667 -1 108
c8 28 20.333 54 37 78s37.167 45 61.5 63s52 32.833 83 44.5s64.833 19.167 101.5 22.5z" />
    <glyph glyph-name="percent" unicode="%" horiz-adv-x="1167" 
d="M989 1219l-766 -1133l-172 123l787 1120zM825 147c-31.333 0 -60.666 6 -87.999 18s-51.166 28.333 -71.499 49s-36.333 44.667 -48 72s-17.5 56.333 -17.5 87s5.83301 59.5 17.5 86.5s27.667 50.5 48 70.5s44.166 35.667 71.499 47s56.666 17 87.999 17
c33.333 0 64.166 -5.66699 92.499 -17s53 -27 74 -47s37.5 -43.5 49.5 -70.5s18 -55.833 18 -86.5s-6 -59.667 -18 -87s-28.5 -51.333 -49.5 -72s-45.667 -37 -74 -49s-59.166 -18 -92.499 -18zM826 466c-23.333 0 -43 -8 -59 -24s-24 -35 -24 -57
c0 -23.333 8 -42.666 24 -57.999s35.667 -23 59 -23c26.667 0 48.334 7.66699 65.001 23s25 34.666 25 57.999c0 22 -8.33301 41 -25 57s-38.334 24 -65.001 24zM238 1280c-32 0 -61.833 -6 -89.5 -18s-52 -28.333 -73 -49s-37.5 -44.834 -49.5 -72.501s-18 -57.5 -18 -89.5
c0 -31.333 6 -60.666 18 -87.999s28.5 -51.333 49.5 -72s45.333 -36.834 73 -48.501s57.5 -17.5 89.5 -17.5c34 0 65.333 5.83301 94 17.5s53.667 27.834 75 48.501s38 44.667 50 72s18 56.666 18 87.999c0 32 -6 61.833 -18 89.5s-28.667 51.834 -50 72.501
s-46.333 37 -75 49s-60 18 -94 18zM238 949c-12.667 0 -24.5 2.33301 -35.5 7s-20.667 11.167 -29 19.5s-14.833 17.833 -19.5 28.5s-7 22 -7 34c0 26 8.83301 47.167 26.5 63.5s39.167 24.5 64.5 24.5c28.667 0 52.167 -8.16699 70.5 -24.5s27.5 -37.5 27.5 -63.5
c0 -24 -9.16699 -44.833 -27.5 -62.5s-41.833 -26.5 -70.5 -26.5z" />
    <glyph glyph-name="ampersand" unicode="&#x26;" horiz-adv-x="1266" 
d="M981 -74l-57.999 70.998l-66 79.5l-85 101.5c-64 -52 -128.333 -92.5 -193 -121.5s-134.334 -44.5 -209.001 -46.5c-28.667 -0.666992 -58.5 1.83301 -89.5 7.5s-60.833 14.834 -89.5 27.501s-55.167 28.667 -79.5 48s-44.833 42.333 -61.5 69
s-28.334 57.167 -35.001 91.5s-6.33398 72.833 0.999023 115.5c10 47.333 24.833 90.833 44.5 130.5s41.167 75.834 64.5 108.501s47.333 62.167 72 88.5l69 71.5c-52.667 70 -89.334 134.167 -110.001 192.5s-29.5 110.833 -26.5 157.5s15.667 87.5 38 122.5
s50 64.167 83 87.5s69.5 40.666 109.5 51.999s79 17 117 17c42.667 -0.666992 81 -7.66699 115 -21s63.167 -32 87.5 -56s43.833 -52.667 58.5 -86s24 -70 28 -110c2.66699 -32 -1.16602 -62.667 -11.499 -92s-24.666 -58.166 -42.999 -86.499s-39.833 -56 -64.5 -83
l-76 -80.5c16 -21.333 31.667 -40.833 47 -58.5l48 -53l51.5 -53.5l58.5 -58c6.66699 10 14.5 21 23.5 33l26.5 34.5c8.66699 11 16.334 21.167 23.001 30.5s11 17 13 23l182 -166l-56.5 -78.5l-49.5 -66.5l90 -93.5l74 -81.5l69 -79zM518.001 1067
c0 22 -4.49707 40.165 -13.4971 54.498s-19.833 24.833 -32.5 31.5s-26.334 9.33398 -41.001 8.00098s-27.667 -7.16602 -39 -17.499s-19.833 -25 -25.5 -44s-5.83398 -42.833 -0.500977 -71.5c2 -11.333 7.66699 -26 17 -44s23.666 -41.667 42.999 -71
c28 19.333 50.333 42.333 67 69s25 55 25 85zM315.004 308.996c31.333 -32 71.335 -41.501 120.002 -28.501s101 47.833 157 104.5c-14.667 18.667 -29.834 37 -45.501 55l-45.5 52.5l-41.5 49c-13 15.667 -24.167 30.5 -33.5 44.5
c-23.333 -22.667 -45.5 -46.167 -66.5 -70.5s-37.833 -48.666 -50.5 -72.999s-19.334 -48 -20.001 -71s8 -43.833 26 -62.5z" />
    <glyph glyph-name="quotesingle" unicode="'" horiz-adv-x="324" 
d="M2 1536h219l-55 -430l-143 18z" />
    <glyph glyph-name="parenleft" unicode="(" horiz-adv-x="801" 
d="M634 1536l66.999 -216.996c-27.333 -9.33301 -57.666 -21.833 -90.999 -37.5s-67 -35.334 -101 -59.001s-67 -51.334 -99 -83.001s-60.333 -68.5 -85 -110.5s-44.5 -89.333 -59.5 -142s-22.5 -111.334 -22.5 -176.001c0 -50.667 6.5 -98.834 19.5 -144.501
s30 -88.167 51 -127.5s45 -75.666 72 -108.999s54.5 -63.333 82.5 -90s55.667 -49.834 83 -69.501s51.666 -35.5 72.999 -47.5l-115 -199c-162.667 88.667 -287.334 200 -374.001 334s-130.667 291 -132 471c-0.666992 86.667 12.833 171.5 40.5 254.5
s68.334 160 122.001 231s119.834 134.333 198.501 190s168.667 99.5 270 131.5z" />
    <glyph glyph-name="parenright" unicode=")" horiz-adv-x="799" 
d="M68 1536c101.333 -32 191.167 -75.8389 269.5 -131.506s144.333 -119 198 -190s94.334 -148 122.001 -231s41.167 -167.833 40.5 -254.5c-0.666992 -89.333 -12.667 -172.666 -36 -249.999s-56.833 -149.166 -100.5 -215.499s-96.5 -127.5 -158.5 -183.5
s-132 -108 -210 -156l-115 199c21.333 12 45.666 27.833 72.999 47.5s55 42.834 83 69.501s55.5 56.667 82.5 90s51 69.666 72 108.999s38 81.833 51 127.5s19.5 93.834 19.5 144.501c0 64.667 -7.5 123.334 -22.5 176.001s-34.833 100 -59.5 142s-53 78.833 -85 110.5
s-65 59.334 -99 83.001s-67.833 43.334 -101.5 59.001s-64.167 28.167 -91.5 37.5l68 217v0z" />
    <glyph glyph-name="asterisk" unicode="*" horiz-adv-x="799" 
d="M694 1337l-612 -436l-74 105l619 428zM592 883l-586 469l82 98l580 -481zM391 1534l19 -707l-121 -2l-6 709h108z" />
    <glyph glyph-name="plus" unicode="+" horiz-adv-x="860" 
d="M260 295l-2 780h215l-10 -782zM2 809l750 12l2 -215l-754 -2z" />
    <glyph glyph-name="comma" unicode="," horiz-adv-x="399" 
d="M300 195c2 -10.667 3.66797 -22.166 5.00098 -34.499s1.16602 -25.5 -0.500977 -39.5s-5.33398 -29 -11.001 -45s-14.5 -33 -26.5 -51c-10 -16 -21.667 -31.833 -35 -47.5s-27.333 -30.667 -42 -45s-29.667 -28 -45 -41s-30 -24.5 -44 -34.5l-73 71
c17.333 13.333 32.5 25.833 45.5 37.5s23.833 22.167 32.5 31.5c10 10 18 19.333 24 28c-31.333 10 -58.333 24.167 -81 42.5s-36.667 44.833 -42 79.5c-3.33301 20.667 -2.33301 40.334 3 59.001s13.833 35.5 25.5 50.5s25.5 27.5 41.5 37.5s33.667 16.333 53 19
c41.333 5.33301 77.333 -2.83398 108 -24.501s51.334 -52.834 62.001 -93.501z" />
    <glyph glyph-name="hyphen" unicode="-" horiz-adv-x="733" 
d="M645 553h-645l2 219l647 -12z" />
    <glyph glyph-name="period" unicode="." horiz-adv-x="444" 
d="M0 150c0 20 3.83594 39.832 11.5029 59.499s18.667 37.167 33 52.5s31.666 27.833 51.999 37.5s43.5 14.834 69.5 15.501c28 0.666992 52.833 -4 74.5 -14s39.834 -23 54.501 -39s25.334 -33.833 32.001 -53.5s9.66699 -39.167 9 -58.5
c-1.33301 -22 -6.83301 -42 -16.5 -60s-22.334 -33.5 -38.001 -46.5s-33.5 -23.167 -53.5 -30.5s-40.667 -11 -62 -11c-20.667 0 -40.834 3.66699 -60.501 11s-37.334 17.5 -53.001 30.5s-28.334 28.5 -38.001 46.5s-14.5 38 -14.5 60z" />
    <glyph glyph-name="slash" unicode="/" horiz-adv-x="877" 
d="M0 137l557 1262l217 -109l-536 -1245z" />
    <glyph glyph-name="zero" unicode="0" horiz-adv-x="1372" 
d="M637 1413c57.333 0 112.833 -8.16699 166.5 -24.5s103.834 -39.5 150.501 -69.5s89.5 -66 128.5 -108s72.333 -88.667 100 -140s49.167 -106.5 64.5 -165.5s23 -120.5 23 -184.5s-7.66699 -125.333 -23 -184s-36.833 -113.334 -64.5 -164.001s-61 -96.834 -100 -138.501
s-81.833 -77.334 -128.5 -107.001s-96.834 -52.5 -150.501 -68.5s-109.167 -24 -166.5 -24c-58 0 -113.833 8 -167.5 24s-104 38.833 -151 68.5s-90 65.334 -129 107.001s-72.333 87.834 -100 138.501s-49.167 105.334 -64.5 164.001s-23 120 -23 184
s7.66699 125.5 23 184.5s36.833 114.167 64.5 165.5s61 98 100 140s82 78 129 108s97.333 53.167 151 69.5s109.5 24.5 167.5 24.5zM637 283c32 0 65.668 7.66699 101.001 23s68 37.833 98 67.5s54.833 66.5 74.5 110.5s29.5 95 29.5 153c0 57.333 -8.66699 108.333 -26 153
s-40.333 82.334 -69 113.001s-61 54 -97 70s-73 24 -111 24c-38.667 0 -76 -8 -112 -24s-68 -39.333 -96 -70s-50.5 -68.334 -67.5 -113.001s-25.5 -95.667 -25.5 -153c0 -58 9.33301 -109 28 -153s42.667 -80.833 72 -110.5s61.666 -52.167 96.999 -67.5s70 -23 104 -23z
" />
    <glyph glyph-name="one" unicode="1" horiz-adv-x="799" 
d="M666 1376l-58 -1341l-346 18l35 936l-90 -92l-166 199l305 301z" />
    <glyph glyph-name="two" unicode="2" horiz-adv-x="1190" 
d="M993 43l-820.999 -0.00390625v227c28.667 2.66699 61.167 11.167 97.5 25.5s73.833 32.833 112.5 55.5s77.167 49 115.5 79s73.666 62.167 105.999 96.5s60.166 70.166 83.499 107.499s39.333 74.666 48 111.999s8.66699 74 0 110s-29 70 -61 102
c-26 26.667 -57.833 42 -95.5 46s-77 0 -118 -12s-81.5 -30.333 -121.5 -55s-76 -52.334 -108 -83.001l-231 330c6.66699 9.33301 18.334 21.5 35.001 36.5s37.667 31 63 48s54.666 34.167 87.999 51.5s69.666 32.833 108.999 46.5s81.333 24.834 126 33.501
s91.334 13 140.001 13c32 0 66 -1.66699 102 -5s72 -10.166 108 -20.499s71 -25.166 105 -44.499s65 -44.666 93 -75.999s52.333 -69.666 73 -114.999s35.667 -99.666 45 -162.999c6 -41.333 4.83301 -83.166 -3.5 -125.499s-21.666 -83.833 -39.999 -124.5
s-40.333 -80 -66 -118s-52.167 -73.667 -79.5 -107c-64.667 -78.667 -140 -153.667 -226 -225h317z" />
    <glyph glyph-name="three" unicode="3" horiz-adv-x="1188" 
d="M152 178l111.996 192.994c44.667 -28.667 86.167 -50.167 124.5 -64.5s73.166 -23.333 104.499 -27s59.166 -3 83.499 2s44.5 12.333 60.5 22s27.833 20.5 35.5 32.5s10.834 23.667 9.50098 35c-3.33301 23.333 -12 42.833 -26 58.5s-31.333 28.167 -52 37.5
s-43.834 16.333 -69.501 21s-51.667 7.83398 -78 9.50098s-51.833 2.5 -76.5 2.5h-65l-2 207c80.667 0 150 7 208 21s103.167 32.5 135.5 55.5s51.833 49.333 58.5 79s-0.333008 60.167 -21 91.5c-18 26.667 -44.167 43.667 -78.5 51s-73.666 6.33301 -117.999 -3
s-91.666 -26.166 -141.999 -50.499s-99.833 -54.833 -148.5 -91.5l-207 326c8 6.66699 21 16.834 39 30.501s40.167 28.834 66.5 45.501s56 34 89 52s68.5 34.333 106.5 49s78.167 26.667 120.5 36s85.5 14 129.5 14c31.333 0 66 -1.83301 104 -5.5s76.5 -10.667 115.5 -21
s77.333 -24.5 115 -42.5s71.834 -41.167 102.501 -69.5s56.667 -62.333 78 -102s35.333 -86.5 42 -140.5c4.66699 -38 3.16699 -73.333 -4.5 -106s-19.167 -62.667 -34.5 -90s-33.666 -52.166 -54.999 -74.499s-43.333 -42.5 -66 -60.5
c-54 -41.333 -116.667 -75.666 -188 -102.999c47.333 -16.667 87.666 -39 120.999 -67c14 -12 27.333 -25.833 40 -41.5s23.167 -33.334 31.5 -53.001s13.5 -41.5 15.5 -65.5s-0.333008 -50 -7 -78c-11.333 -45.333 -32.833 -85.166 -64.5 -119.499
s-70.167 -62.666 -115.5 -84.999s-95.166 -37.833 -149.499 -46.5s-109.666 -9.83398 -165.999 -3.50098s-111.666 21 -165.999 44s-103.5 54.833 -147.5 95.5z" />
    <glyph glyph-name="four" unicode="4" horiz-adv-x="1323" 
d="M1169 657v-235h-217v-395h-288v389h-662l-2 207l653 782h299l6 -748h211zM420 639l264 -2l12 350z" />
    <glyph glyph-name="five" unicode="5" horiz-adv-x="1096" 
d="M283 25l-41.002 230.999c54.667 3.33301 104 11.333 148 24c18.667 5.33301 37.167 12 55.5 20s34.833 17.5 49.5 28.5s26.834 23.833 36.501 38.5s15.5 31.667 17.5 51c2.66699 29.333 -3.5 52.833 -18.5 70.5s-36.333 31 -64 40s-60.167 14.667 -97.5 17
s-76.833 3 -118.5 2s-84 -2.66699 -127 -5s-84.167 -3.5 -123.5 -3.5v866h995v-397h-680v-213c102 0 186 -7.16699 252 -21.5s118.833 -34.5 158.5 -60.5s68.334 -57.167 86.001 -93.5s29.167 -76.833 34.5 -121.5c3.33301 -30 2.5 -61.667 -2.5 -95
s-15.5 -66.666 -31.5 -99.999s-38.167 -65.5 -66.5 -96.5s-63.833 -59.167 -106.5 -84.5s-93.5 -46.5 -152.5 -63.5s-126.833 -28.167 -203.5 -33.5z" />
    <glyph glyph-name="six" unicode="6" horiz-adv-x="983" 
d="M468 33c-68.667 -0.666992 -131.834 12.5039 -189.501 39.5039s-107 63.667 -148 110s-72.667 100.333 -95 162s-32.5 127.167 -30.5 196.5c2 84 12.833 163.167 32.5 237.5s46 143 79 206s72.167 120.5 117.5 172.5s94.833 97.667 148.5 137s110.667 72.166 171 98.499
s122.5 46.166 186.5 59.499l129 -356c-86.667 -15.333 -165.667 -40.333 -237 -75c-30.667 -15.333 -61.334 -33.333 -92.001 -54s-59 -44.834 -85 -72.501s-48.667 -59.167 -68 -94.5s-33.333 -75.333 -42 -120c10 4 22.167 9.5 36.5 16.5s30.166 12.5 47.499 16.5
c54.667 12 107.834 14.667 159.501 8s98.334 -22.334 140.001 -47.001s76.5 -58 104.5 -100s45.667 -92 53 -150c5.33301 -44.667 -0.5 -90 -17.5 -136s-43.667 -87.833 -80 -125.5s-81.666 -68.5 -135.999 -92.5s-115.833 -36.333 -184.5 -37zM624 387.004
c-6.66699 18 -16.665 32.334 -29.998 43.001s-28.333 18.167 -45 22.5s-33.834 6 -51.501 5s-33.834 -3.83301 -48.501 -8.5c-37.333 -17.333 -62.333 -38.5 -75 -63.5s-17 -49.167 -13 -72.5c2 -12.667 7.33301 -24.334 16 -35.001s19.667 -19.5 33 -26.5
s28.333 -11.833 45 -14.5s34.667 -2.33398 54 0.999023c17.333 2.66699 34.166 8.83398 50.499 18.501s30.333 21.5 42 35.5s19.834 29.333 24.501 46s4 33 -2 49z" />
    <glyph glyph-name="seven" unicode="7" horiz-adv-x="1159" 
d="M436 29l-276 141l518 868l-672 -18l-6 383l1059 -4v-291z" />
    <glyph glyph-name="eight" unicode="8" horiz-adv-x="1165" 
d="M1063 954c0 -38 -5.83203 -74.833 -17.499 -110.5s-27.834 -69.167 -48.501 -100.5s-45.167 -60 -73.5 -86s-59.166 -48.333 -92.499 -67c30 -31.333 54 -65.166 72 -101.499s27 -74.166 27 -113.499c0 -48 -11.333 -93.167 -34 -135.5s-53.5 -79 -92.5 -110
s-84.5 -55.5 -136.5 -73.5s-107 -27 -165 -27s-112.667 9 -164 27s-96.333 42.5 -135 73.5s-69.167 67.667 -91.5 110s-33.5 87.5 -33.5 135.5c0 19.333 3.16699 39.666 9.5 60.999s14.833 42.166 25.5 62.499s22.834 39.833 36.501 58.5s28.167 35 43.5 49
c-28.667 24 -54.834 48.5 -78.501 73.5s-44 51.5 -61 79.5s-30.167 58 -39.5 90s-14 67 -14 105c0 62.667 13.667 122.167 41 178.5s65.166 105.5 113.499 147.5s105.5 75.333 171.5 100s137.667 37 215 37c72.667 0 140.667 -12.333 204 -37s118.5 -58 165.5 -100
s84.167 -91.167 111.5 -147.5s41 -115.833 41 -178.5zM522.001 1065c-30 0 -57.502 -3.99902 -82.502 -11.999s-46.833 -19.5 -65.5 -34.5s-33.167 -32.833 -43.5 -53.5s-15.5 -43.334 -15.5 -68.001c0 -23.333 6.16699 -44.666 18.5 -63.999s28.333 -35.833 48 -49.5
s41.834 -24.167 66.501 -31.5s49.334 -11 74.001 -11c29.333 0 57.5 3.66699 84.5 11s50.667 17.666 71 30.999s36.666 29.666 48.999 48.999s18.5 41 18.5 65c0 24.667 -5.16699 47.334 -15.5 68.001s-25.166 38.5 -44.499 53.5s-42.833 26.5 -70.5 34.5s-58.5 12 -92.5 12
zM501.999 258.001c19.333 0 38.5 3.5 57.5 10.5s35.833 16.667 50.5 29s26.5 26.833 35.5 43.5s13.5 34.667 13.5 54c0 14.667 -4.5 28.834 -13.5 42.501s-20.833 25.834 -35.5 36.501s-31.5 19.334 -50.5 26.001s-38.167 10 -57.5 10c-24.667 0 -46.667 -3.33301 -66 -10
s-35.5 -15.334 -48.5 -26.001s-22.833 -22.834 -29.5 -36.501s-10 -27.834 -10 -42.501c0 -39.333 13.167 -72 39.5 -98s64.5 -39 114.5 -39z" />
    <glyph glyph-name="nine" unicode="9" horiz-adv-x="1024" 
d="M337 1393c48 10 97.502 12.998 148.502 8.99805s100 -15 147 -33s90.667 -42.833 131 -74.5s74.166 -70.5 101.499 -116.5c48 -82.667 76.5 -171.834 85.5 -267.501s1.83301 -194.5 -21.5 -296.5c-8.66699 -36 -22.5 -74.5 -41.5 -115.5s-42.333 -83 -70 -126
s-58.667 -86 -93 -129s-71.333 -84.167 -111 -123.5s-81.167 -76.166 -124.5 -110.499s-87.333 -64.166 -132 -89.499l-200 248c10.667 4.66699 27.667 13.5 51 26.5s50.166 29.5 80.499 49.5s62 43.167 95 69.5s64.333 55.333 94 87s56 65.834 79 102.501
s39.167 75 48.5 115c-30.667 -23.333 -65.5 -40 -104.5 -50s-78.833 -13.833 -119.5 -11.5s-81 11.333 -121 27s-77 37.667 -111 66s-63.333 62.833 -88 103.5s-42 88 -52 142c-6 30.667 -8.16699 63 -6.5 97s7.16699 67.833 16.5 101.5s22.833 66.5 40.5 98.5
s39.5 61.167 65.5 87.5s56.667 49.333 92 69s75.333 34.5 120 44.5zM304.002 921.998c-3.33301 -14 -2.33301 -28.665 3 -43.998s14.333 -29.666 27 -42.999s28.667 -24.5 48 -33.5s41.666 -14.167 66.999 -15.5c19.333 0.666992 38.166 3.66699 56.499 9
s34.5 13.166 48.5 23.499s25.333 22.666 34 36.999s13.667 30.833 15 49.5c0.666992 22.667 -4.16602 42.167 -14.499 58.5s-23 29.666 -38 39.999s-31.333 17.5 -49 21.5s-33.5 5.66699 -47.5 5c-39.333 -3.33301 -72.166 -14.5 -98.499 -33.5s-43.5 -43.833 -51.5 -74.5z
" />
    <glyph glyph-name="colon" unicode=":" horiz-adv-x="442" 
d="M0 963c0 20.667 3.83594 40.832 11.5029 60.499s18.667 37.167 33 52.5s31.666 27.833 51.999 37.5s43.5 14.834 69.5 15.501c28 0.666992 52.833 -4 74.5 -14s39.834 -23 54.501 -39s25.334 -34 32.001 -54s9.66699 -39.667 9 -59
c-1.33301 -21.333 -6.83301 -41 -16.5 -59s-22.334 -33.5 -38.001 -46.5s-33.5 -23.167 -53.5 -30.5s-40.667 -11 -62 -11c-20.667 0 -40.834 3.66699 -60.501 11s-37.334 17.5 -53.001 30.5s-28.334 28.5 -38.001 46.5s-14.5 37.667 -14.5 59zM0.00292969 290.998
c0 20.667 4 40 12 58s18.667 33.5 32 46.5s28.833 23.167 46.5 30.5s36.5 11 56.5 11c20.667 0 40.167 -3.83301 58.5 -11.5s34.333 -18.167 48 -31.5s24.334 -28.833 32.001 -46.5s11.5 -36.5 11.5 -56.5c0 -21.333 -3.83301 -41 -11.5 -59s-18.334 -33.5 -32.001 -46.5
s-29.667 -23.167 -48 -30.5s-37.833 -11 -58.5 -11c-21.333 0 -41 3.66699 -59 11s-33.5 17.5 -46.5 30.5s-23.167 28.5 -30.5 46.5s-11 37.667 -11 59z" />
    <glyph glyph-name="semicolon" unicode=";" horiz-adv-x="420" 
d="M0 986c0 20 3.66699 39.667 11 59s18 36.666 32 51.999s31 27.666 51 36.999s42.667 14 68 14c20.667 0 39.667 -4.66699 57 -14s32.333 -21.666 45 -36.999s22.667 -32.666 30 -51.999s11 -39 11 -59c0 -20.667 -3.66699 -40.834 -11 -60.501s-17.333 -37.167 -30 -52.5
s-27.667 -27.666 -45 -36.999s-36.333 -14 -57 -14c-25.333 0 -48 4.66699 -68 14s-37 21.666 -51 36.999s-24.667 32.833 -32 52.5s-11 39.834 -11 60.501zM313 321c-10 40.667 -30.502 71.668 -61.502 93.001s-67.167 29.666 -108.5 24.999
c-18.667 -2 -36.167 -8 -52.5 -18s-30.166 -22.5 -41.499 -37.5s-19.833 -32 -25.5 -51s-6.83398 -38.833 -3.50098 -59.5c2.66699 -17.333 7.66699 -32.5 15 -45.5s16.5 -24.333 27.5 -34s23.333 -18 37 -25s28.167 -12.833 43.5 -17.5
c-6.66699 -8.66699 -14.667 -18 -24 -28c-8.66699 -9.33301 -19.334 -19.833 -32.001 -31.5s-28 -24.167 -46 -37.5l74 -71c14 10 28.5 21.667 43.5 35s29.667 27.333 44 42l42 45c13.667 15.333 25.834 30.666 36.501 45.999c11.333 15.333 19.833 30.833 25.5 46.5
s9.33398 30.834 11.001 45.501s1.83398 28.667 0.500977 42s-3 25.333 -5 36z" />
    <glyph glyph-name="less" unicode="&#x3c;" horiz-adv-x="963" 
d="M813 311l-170 -188l-643 596l672 579l184 -211l-483 -397z" />
    <glyph glyph-name="equal" unicode="=" horiz-adv-x="944" 
d="M844 745l-815 -16l2 217l817 -12zM825 471l-823 -27l2 220l825 -13z" />
    <glyph glyph-name="greater" unicode="&#x3e;" horiz-adv-x="961" 
d="M483 690l-483 397l184 211l672 -579l-643 -596l-170 188z" />
    <glyph glyph-name="question" unicode="?" horiz-adv-x="1229" 
d="M428 150c0 18.667 3.5 36.999 10.5 54.999s17 34.167 30 48.5s28.833 26 47.5 35s40 13.833 64 14.5c26 0.666992 48.833 -3.66602 68.5 -12.999s36.167 -21.333 49.5 -36s23 -31.167 29 -49.5s8.66699 -36.5 8 -54.5c-1.33301 -19.333 -6.33301 -37.333 -15 -54
s-20.167 -31 -34.5 -43s-30.5 -21.5 -48.5 -28.5s-37 -10.5 -57 -10.5c-18.667 0 -37 3.5 -55 10.5s-34.167 16.5 -48.5 28.5s-26 26.333 -35 43s-13.5 34.667 -13.5 54zM465 480.999c8 48 20.502 88.5029 37.502 121.503s36.167 61.5 57.5 85.5s43.166 44.833 65.499 62.5
l62.5 51.5c19.333 16.667 35.833 34.334 49.5 53.001s21.834 41 24.501 67c4 40.667 -2 73.834 -18 99.501s-38.833 44.167 -68.5 55.5s-64.5 16.166 -104.5 14.499s-81.667 -9.33398 -125 -23.001s-86.833 -32.834 -130.5 -57.501s-83.834 -54.334 -120.501 -89.001
l-197 333c38.667 30 78.334 56.167 119.001 78.5s83.334 41 128.001 56s92 26.167 142 33.5s104 11 162 11c68 0 133 -7.5 195 -22.5s118.167 -36.667 168.5 -65s93.333 -63.333 129 -105s61.167 -89.5 76.5 -143.5c9.33301 -42.667 11.666 -82.834 6.99902 -120.501
s-13.667 -72.5 -27 -104.5s-29.333 -60.833 -48 -86.5s-37 -47.834 -55 -66.501s-34 -33.5 -48 -44.5s-23 -17.833 -27 -20.5c-14 -11.333 -29.167 -22.5 -45.5 -33.5s-33.333 -24.667 -51 -41s-35.334 -37.166 -53.001 -62.499s-34.834 -58 -51.501 -98z" />
    <glyph glyph-name="at" unicode="@" horiz-adv-x="1411" 
d="M1302 831c7.33301 -60.667 7.99707 -113.501 1.99707 -158.501s-16.333 -83.5 -31 -115.5s-32.334 -58.167 -53.001 -78.5s-41.667 -36.5 -63 -48.5s-41.5 -20.167 -60.5 -24.5s-34.167 -6.5 -45.5 -6.5c-10.667 0 -23 1.5 -37 4.5s-28.167 7.33301 -42.5 13
s-28.5 12.667 -42.5 21s-26.667 18.166 -38 29.499c-22.667 -22.667 -47.334 -41.167 -74.001 -55.5s-54 -25.166 -82 -32.499s-56 -11 -84 -11s-54 3 -78 9c-34 8 -65 19 -93 33s-52.333 31.167 -73 51.5s-36.667 44.166 -48 71.499s-17 58 -17 92
c0 28.667 4.16699 57 12.5 85s20.5 54.333 36.5 79s35.167 47 57.5 67s47.5 36.333 75.5 49c46 20.667 92.333 31 139 31s92.667 -12.333 138 -37h159c0 -37.333 1 -70.166 3 -98.499s4.5 -52.833 7.5 -73.5s6.66699 -38.167 11 -52.5s8.5 -26.166 12.5 -35.499
c10 -22 21.333 -34.333 34 -37c17.333 -5.33301 31.833 -4 43.5 4s20.334 21.5 26.001 40.5s8.5 42.333 8.5 70s-2.66699 58.5 -8 92.5c-12 51.333 -31.667 95.666 -59 132.999s-59.5 68.166 -96.5 92.499s-77.5 42.333 -121.5 54s-88.333 17.5 -133 17.5
c-23.333 0 -49.333 -1.33301 -78 -4s-58.334 -8.33398 -89.001 -17.001s-61.167 -21.167 -91.5 -37.5s-58.166 -37.833 -83.499 -64.5c-19.333 -19.333 -37.333 -41.333 -54 -66s-31.334 -52 -44.001 -82s-22.667 -62.5 -30 -97.5s-11 -72.5 -11 -112.5
c0 -50.667 6.83301 -95 20.5 -133s30.834 -70.833 51.501 -98.5s42.5 -50.667 65.5 -69s44.167 -33.5 63.5 -45.5c27.333 -17.333 58 -30.666 92 -39.999s68.5 -15.5 103.5 -18.5s69.667 -2.83301 104 0.5s65.5 9.66602 93.5 18.999l90 -185
c-45.333 -22.667 -95.666 -37.667 -150.999 -45s-111 -8.5 -167 -3.5s-110 15.5 -162 31.5s-97 36.667 -135 62c-89.333 60.667 -157.666 135.667 -204.999 225s-70.333 198 -69 326c0.666992 44.667 6.33398 89.334 17.001 134.001s25.167 87.667 43.5 129
s39.833 80 64.5 116s51.334 68 80.001 96c34 34.667 71.5 63.834 112.5 87.501s83 42.834 126 57.501s85.5 25 127.5 31s80.333 9 115 9c68 0 136.167 -11.167 204.5 -33.5s131 -54.333 188 -96s105.333 -92 145 -151s65.167 -125.5 76.5 -199.5zM615.997 536.999
c11.333 -2 24.333 -2.66895 39 -2.00195s29.5 3.5 44.5 8.5s29.333 12.167 43 21.5s24.834 21.666 33.501 36.999c7.33301 15.333 11.666 29.833 12.999 43.5s1 25.834 -1 36.501c-2.66699 12 -6.66699 23.667 -12 35c-5.33301 12 -14.833 22.5 -28.5 31.5
s-29.167 16 -46.5 21s-35.333 7.33301 -54 7s-35.667 -4.5 -51 -12.5c-8.66699 -4.66699 -17.167 -11.167 -25.5 -19.5s-15.833 -17.5 -22.5 -27.5s-12 -20.667 -16 -32s-6 -22.666 -6 -33.999c0 -18 2.5 -33.5 7.5 -46.5s11.667 -24.167 20 -33.5
s17.833 -16.666 28.5 -21.999s22 -9.33301 34 -12z" />
    <glyph glyph-name="A" unicode="A" 
d="M930 408h-445l-137 -408l-348 96l524 1338l289 -19l543 -1298l-271 -99zM852 582l-174 407l-135 -407h309z" />
    <glyph glyph-name="B" unicode="B" horiz-adv-x="1230" 
d="M1114 1053c6 -29.333 7.66797 -61.668 5.00098 -97.001s-10 -70.333 -22 -105s-28.667 -67.667 -50 -99s-47.333 -57.333 -78 -78c-16.667 -11.333 -32.834 -20.833 -48.501 -28.5s-31.5 -14.334 -47.5 -20.001s-32.667 -10.834 -50 -15.501
s-35.666 -9.33398 -54.999 -14.001c49.333 -28.667 89 -58.667 119 -90s51 -69.666 63 -114.999c6 -20 9 -41.667 9 -65s-2.66699 -46.833 -8 -70.5s-13.666 -46.667 -24.999 -69s-25.666 -42.166 -42.999 -59.499c-29.333 -29.333 -64.833 -52.333 -106.5 -69
s-84.834 -29.167 -129.501 -37.5s-88 -13.666 -130 -15.999s-77.667 -3.83301 -107 -4.5h-371l-39 1423l391 21c24 0 49.833 -0.166992 77.5 -0.5s57.667 -1.83301 90 -4.5s67.166 -7 104.499 -13s77.666 -14.333 120.999 -25c42.667 -10.667 83 -27 121 -49
s71.667 -48.333 101 -79s53.333 -64.667 72 -102s30.667 -76.666 36 -117.999zM406.001 210.998c10 -0.666992 24.501 -1.49707 43.501 -2.49707s39.667 -0.833008 62 0.5s45 4 68 8s43.333 11 61 21s31.667 23.167 42 39.5s14.166 37.166 11.499 62.499
c-4 36 -16.5 62.833 -37.5 80.5s-46 29.667 -75 36s-59.5 8.66602 -91.5 6.99902s-61 -3.83398 -87 -6.50098zM387.002 743.001c7.33301 0 21.998 -1.00098 43.998 -3.00098s47.167 -2.5 75.5 -1.5s57.833 4.33301 88.5 10s58.5 15.667 83.5 30s44.833 33.833 59.5 58.5
s20.667 57 18 97c-3.33301 36.667 -14.666 66.334 -33.999 89.001s-45.5 39.667 -78.5 51s-71.667 18 -116 20s-93.166 0.666992 -146.499 -4z" />
    <glyph glyph-name="C" unicode="C" horiz-adv-x="1351" 
d="M1185 86c-24 -19.333 -52.167 -35.334 -84.5 -48.001s-66.5 -22.5 -102.5 -29.5s-72.5 -11.833 -109.5 -14.5s-72.167 -4 -105.5 -4c-64 0 -127.5 7.66699 -190.5 23s-123 37.333 -180 66s-109.833 63.167 -158.5 103.5s-90.834 85.333 -126.501 135
s-63.667 103.5 -84 161.5s-30.5 119 -30.5 183c-3.33301 70.667 2 139.167 16 205.5s36 128.666 66 186.999s67.833 111.666 113.5 159.999s99 90 160 125s129.167 62.167 204.5 81.5s157.666 29 246.999 29c58 0 112.833 -4.16699 164.5 -12.5s97.334 -18 137.001 -29
s71.834 -21.667 96.501 -32s39.334 -17.833 44.001 -22.5v-365c-14 9.33301 -34.833 19.5 -62.5 30.5s-59.5 20.667 -95.5 29s-75.167 14.333 -117.5 18s-84.833 3.16699 -127.5 -1.5c-26 0 -56.167 -3.33301 -90.5 -10s-69.5 -17.5 -105.5 -32.5
s-70.833 -34.333 -104.5 -58s-62.667 -52.667 -87 -87s-41.833 -74.166 -52.5 -119.499s-11.334 -96.666 -2.00098 -153.999c9.33301 -48 30 -90.167 62 -126.5s70.5 -66.833 115.5 -91.5s94.5 -43.167 148.5 -55.5s107.833 -19 161.5 -20s105 3.83301 154 14.5
s91.167 27.334 126.5 50.001v-289z" />
    <glyph glyph-name="D" unicode="D" horiz-adv-x="1487" 
d="M1372 874c16.667 -88 19.001 -170.166 7.00098 -246.499s-35 -145.833 -69 -208.5s-78 -118.5 -132 -167.5s-115 -90.667 -183 -125s-141.667 -61.166 -221 -80.499s-161.333 -30.666 -246 -33.999c-98.667 -5.33301 -180.334 -8.33301 -245.001 -9
s-116.667 -0.333984 -156 0.999023c-46 1.33301 -81.667 4 -107 8l-20 1401c40.667 4.66699 83.5 8.83398 128.5 12.501s88.833 6.66699 131.5 9s82.334 4.16602 119.001 5.49902s67.334 2 92.001 2c42.667 0 92.167 -1.83301 148.5 -5.5s115.166 -11.834 176.499 -24.501
s122.666 -31.334 183.999 -56.001s118.333 -58 171 -100s98.5 -94.167 137.5 -156.5s66.833 -137.5 83.5 -225.5zM352.001 283.001c102 -6.66699 193.502 -2.83594 274.502 11.4971s149.167 38.833 204.5 73.5s96.666 79.167 123.999 133.5s38.666 117.833 33.999 190.5
c-2.66699 46.667 -12 87.667 -28 123s-36.5 65.833 -61.5 91.5s-53.667 46.834 -86 63.501s-66 29.834 -101 39.501s-70.833 16.5 -107.5 20.5s-71.667 5.83301 -105 5.5s-64.333 -2.16602 -93 -5.49902s-53 -7.33301 -73 -12z" />
    <glyph glyph-name="E" unicode="E" horiz-adv-x="1271" 
d="M369 1090l6 -472h438v-192h-430l4 -156l649 21l8 -273l-1026 -18l-18 1432h1161v-342h-792z" />
    <glyph glyph-name="F" unicode="F" horiz-adv-x="1262" 
d="M387 0l-387 8l20 1436l1141 -33l-8 -342l-764 21v-486h449l-2 -192l-447 4z" />
    <glyph glyph-name="G" unicode="G" horiz-adv-x="1371" 
d="M857 1061c-26 0 -56.3311 -3.50293 -90.998 -10.5029s-70.167 -18 -106.5 -33s-71.333 -34.5 -105 -58.5s-62.667 -53.167 -87 -87.5s-42 -74.166 -53 -119.499s-11.5 -96.666 -1.5 -153.999c10 -52.667 30.833 -98.167 62.5 -136.5s69.667 -69.333 114 -93
s93 -40.334 146 -50.001s105.833 -12.167 158.5 -7.5v172h-172v232h463v-346v-289v-78h-271h-135c-64 0 -127.5 7.33301 -190.5 22s-123 35.5 -180 62.5s-109.833 59.833 -158.5 98.5s-90.834 82.334 -126.501 131.001s-63.667 101.667 -84 159s-30.5 118 -30.5 182
c-3.33301 70.667 2 139 16 205s36 128.333 66 187s67.833 112.334 113.5 161.001s99 90.5 160 125.5s129.333 62.167 205 81.5s158.5 29 248.5 29c58 0 112.667 -4.16699 164 -12.5s96.666 -18 135.999 -29s71.5 -21.667 96.5 -32s40.167 -17.833 45.5 -22.5v-365
c-14 9.33301 -34.833 19.333 -62.5 30s-59.5 20.167 -95.5 28.5s-75.167 14.5 -117.5 18.5s-84.833 3.66699 -127.5 -1z" />
    <glyph glyph-name="H" unicode="H" horiz-adv-x="1558" 
d="M1413 1430l43 -1397l-332 -15l-12 404l-682 -14v-408h-428l-2 1399h428v-758l674 18l-27 758z" />
    <glyph glyph-name="I" unicode="I" horiz-adv-x="585" 
d="M459 -8l-393 20l59 1434l393 -21z" />
    <glyph glyph-name="J" unicode="J" horiz-adv-x="975" 
d="M500 1438l364.005 -19.001c0 -35.333 -0.5 -83.333 -1.5 -144s-2.83301 -127.834 -5.5 -201.501s-5.83398 -150.667 -9.50098 -231s-8.5 -157.333 -14.5 -231s-12.833 -140.834 -20.5 -201.501s-16.5 -108.667 -26.5 -144c-14 -47.333 -34.5 -87.333 -61.5 -120
s-56.833 -59 -89.5 -79s-66 -34.833 -100 -44.5s-65 -15.167 -93 -16.5c-43.333 -2.66699 -86.333 -1.16699 -129 4.5s-83.167 14.334 -121.5 26.001s-73.833 25.834 -106.5 42.501s-61 34.667 -85 54l96 229c6.66699 -3.33301 16.5 -7.83301 29.5 -13.5
s28.167 -11.667 45.5 -18s35.666 -12.5 54.999 -18.5s38.666 -10.5 57.999 -13.5s37.666 -4.33301 54.999 -4s32.666 3.83301 45.999 10.5c28.667 14 49 47.667 61 101s20.333 126.833 25 220.5s8.16699 207.834 10.5 342.501s8.5 291 18.5 469z" />
    <glyph glyph-name="K" unicode="K" horiz-adv-x="1185" 
d="M582 680l471 -465l-195 -195l-432 492l41 -492l-389 -20l-78 1423l389 19l21 -506l428 506l254 -234z" />
    <glyph glyph-name="L" unicode="L" horiz-adv-x="1023" 
d="M59 0l-59 1425l391 19l39 -1178l438 31l11 -258z" />
    <glyph glyph-name="M" unicode="M" horiz-adv-x="1575" 
d="M782 393l398 1000l270 8l23 -1362l-322 -4l-4 739l-324 -782l-145 16l-313 684l22 -690h-364l-19 1430h307z" />
    <glyph glyph-name="N" unicode="N" horiz-adv-x="1345" 
d="M365 868l20 -868h-385v1434h291l639 -912l-43 897l330 13l22 -1393l-270 -21z" />
    <glyph glyph-name="O" unicode="O" horiz-adv-x="1596" 
d="M743 1460c72.667 0 142 -8.83398 208 -26.501s127.167 -42.5 183.5 -74.5s107.5 -70.667 153.5 -116s85.167 -95.333 117.5 -150s57.333 -113.667 75 -177s26.5 -129 26.5 -197c0 -67.333 -8.83301 -132.166 -26.5 -194.499s-42.667 -120.5 -75 -174.5
s-71.5 -103.167 -117.5 -147.5s-97.167 -82.166 -153.5 -113.499s-117.5 -55.666 -183.5 -72.999s-135.333 -26 -208 -26c-68.667 0 -134.834 8.66699 -198.501 26s-123 41.666 -178 72.999s-105 69.166 -150 113.499s-83.5 93.5 -115.5 147.5s-56.833 112 -74.5 174
s-26.5 127 -26.5 195s8.83301 133.667 26.5 197s42.5 122.333 74.5 177s70.5 104.667 115.5 150s95 84 150 116s114.333 56.833 178 74.5s129.834 26.5 198.501 26.5zM743 275.999c62 0 119.333 11 172 33s98.167 51.5 136.5 88.5s68.333 79.667 90 128
s32.5 99.166 32.5 152.499c0 58.667 -10.833 112.5 -32.5 161.5s-51.667 91 -90 126s-83.833 62.333 -136.5 82s-110 29.5 -172 29.5c-56.667 0 -109.834 -9.83301 -159.501 -29.5s-93 -47 -130 -82s-66.167 -77 -87.5 -126s-32 -102.833 -32 -161.5
c0 -53.333 10.667 -104.166 32 -152.499s50.5 -91 87.5 -128s80.333 -66.5 130 -88.5s102.834 -33 159.501 -33z" />
    <glyph glyph-name="P" unicode="P" horiz-adv-x="1215" 
d="M1116 1038c0 -29.333 -0.496094 -57.666 -1.49609 -84.999s-4.5 -53.666 -10.5 -78.999s-15.667 -50.333 -29 -75s-32.333 -49.334 -57 -74.001c-22.667 -26.667 -50.334 -49 -83.001 -67s-67.5 -32.833 -104.5 -44.5s-75.5 -20.667 -115.5 -27s-78.5 -11 -115.5 -14
s-71.833 -4.66699 -104.5 -5s-60.334 -0.5 -83.001 -0.5v-547l-373 -20l-39 1430l391 20c24.667 0 51.667 -0.166992 81 -0.5s61.166 -1.83301 95.499 -4.5s71.166 -6.83398 110.499 -12.501s81 -13.5 125 -23.5s85 -26.667 123 -50s71.167 -51.5 99.5 -84.5
s50.5 -69.667 66.5 -110s24 -82.5 24 -126.5zM399.004 770c8 0 23.5 -0.666016 46.5 -1.99902s49.167 -1.66602 78.5 -0.999023s60 3.66699 92 9s60.833 15 86.5 29s46.167 33.5 61.5 58.5s21.333 57.5 18 97.5c-3.33301 38.667 -14.5 70.5 -33.5 95.5
s-45.167 44.167 -78.5 57.5s-73.5 21.666 -120.5 24.999s-99.833 2.66602 -158.5 -2.00098z" />
    <glyph glyph-name="Q" unicode="Q" horiz-adv-x="1599" 
d="M1499 719c0 -81.333 -13.332 -159.501 -39.999 -234.501s-64.334 -143.167 -113.001 -204.5s-106.834 -113.833 -174.501 -157.5s-142.834 -74.834 -225.501 -93.501l266 -156l-165 -209l-451 344c-81.333 14.667 -158 43.834 -230 87.501s-135 97.334 -189 161.001
s-96.667 135.167 -128 214.5s-47 162 -47 248c0 67.333 8.83301 132 26.5 194s42.5 120 74.5 174s70.333 103.167 115 147.5s94.334 82.333 149.001 114s113.334 56.167 176.001 73.5s128 26 196 26c71.333 0 139.833 -8.66699 205.5 -26s126.667 -41.833 183 -73.5
s107.333 -69.667 153 -114s84.667 -93.5 117 -147.5s57.333 -112 75 -174s26.5 -126.667 26.5 -194zM739.001 278.999c61.333 0 118.166 10.333 170.499 31s97.5 48.5 135.5 83.5s67.833 76 89.5 123s32.5 96.833 32.5 149.5c0 57.333 -10.833 110 -32.5 158
s-51.5 89.5 -89.5 124.5s-83.167 62.167 -135.5 81.5s-109.166 29 -170.499 29c-56 0 -108.333 -9.66699 -157 -29s-91 -46.5 -127 -81.5s-64.5 -76.5 -85.5 -124.5s-31.5 -100.667 -31.5 -158c0 -52.667 10.5 -102.5 31.5 -149.5s49.5 -88 85.5 -123
s78.333 -62.833 127 -83.5s101 -31 157 -31z" />
    <glyph glyph-name="R" unicode="R" horiz-adv-x="1230" 
d="M1014 721c-21.333 -22 -45.833 -41.168 -73.5 -57.501s-56.5 -30.333 -86.5 -42s-60.5 -21 -91.5 -28s-60.5 -12.167 -88.5 -15.5l379 -383l-195 -175l-459 521l11 -521l-371 -20l-39 1423l391 21c48 0 106.167 -1.66699 174.5 -5s146.833 -14.666 235.5 -33.999
c39.333 -8.66699 77.333 -24.667 114 -48s69.5 -51.5 98.5 -84.5s52.833 -70 71.5 -111s29.667 -83.5 33 -127.5c2 -29.333 2.5 -57 1.5 -83s-5 -51.667 -12 -77s-17.833 -50.5 -32.5 -75.5s-35 -50.833 -61 -77.5zM780 937.999c-4.66699 38.667 -16.5 70.501 -35.5 95.501
s-45 44.333 -78 58s-72.5 22 -118.5 25s-98.333 2.16699 -157 -2.5v-373c9.33301 0 26 -1 50 -3s51 -2.83301 81 -2.5s61 3.16602 93 8.49902s60.833 15.333 86.5 30s46 35 61 61s20.833 60.333 17.5 103z" />
    <glyph glyph-name="S" unicode="S" horiz-adv-x="1224" 
d="M213 406c79.333 -69.333 148.332 -114 206.999 -134s107.667 -14.333 147 17c16 16 20.333 34 13 54s-22 41 -44 63s-49.167 44.5 -81.5 67.5l-98 68l-93.5 64.5c-29.333 20.667 -52.333 39.334 -69 56.001l-24 20c-12.667 10.667 -27.167 25 -43.5 43
s-33.166 39.333 -50.499 64s-32 52.5 -44 83.5s-20 65 -24 102s-1.33301 76.833 8 119.5c15.333 54 40.833 102.667 76.5 146s78.667 80.166 129 110.499s106.666 53.833 168.999 70.5s127.5 25 195.5 25c58 0 112 -2.66699 162 -8s97.167 -14.166 141.5 -26.499
s86.833 -28.5 127.5 -48.5s80.334 -45 119.001 -75l-196 -334c-29.333 30 -62.833 56.667 -100.5 80s-76.334 42.166 -116.001 56.499s-78.667 23.166 -117 26.499s-73 0.166016 -104 -9.50098s-56.667 -27 -77 -52s-31.833 -58.833 -34.5 -101.5
c0 -36.667 7.66699 -69.167 23 -97.5s35.333 -54.5 60 -78.5s52.667 -46.667 84 -68l95.5 -65c32.333 -22 63.5 -45.5 93.5 -70.5s56.167 -53.167 78.5 -84.5s39.333 -66.666 51 -105.999s15.167 -84.666 10.5 -135.999c-4.66699 -49.333 -18.667 -91.166 -42 -125.499
s-52.333 -61.833 -87 -82.5s-73.5 -35 -116.5 -43s-86.833 -10.333 -131.5 -7c-27.333 2 -54.333 5.66699 -81 11s-52.667 12 -78 20s-49.666 16.667 -72.999 26s-45 18.666 -65 27.999c-47.333 22 -92.333 47 -135 75l68 127l25 47l21.5 41l15 29
c3.66699 7.33301 5.5 11.333 5.5 12z" />
    <glyph glyph-name="T" unicode="T" horiz-adv-x="1377" 
d="M797 1126l18 -1112l-369 -14l-20 1114l-416 -20l-10 303l1260 39l10 -291z" />
    <glyph glyph-name="U" unicode="U" horiz-adv-x="1528" 
d="M0 1434l442.003 -0.00585938c0 -151.333 -0.833008 -286.333 -2.5 -405s-0.833984 -223.167 2.49902 -313.5s10.666 -166.833 21.999 -229.5s29.833 -113.5 55.5 -152.5s60 -66.667 103 -83s98.167 -22.833 165.5 -19.5s122 18.333 164 45s74.5 63.834 97.5 111.501
s38.5 105.334 46.5 173.001s12.333 144.167 13 229.5s-0.666016 178.833 -3.99902 280.5s-5 210.5 -5 326.5h24.5c16.333 0 36.5 -0.166992 60.5 -0.5s50 -0.5 78 -0.5h78c24 0 44 0.166992 60 0.5l24 0.5c0 -106 -0.166992 -199.167 -0.5 -279.5s-1 -150.833 -2 -211.5
s-2.16699 -113.5 -3.5 -158.5s-3.33301 -85.667 -6 -122s-6 -69.666 -10 -99.999s-8.66699 -61.5 -14 -93.5c-10.667 -62 -33.5 -119.833 -68.5 -173.5s-79.667 -100.5 -134 -140.5s-116.833 -71.333 -187.5 -94s-147 -34 -229 -34c-80 0 -151.833 6.5 -215.5 19.5
s-120.334 30.167 -170.001 51.5s-92.834 46 -129.501 74s-68 56.833 -94 86.5s-47.5 59.334 -64.5 89.001s-30.167 57.167 -39.5 82.5c-6.66699 19.333 -12.667 41.5 -18 66.5s-10 55.667 -14 92s-7.66699 79.833 -11 130.5s-6 111.334 -8 182.001
s-3.5 152.834 -4.5 246.501s-1.5 201.5 -1.5 323.5z" />
    <glyph glyph-name="V" unicode="V" horiz-adv-x="1578" 
d="M1479 1358l-588 -1360l-320 20l-573 1321l289 95l401 -971l377 997z" />
    <glyph glyph-name="W" unicode="W" horiz-adv-x="1966" 
d="M1303 481l237 942l338 -61l-362 -1348l-318 35l-209 797l-299 -848h-352l-338 1391l397 47l193 -863l266 863l211 -17z" />
    <glyph glyph-name="X" unicode="X" horiz-adv-x="1469" 
d="M1065 -6l-401 465l-410 -451l-242 246l439 463l-422 467l282 252l391 -459l355 407l198 -184l-383 -434l482 -535z" />
    <glyph glyph-name="Y" unicode="Y" horiz-adv-x="1510" 
d="M932 700l39 -692l-357 -20l-41 674l-573 573l258 219l514 -555l416 535l219 -160z" />
    <glyph glyph-name="Z" unicode="Z" horiz-adv-x="1221" 
d="M936 252l-12 -246l-826 27v203l549 862h-647v338l1012 -15v-268l-504 -895z" />
    <glyph glyph-name="bracketleft" unicode="[" horiz-adv-x="524" 
d="M0 1425h410v-137h-215l38 -1149l177 19l8 -135l-379 -21l-39 1423v0z" />
    <glyph glyph-name="backslash" unicode="\" horiz-adv-x="881" 
d="M537 45l-537 1245l217 109l557 -1262z" />
    <glyph glyph-name="bracketright" unicode="]" horiz-adv-x="512" 
d="M379 2l-379 21l8 135l176 -19l31 1157h-215v138h410z" />
    <glyph glyph-name="asciicircum" unicode="^" horiz-adv-x="1108" 
d="M152 827l-148 148l516 553l479 -553l-184 -148l-315 392l-348 -392v0z" />
    <glyph glyph-name="underscore" unicode="_" horiz-adv-x="1124" 
d="M1012 -287h-1012l2 181l1014 -11z" />
    <glyph glyph-name="grave" unicode="`" horiz-adv-x="340" 
d="M0 1407l94 131l246 -207l-66 -86z" />
    <glyph glyph-name="a" unicode="a" 
d="M930 408h-445l-137 -408l-348 96l524 1338l289 -19l543 -1298l-271 -99zM852 582l-174 407l-135 -407h309z" />
    <glyph glyph-name="b" unicode="b" horiz-adv-x="1229" 
d="M1114 1053c6 -29.333 7.66797 -61.668 5.00098 -97.001s-10 -70.333 -22 -105s-28.667 -67.667 -50 -99s-47.333 -57.333 -78 -78c-16.667 -11.333 -32.834 -20.833 -48.501 -28.5s-31.5 -14.334 -47.5 -20.001s-32.667 -10.834 -50 -15.501
s-35.666 -9.33398 -54.999 -14.001c49.333 -28.667 89 -58.667 119 -90s51 -69.666 63 -114.999c6 -20 9 -41.667 9 -65s-2.66699 -46.833 -8 -70.5s-13.666 -46.667 -24.999 -69s-25.666 -42.166 -42.999 -59.499c-29.333 -29.333 -64.833 -52.333 -106.5 -69
s-84.834 -29.167 -129.501 -37.5s-88 -13.666 -130 -15.999s-77.667 -3.83301 -107 -4.5h-371l-39 1423l391 21c24 0 49.833 -0.166992 77.5 -0.5s57.667 -1.83301 90 -4.5s67.166 -7 104.499 -13s77.666 -14.333 120.999 -25c42.667 -10.667 83 -27 121 -49
s71.667 -48.333 101 -79s53.333 -64.667 72 -102s30.667 -76.666 36 -117.999zM406.001 210.998c10 -0.666992 24.501 -1.49707 43.501 -2.49707s39.667 -0.833008 62 0.5s45 4 68 8s43.333 11 61 21s31.667 23.167 42 39.5s14.166 37.166 11.499 62.499
c-4 36 -16.5 62.833 -37.5 80.5s-46 29.667 -75 36s-59.5 8.66602 -91.5 6.99902s-61 -3.83398 -87 -6.50098zM387.002 743.001c7.33301 0 21.998 -1.00098 43.998 -3.00098s47.167 -2.5 75.5 -1.5s57.833 4.33301 88.5 10s58.5 15.667 83.5 30s44.833 33.833 59.5 58.5
s20.667 57 18 97c-3.33301 36.667 -14.666 66.334 -33.999 89.001s-45.5 39.667 -78.5 51s-71.667 18 -116 20s-93.166 0.666992 -146.499 -4z" />
    <glyph glyph-name="c" unicode="c" horiz-adv-x="1354" 
d="M1185 86c-24 -19.333 -52.167 -35.334 -84.5 -48.001s-66.5 -22.5 -102.5 -29.5s-72.5 -11.833 -109.5 -14.5s-72.167 -4 -105.5 -4c-64 0 -127.5 7.66699 -190.5 23s-123 37.333 -180 66s-109.833 63.167 -158.5 103.5s-90.834 85.333 -126.501 135
s-63.667 103.5 -84 161.5s-30.5 119 -30.5 183c-3.33301 70.667 2 139.167 16 205.5s36 128.666 66 186.999s67.833 111.666 113.5 159.999s99 90 160 125s129.167 62.167 204.5 81.5s157.666 29 246.999 29c58 0 112.833 -4.16699 164.5 -12.5s97.334 -18 137.001 -29
s71.834 -21.667 96.501 -32s39.334 -17.833 44.001 -22.5v-365c-14 9.33301 -34.833 19.5 -62.5 30.5s-59.5 20.667 -95.5 29s-75.167 14.333 -117.5 18s-84.833 3.16699 -127.5 -1.5c-26 0 -56.167 -3.33301 -90.5 -10s-69.5 -17.5 -105.5 -32.5
s-70.833 -34.333 -104.5 -58s-62.667 -52.667 -87 -87s-41.833 -74.166 -52.5 -119.499s-11.334 -96.666 -2.00098 -153.999c9.33301 -48 30 -90.167 62 -126.5s70.5 -66.833 115.5 -91.5s94.5 -43.167 148.5 -55.5s107.833 -19 161.5 -20s105 3.83301 154 14.5
s91.167 27.334 126.5 50.001v-289z" />
    <glyph glyph-name="d" unicode="d" horiz-adv-x="1487" 
d="M1372 874c16.667 -88 19.001 -170.166 7.00098 -246.499s-35 -145.833 -69 -208.5s-78 -118.5 -132 -167.5s-115 -90.667 -183 -125s-141.667 -61.166 -221 -80.499s-161.333 -30.666 -246 -33.999c-98.667 -5.33301 -180.334 -8.33301 -245.001 -9
s-116.667 -0.333984 -156 0.999023c-46 1.33301 -81.667 4 -107 8l-20 1401c40.667 4.66699 83.5 8.83398 128.5 12.501s88.833 6.66699 131.5 9s82.334 4.16602 119.001 5.49902s67.334 2 92.001 2c42.667 0 92.167 -1.83301 148.5 -5.5s115.166 -11.834 176.499 -24.501
s122.666 -31.334 183.999 -56.001s118.333 -58 171 -100s98.5 -94.167 137.5 -156.5s66.833 -137.5 83.5 -225.5zM352.001 283.001c102 -6.66699 193.502 -2.83594 274.502 11.4971s149.167 38.833 204.5 73.5s96.666 79.167 123.999 133.5s38.666 117.833 33.999 190.5
c-2.66699 46.667 -12 87.667 -28 123s-36.5 65.833 -61.5 91.5s-53.667 46.834 -86 63.501s-66 29.834 -101 39.501s-70.833 16.5 -107.5 20.5s-71.667 5.83301 -105 5.5s-64.333 -2.16602 -93 -5.49902s-53 -7.33301 -73 -12z" />
    <glyph glyph-name="e" unicode="e" horiz-adv-x="1270" 
d="M1161 1090h-792l6 -472h438v-192h-430l4 -156l649 21l8 -273l-1026 -18l-18 1432h1161v-342v0z" />
    <glyph glyph-name="f" unicode="f" horiz-adv-x="1262" 
d="M387 0l-387 8l20 1436l1141 -33l-8 -342l-764 21v-486h449l-2 -192l-447 4z" />
    <glyph glyph-name="g" unicode="g" horiz-adv-x="1370" 
d="M857 1061c-26 0 -56.3311 -3.50293 -90.998 -10.5029s-70.167 -18 -106.5 -33s-71.333 -34.5 -105 -58.5s-62.667 -53.167 -87 -87.5s-42 -74.166 -53 -119.499s-11.5 -96.666 -1.5 -153.999c10 -52.667 30.833 -98.167 62.5 -136.5s69.667 -69.333 114 -93
s93 -40.334 146 -50.001s105.833 -12.167 158.5 -7.5v172h-172v232h463v-346v-289v-78h-271h-135c-64 0 -127.5 7.33301 -190.5 22s-123 35.5 -180 62.5s-109.833 59.833 -158.5 98.5s-90.834 82.334 -126.501 131.001s-63.667 101.667 -84 159s-30.5 118 -30.5 182
c-3.33301 70.667 2 139 16 205s36 128.333 66 187s67.833 112.334 113.5 161.001s99 90.5 160 125.5s129.333 62.167 205 81.5s158.5 29 248.5 29c58 0 112.667 -4.16699 164 -12.5s96.666 -18 135.999 -29s71.5 -21.667 96.5 -32s40.167 -17.833 45.5 -22.5v-365
c-14 9.33301 -34.833 19.333 -62.5 30s-59.5 20.167 -95.5 28.5s-75.167 14.5 -117.5 18.5s-84.833 3.66699 -127.5 -1z" />
    <glyph glyph-name="h" unicode="h" horiz-adv-x="1559" 
d="M1413 1430l43 -1397l-332 -15l-12 404l-682 -14v-408h-428l-2 1399h428v-758l674 18l-27 758z" />
    <glyph glyph-name="i" unicode="i" horiz-adv-x="677" 
d="M459 -8l-393 20l59 1434l393 -21l-59 -1433v0z" />
    <glyph glyph-name="j" unicode="j" horiz-adv-x="975" 
d="M500 1438l364.005 -19.001c0 -35.333 -0.5 -83.333 -1.5 -144s-2.83301 -127.834 -5.5 -201.501s-5.83398 -150.667 -9.50098 -231s-8.5 -157.333 -14.5 -231s-12.833 -140.834 -20.5 -201.501s-16.5 -108.667 -26.5 -144c-14 -47.333 -34.5 -87.333 -61.5 -120
s-56.833 -59 -89.5 -79s-66 -34.833 -100 -44.5s-65 -15.167 -93 -16.5c-43.333 -2.66699 -86.333 -1.16699 -129 4.5s-83.167 14.334 -121.5 26.001s-73.833 25.834 -106.5 42.501s-61 34.667 -85 54l96 229c6.66699 -3.33301 16.5 -7.83301 29.5 -13.5
s28.167 -11.667 45.5 -18s35.666 -12.5 54.999 -18.5s38.666 -10.5 57.999 -13.5s37.666 -4.33301 54.999 -4s32.666 3.83301 45.999 10.5c28.667 14 49 47.667 61 101s20.333 126.833 25 220.5s8.16699 207.834 10.5 342.501s8.5 291 18.5 469z" />
    <glyph glyph-name="k" unicode="k" horiz-adv-x="1186" 
d="M1092 1208l-510 -528l471 -465l-195 -195l-432 492l41 -492l-389 -20l-78 1423l389 19l21 -506l428 506l254 -234v0z" />
    <glyph glyph-name="l" unicode="l" horiz-adv-x="983" 
d="M59 0l-59 1425l391 19l39 -1178l438 31l11 -258z" />
    <glyph glyph-name="m" unicode="m" horiz-adv-x="1575" 
d="M782 393l398 1000l270 8l23 -1362l-322 -4l-4 739l-324 -782l-145 16l-313 684l22 -690h-364l-19 1430h307z" />
    <glyph glyph-name="n" unicode="n" horiz-adv-x="1345" 
d="M365 868l20 -868h-385v1434h291l639 -912l-43 897l330 13l22 -1393l-270 -21z" />
    <glyph glyph-name="o" unicode="o" horiz-adv-x="1595" 
d="M743 1460c72.667 0 142 -8.83398 208 -26.501s127.167 -42.5 183.5 -74.5s107.5 -70.667 153.5 -116s85.167 -95.333 117.5 -150s57.333 -113.667 75 -177s26.5 -129 26.5 -197c0 -67.333 -8.83301 -132.166 -26.5 -194.499s-42.667 -120.5 -75 -174.5
s-71.5 -103.167 -117.5 -147.5s-97.167 -82.166 -153.5 -113.499s-117.5 -55.666 -183.5 -72.999s-135.333 -26 -208 -26c-68.667 0 -134.834 8.66699 -198.501 26s-123 41.666 -178 72.999s-105 69.166 -150 113.499s-83.5 93.5 -115.5 147.5s-56.833 112 -74.5 174
s-26.5 127 -26.5 195s8.83301 133.667 26.5 197s42.5 122.333 74.5 177s70.5 104.667 115.5 150s95 84 150 116s114.333 56.833 178 74.5s129.834 26.5 198.501 26.5zM743 275.999c62 0 119.333 11 172 33s98.167 51.5 136.5 88.5s68.333 79.667 90 128
s32.5 99.166 32.5 152.499c0 58.667 -10.833 112.5 -32.5 161.5s-51.667 91 -90 126s-83.833 62.333 -136.5 82s-110 29.5 -172 29.5c-56.667 0 -109.834 -9.83301 -159.501 -29.5s-93 -47 -130 -82s-66.167 -77 -87.5 -126s-32 -102.833 -32 -161.5
c0 -53.333 10.667 -104.166 32 -152.499s50.5 -91 87.5 -128s80.333 -66.5 130 -88.5s102.834 -33 159.501 -33z" />
    <glyph glyph-name="p" unicode="p" horiz-adv-x="1215" 
d="M1116 1038c0 -29.333 -0.496094 -57.666 -1.49609 -84.999s-4.5 -53.666 -10.5 -78.999s-15.667 -50.333 -29 -75s-32.333 -49.334 -57 -74.001c-22.667 -26.667 -50.334 -49 -83.001 -67s-67.5 -32.833 -104.5 -44.5s-75.5 -20.667 -115.5 -27s-78.5 -11 -115.5 -14
s-71.833 -4.66699 -104.5 -5s-60.334 -0.5 -83.001 -0.5v-547l-373 -20l-39 1430l391 20c24.667 0 51.667 -0.166992 81 -0.5s61.166 -1.83301 95.499 -4.5s71.166 -6.83398 110.499 -12.501s81 -13.5 125 -23.5s85 -26.667 123 -50s71.167 -51.5 99.5 -84.5
s50.5 -69.667 66.5 -110s24 -82.5 24 -126.5zM399.004 770c8 0 23.5 -0.666016 46.5 -1.99902s49.167 -1.66602 78.5 -0.999023s60 3.66699 92 9s60.833 15 86.5 29s46.167 33.5 61.5 58.5s21.333 57.5 18 97.5c-3.33301 38.667 -14.5 70.5 -33.5 95.5
s-45.167 44.167 -78.5 57.5s-73.5 21.666 -120.5 24.999s-99.833 2.66602 -158.5 -2.00098z" />
    <glyph glyph-name="q" unicode="q" horiz-adv-x="1599" 
d="M1499 719c0 -81.333 -13.332 -159.501 -39.999 -234.501s-64.334 -143.167 -113.001 -204.5s-106.834 -113.833 -174.501 -157.5s-142.834 -74.834 -225.501 -93.501l266 -156l-165 -209l-451 344c-81.333 14.667 -158 43.834 -230 87.501s-135 97.334 -189 161.001
s-96.667 135.167 -128 214.5s-47 162 -47 248c0 67.333 8.83301 132 26.5 194s42.5 120 74.5 174s70.333 103.167 115 147.5s94.334 82.333 149.001 114s113.334 56.167 176.001 73.5s128 26 196 26c71.333 0 139.833 -8.66699 205.5 -26s126.667 -41.833 183 -73.5
s107.333 -69.667 153 -114s84.667 -93.5 117 -147.5s57.333 -112 75 -174s26.5 -126.667 26.5 -194zM739.001 278.999c61.333 0 118.166 10.333 170.499 31s97.5 48.5 135.5 83.5s67.833 76 89.5 123s32.5 96.833 32.5 149.5c0 57.333 -10.833 110 -32.5 158
s-51.5 89.5 -89.5 124.5s-83.167 62.167 -135.5 81.5s-109.166 29 -170.499 29c-56 0 -108.333 -9.66699 -157 -29s-91 -46.5 -127 -81.5s-64.5 -76.5 -85.5 -124.5s-31.5 -100.667 -31.5 -158c0 -52.667 10.5 -102.5 31.5 -149.5s49.5 -88 85.5 -123
s78.333 -62.833 127 -83.5s101 -31 157 -31z" />
    <glyph glyph-name="r" unicode="r" horiz-adv-x="1229" 
d="M1014 721c-21.333 -22 -45.833 -41.168 -73.5 -57.501s-56.5 -30.333 -86.5 -42s-60.5 -21 -91.5 -28s-60.5 -12.167 -88.5 -15.5l379 -383l-195 -175l-459 521l11 -521l-371 -20l-39 1423l391 21c48 0 106.167 -1.66699 174.5 -5s146.833 -14.666 235.5 -33.999
c39.333 -8.66699 77.333 -24.667 114 -48s69.5 -51.5 98.5 -84.5s52.833 -70 71.5 -111s29.667 -83.5 33 -127.5c2 -29.333 2.5 -57 1.5 -83s-5 -51.667 -12 -77s-17.833 -50.5 -32.5 -75.5s-35 -50.833 -61 -77.5zM780 937.999c-4.66699 38.667 -16.5 70.501 -35.5 95.501
s-45 44.333 -78 58s-72.5 22 -118.5 25s-98.333 2.16699 -157 -2.5v-373c9.33301 0 26 -1 50 -3s51 -2.83301 81 -2.5s61 3.16602 93 8.49902s60.833 15.333 86.5 30s46 35 61 61s20.833 60.333 17.5 103z" />
    <glyph glyph-name="s" unicode="s" horiz-adv-x="1225" 
d="M213 406c79.333 -69.333 148.332 -114 206.999 -134s107.667 -14.333 147 17c16 16 20.333 34 13 54s-22 41 -44 63s-49.167 44.5 -81.5 67.5l-98 68l-93.5 64.5c-29.333 20.667 -52.333 39.334 -69 56.001l-24 20c-12.667 10.667 -27.167 25 -43.5 43
s-33.166 39.333 -50.499 64s-32 52.5 -44 83.5s-20 65 -24 102s-1.33301 76.833 8 119.5c15.333 54 40.833 102.667 76.5 146s78.667 80.166 129 110.499s106.666 53.833 168.999 70.5s127.5 25 195.5 25c58 0 112 -2.66699 162 -8s97.167 -14.166 141.5 -26.499
s86.833 -28.5 127.5 -48.5s80.334 -45 119.001 -75l-196 -334c-29.333 30 -62.833 56.667 -100.5 80s-76.334 42.166 -116.001 56.499s-78.667 23.166 -117 26.499s-73 0.166016 -104 -9.50098s-56.667 -27 -77 -52s-31.833 -58.833 -34.5 -101.5
c0 -36.667 7.66699 -69.167 23 -97.5s35.333 -54.5 60 -78.5s52.667 -46.667 84 -68l95.5 -65c32.333 -22 63.5 -45.5 93.5 -70.5s56.167 -53.167 78.5 -84.5s39.333 -66.666 51 -105.999s15.167 -84.666 10.5 -135.999c-4.66699 -49.333 -18.667 -91.166 -42 -125.499
s-52.333 -61.833 -87 -82.5s-73.5 -35 -116.5 -43s-86.833 -10.333 -131.5 -7c-27.333 2 -54.333 5.66699 -81 11s-52.667 12 -78 20s-49.666 16.667 -72.999 26s-45 18.666 -65 27.999c-47.333 22 -92.333 47 -135 75l68 127l25 47l21.5 41l15 29
c3.66699 7.33301 5.5 11.333 5.5 12z" />
    <glyph glyph-name="t" unicode="t" horiz-adv-x="1368" 
d="M797 1126l18 -1112l-369 -14l-20 1114l-416 -20l-10 303l1260 39l10 -291z" />
    <glyph glyph-name="u" unicode="u" horiz-adv-x="1530" 
d="M0 1434l442.003 -0.00585938c0 -151.333 -0.833008 -286.333 -2.5 -405s-0.833984 -223.167 2.49902 -313.5s10.666 -166.833 21.999 -229.5s29.833 -113.5 55.5 -152.5s60 -66.667 103 -83s98.167 -22.833 165.5 -19.5s122 18.333 164 45s74.5 63.834 97.5 111.501
s38.5 105.334 46.5 173.001s12.333 144.167 13 229.5s-0.666016 178.833 -3.99902 280.5s-5 210.5 -5 326.5h24.5c16.333 0 36.5 -0.166992 60.5 -0.5s50 -0.5 78 -0.5h78c24 0 44 0.166992 60 0.5l24 0.5c0 -106 -0.166992 -199.167 -0.5 -279.5s-1 -150.833 -2 -211.5
s-2.16699 -113.5 -3.5 -158.5s-3.33301 -85.667 -6 -122s-6 -69.666 -10 -99.999s-8.66699 -61.5 -14 -93.5c-10.667 -62 -33.5 -119.833 -68.5 -173.5s-79.667 -100.5 -134 -140.5s-116.833 -71.333 -187.5 -94s-147 -34 -229 -34c-80 0 -151.833 6.5 -215.5 19.5
s-120.334 30.167 -170.001 51.5s-92.834 46 -129.501 74s-68 56.833 -94 86.5s-47.5 59.334 -64.5 89.001s-30.167 57.167 -39.5 82.5c-6.66699 19.333 -12.667 41.5 -18 66.5s-10 55.667 -14 92s-7.66699 79.833 -11 130.5s-6 111.334 -8 182.001
s-3.5 152.834 -4.5 246.501s-1.5 201.5 -1.5 323.5z" />
    <glyph glyph-name="v" unicode="v" horiz-adv-x="1578" 
d="M1479 1358l-588 -1360l-320 20l-573 1321l289 95l401 -971l377 997z" />
    <glyph glyph-name="w" unicode="w" horiz-adv-x="1966" 
d="M1303 481l237 942l338 -61l-362 -1348l-318 35l-209 797l-299 -848h-352l-338 1391l397 47l193 -863l266 863l211 -17z" />
    <glyph glyph-name="x" unicode="x" horiz-adv-x="1468" 
d="M1354 231l-289 -237l-401 465l-410 -451l-242 246l439 463l-422 467l282 252l391 -459l355 407l198 -184l-383 -434l482 -535v0z" />
    <glyph glyph-name="y" unicode="y" horiz-adv-x="1509" 
d="M1407 1274l-475 -574l39 -692l-357 -20l-41 674l-573 573l258 219l514 -555l416 535l219 -160v0z" />
    <glyph glyph-name="z" unicode="z" horiz-adv-x="1221" 
d="M508 258l428 -6l-12 -246l-826 27v203l549 862h-647v338l1012 -15v-268l-504 -895v0z" />
    <glyph glyph-name="braceleft" unicode="{" horiz-adv-x="586" 
d="M464 18c-44 -3.33301 -83.1611 -3.49805 -117.494 -0.498047s-64.333 7.83301 -90 14.5s-47.5 14.667 -65.5 24s-33 18.833 -45 28.5s-21.5 18.834 -28.5 27.501l-16.5 21c-19.333 28 -32.166 55.167 -38.499 81.5s-8.83301 51.5 -7.5 75.5s5.66602 46.833 12.999 68.5
s15 41.834 23 60.501l21.5 52c6.33301 16 9.5 30.333 9.5 43c0 10 -3.33301 19.667 -10 29s-15.5 17.666 -26.5 24.999s-23.333 13.166 -37 17.499s-27.5 6.5 -41.5 6.5v115c14 0 28.667 0.333008 44 1s29.5 2.66699 42.5 6s23.667 8.66602 32 15.999s12.5 18 12.5 32
c0 12.667 -3.66699 25.834 -11 39.501s-16.5 28.167 -27.5 43.5l-34.5 50.5c-12 18.333 -22.833 38.666 -32.5 60.999s-17.167 47.5 -22.5 75.5s-6.33301 59.333 -3 94c9.33301 57.333 26.833 105.666 52.5 144.999s58.834 71 99.501 95s88.167 41.333 142.5 52
s115.166 16 182.499 16v-174c-47.333 3.33301 -88 2.66602 -122 -2.00098s-62.333 -12.167 -85 -22.5s-40.667 -22.833 -54 -37.5s-23.333 -30.334 -30 -47.001s-11 -33.834 -13 -51.501s-3 -34.5 -3 -50.5c0 -28 6.16699 -54.333 18.5 -79s25.666 -48.334 39.999 -71.001
s27.666 -45.167 39.999 -67.5s18.5 -45.5 18.5 -69.5c0 -18.667 -5 -40.5 -15 -65.5s-24.333 -46.833 -43 -65.5c16.667 -9.33301 29 -21.5 37 -36.5s13.667 -29.833 17 -44.5c3.33301 -17.333 4.66602 -35.333 3.99902 -54c0 -19.333 -2.83301 -36.666 -8.5 -51.999
s-12.334 -29.666 -20.001 -42.999l-23 -39c-7.66699 -12.667 -13.667 -25.667 -18 -39s-6 -27.833 -5 -43.5s6.5 -33.167 16.5 -52.5c9.33301 -19.333 22 -33 38 -41s34.167 -12.667 54.5 -14s42.166 -0.166016 65.499 3.50098s46.666 7.83398 69.999 12.501v-170v0z" />
    <glyph glyph-name="bar" unicode="|" horiz-adv-x="512" 
d="M379 2l-190 -7l8 1438h192z" />
    <glyph glyph-name="braceright" unicode="}" horiz-adv-x="586" 
d="M20 18l0.00195312 169.997c24 -4.66699 47.5 -8.83398 70.5 -12.501s44.667 -4.83398 65 -3.50098s38.5 6 54.5 14s28.667 21.667 38 41c10 19.333 15.5 36.833 16.5 52.5s-0.666992 30.167 -5 43.5s-10.333 26.333 -18 39l-23 39
c-7.66699 13.333 -14.334 27.666 -20.001 42.999s-8.5 32.666 -8.5 51.999c-0.666992 18.667 0.666016 36.667 3.99902 54c3.33301 14.667 9 29.5 17 44.5s20.333 27.167 37 36.5c-18.667 18.667 -33 40.5 -43 65.5s-15 46.833 -15 65.5c0 24 6.16699 47.167 18.5 69.5
s25.666 44.833 39.999 67.5s27.666 46.334 39.999 71.001s18.5 51 18.5 79c0 16 -1 32.833 -3 50.5s-6.33301 34.834 -13 51.501s-16.667 32.334 -30 47.001s-31.333 27.167 -54 37.5s-50.834 17.833 -84.501 22.5s-74.5 5.33398 -122.5 2.00098v174
c66.667 0 127.334 -5.33301 182.001 -16s102.334 -28 143.001 -52s73.834 -55.667 99.501 -95s43.167 -87.666 52.5 -144.999c3.33301 -34.667 2.5 -66 -2.5 -94s-12.333 -53.167 -22 -75.5s-20.667 -42.666 -33 -60.999l-35 -50.5c-11 -15.333 -20.167 -29.833 -27.5 -43.5
s-11 -26.834 -11 -39.501c0 -14 4.16699 -24.667 12.5 -32s19 -12.666 32 -15.999s27.167 -5.33301 42.5 -6s30 -1 44 -1v-115c-14 0 -27.833 -2.16699 -41.5 -6.5s-26 -10.166 -37 -17.499s-19.833 -15.666 -26.5 -24.999s-10 -19 -10 -29c0 -12.667 3.16699 -27 9.5 -43
s13.666 -33.333 21.999 -52s16 -38.834 23 -60.501s11.333 -44.5 13 -68.5s-0.833008 -49.167 -7.5 -75.5s-19.667 -53.5 -39 -81.5c-6 -8 -15.667 -19.5 -29 -34.5s-33.666 -29.333 -60.999 -43s-63 -24.667 -107 -33s-99.333 -9.83301 -166 -4.5z" />
    <glyph glyph-name="asciitilde" unicode="~" horiz-adv-x="1108" 
d="M-4 678c6.66699 9.33301 16.4932 21.998 29.4932 37.998s28.333 33 46 51s37.667 36.333 60 55s45.833 35.5 70.5 50.5s50.334 27.333 77.001 37s53.667 14.5 81 14.5c35.333 0 65 -5.5 89 -16.5s44.5 -24.667 61.5 -41s31.667 -34.166 44 -53.499
s24.333 -37.166 36 -53.499s24.334 -30 38.001 -41s30.167 -16.5 49.5 -16.5c21.333 0 42 7.16699 62 21.5s37.667 30.166 53 47.499c18 20 35 43 51 69l168 -154c-7.33301 -9.33301 -17.666 -21.166 -30.999 -35.499s-28.666 -29.5 -45.999 -45.5s-36.166 -32 -56.499 -48
s-41 -30.5 -62 -43.5s-42 -23.5 -63 -31.5s-40.833 -11.667 -59.5 -11c-31.333 0 -58.166 4.66699 -80.499 14s-42 20.666 -59 33.999s-32.167 27.833 -45.5 43.5s-26.666 30.167 -39.999 43.5s-27.333 24.5 -42 33.5s-32 13.5 -52 13.5c-15.333 0 -29.833 -2.5 -43.5 -7.5
s-26.5 -11.5 -38.5 -19.5s-23.167 -17 -33.5 -27s-19.833 -20.333 -28.5 -31c-20 -25.333 -37.667 -53.666 -53 -84.999z" />
    <glyph glyph-name="uni00A0" unicode="&#xa0;" horiz-adv-x="819" 
 />
    <glyph glyph-name="exclamdown" unicode="&#xa1;" horiz-adv-x="504" 
d="M84.0957 897.144l242.926 -13.9951l-36.9883 -929.717l-289.911 13.9961zM399 1218.05c0 -19.9941 -3.83105 -39.8213 -11.4951 -59.4814c-7.66504 -19.6611 -18.6621 -37.1562 -32.9912 -52.4854s-31.6572 -27.8252 -51.9844 -37.4883
c-20.3271 -9.66406 -43.4863 -14.8291 -69.4785 -15.4961c-27.9912 -0.666016 -52.8174 3.99902 -74.4775 13.9961s-39.8213 22.9932 -54.4834 38.9883s-25.3252 33.8232 -31.9902 53.4844s-9.66406 39.1553 -8.99707 58.4824
c1.33301 21.9932 6.83105 41.9873 16.4951 59.9824c9.66309 17.9951 22.3262 33.4902 37.9883 46.4863s33.4902 23.1592 53.4834 30.4902c19.9941 7.33105 40.6543 10.9971 61.9814 10.9971c20.6602 0 40.8203 -3.66602 60.4814 -10.9971s37.3223 -17.4941 52.9834 -30.4902
c15.6621 -12.9961 28.3252 -28.4912 37.9893 -46.4863c9.66309 -17.9951 14.4951 -37.9893 14.4951 -59.9824z" />
    <glyph glyph-name="sterling" unicode="&#xa3;" horiz-adv-x="895" 
d="M786 274l-0.00390625 -214.999h-786v191c18 0 39.333 3.16699 64 9.5s48.167 17 70.5 32s41.333 34.5 57 58.5s23.5 54 23.5 90c0 6 -0.166992 14.667 -0.5 26s-1.16602 23.833 -2.49902 37.5s-3.83301 27.5 -7.5 41.5s-8.5 27 -14.5 39h-165v166h141l-32 140.5
c-10 45.667 -15 86.167 -15 121.5c0 48 10.833 92.333 32.5 133s50.334 76 86.001 106s76.334 53.333 122.001 70s92.5 25 140.5 25s89.667 -7.5 125 -22.5s65 -31.167 89 -48.5c28 -21.333 52 -45 72 -71l-118 -121c-10 9.33301 -22 17.666 -36 24.999
c-12 6 -27 11.667 -45 17s-39 8 -63 8c-36 0 -66 -6.5 -90 -19.5s-43.5 -28.5 -58.5 -46.5s-25.667 -36.5 -32 -55.5s-9.5 -34.5 -9.5 -46.5c0 -6 1.33301 -16 4 -30s6.33398 -30.667 11.001 -50l15 -64l17 -71h190v-166h-143c6 -12 10.833 -25 14.5 -39
s6.16699 -27.833 7.5 -41.5s2.16602 -26.167 2.49902 -37.5s0.5 -20 0.5 -26c0 -36 -3.66699 -64.833 -11 -86.5s-15.666 -38.5 -24.999 -50.5c-10.667 -14 -22.667 -23.667 -36 -29h405z" />
    <glyph glyph-name="dieresis" unicode="&#xa8;" horiz-adv-x="469" 
d="M106 1358c-12 -0.666992 -23.998 1.00293 -35.998 5.00293s-22.667 10 -32 18s-17.333 18 -24 30s-10.667 25.667 -12 41c-1.33301 16.667 0.5 31.334 5.5 44.001s12 23.5 21 32.5s19.167 15.833 30.5 20.5s23 7 35 7c13.333 0.666992 25.666 -1.5 36.999 -6.5
s21.166 -11.833 29.499 -20.5s14.833 -18.834 19.5 -30.501s7.33398 -23.834 8.00098 -36.501c0.666992 -12 -0.833008 -24 -4.5 -36s-9 -22.833 -16 -32.5s-15.833 -17.834 -26.5 -24.501s-22.334 -10.334 -35.001 -11.001zM391.002 1374
c-24.667 -1.33301 -45.665 6.16895 -62.998 22.502s-27 36.166 -29 59.499c-0.666992 12.667 1 24.667 5 36s9.83301 21.166 17.5 29.499s16.5 15 26.5 20s21 7.83301 33 8.5c25.333 0.666992 46.666 -7 63.999 -23s26.666 -37 27.999 -63
c2 -24.667 -4.83301 -45.5 -20.5 -62.5s-36.167 -26.167 -61.5 -27.5z" />
    <glyph glyph-name="copyright" unicode="&#xa9;" horiz-adv-x="1208" 
d="M731 215c-9.33301 -7.33301 -20.1641 -13.3311 -32.4971 -17.998s-25.333 -8.5 -39 -11.5s-27.5 -5 -41.5 -6s-27.333 -1.5 -40 -1.5c-37.333 0 -73.5 6.5 -108.5 19.5s-66.167 31 -93.5 54s-49.333 50.167 -66 81.5s-25 65 -25 101c-2 40.667 3.16699 79.167 15.5 115.5
s31.5 68.166 57.5 95.499s58.667 49.166 98 65.499s84.666 24.5 135.999 24.5c22 0 42.833 -1.66699 62.5 -5s37 -7 52 -11s27.333 -8 37 -12s15.167 -7 16.5 -9v-139c-6 3.33301 -14.167 7.16602 -24.5 11.499s-22.333 8.16602 -36 11.499s-28.5 5.66602 -44.5 6.99902
s-32.333 1 -49 -1c-14.667 0 -32.667 -3 -54 -9s-41.333 -15.667 -60 -29s-33.667 -31.166 -45 -53.499s-14.333 -49.833 -9 -82.5c5.33301 -28 19.666 -50.667 42.999 -68s50.166 -29.666 80.499 -36.999s61 -9.66602 92 -6.99902s56.833 10.667 77.5 24v-111z
M547.002 1014c80 0 154.167 -14.333 222.5 -43s127.5 -67.5 177.5 -116.5s89.333 -106.5 118 -172.5s43 -136.333 43 -211c0 -74 -14.333 -143.5 -43 -208.5s-68 -121.667 -118 -170s-109.167 -86.333 -177.5 -114s-142.5 -41.5 -222.5 -41.5c-76 0 -147 13.833 -213 41.5
s-123.667 65.667 -173 114s-88.166 105 -116.499 170s-42.5 134.5 -42.5 208.5c0 74.667 14.167 145 42.5 211s67.166 123.5 116.499 172.5s107 87.833 173 116.5s137 43 213 43zM545.002 25.002c66.667 0 128.167 11.667 184.5 35s105 54.5 146 93.5s73 84.333 96 136
s34.5 106.167 34.5 163.5c0 62.667 -11.5 120.167 -34.5 172.5s-55 97.333 -96 135s-89.667 66.834 -146 87.501s-117.833 31 -184.5 31c-60.667 0 -117.5 -10.333 -170.5 -31s-99.167 -49.834 -138.5 -87.501s-70.333 -82.667 -93 -135s-34 -109.833 -34 -172.5
c0 -57.333 11.333 -111.833 34 -163.5s53.667 -97 93 -136s85.5 -70.167 138.5 -93.5s109.833 -35 170.5 -35z" />
    <glyph glyph-name="registered" unicode="&#xae;" horiz-adv-x="1210" 
d="M549 1012c80 0 154.167 -14.333 222.5 -43s127.5 -67.5 177.5 -116.5s89.333 -106.5 118 -172.5s43 -136.333 43 -211c0 -74 -14.333 -143.5 -43 -208.5s-68 -121.667 -118 -170s-109.167 -86.5 -177.5 -114.5s-142.5 -42 -222.5 -42c-76 0 -147 14 -213 42
s-123.667 66.167 -173 114.5s-88.166 105 -116.499 170s-42.5 134.5 -42.5 208.5c0 74.667 14.167 145 42.5 211s67.166 123.5 116.499 172.5s107 87.833 173 116.5s137 43 213 43zM547 23c66.667 0 128.167 11.667 184.5 35s105 54.5 146 93.5s73 84.333 96 136
s34.5 106.167 34.5 163.5c0 62.667 -11.5 120.167 -34.5 172.5s-55 97.166 -96 134.499s-89.667 66.5 -146 87.5s-117.833 31.5 -184.5 31.5c-60.667 0 -117.5 -10.5 -170.5 -31.5s-99.167 -50.167 -138.5 -87.5s-70.333 -82.166 -93 -134.499s-34 -109.833 -34 -172.5
c0 -57.333 11.333 -111.833 34 -163.5s53.667 -97 93 -136s85.5 -70.167 138.5 -93.5s109.833 -35 170.5 -35zM774 446c-17.333 -18 -39.3301 -31.5 -65.9971 -40.5s-52.334 -15.167 -77.001 -18.5l160 -160l-82 -73l-191 217l2 -217l-153 -9l-17 594l164 11
c20.667 0 45.167 -0.666992 73.5 -2s61.166 -6.33301 98.499 -15c16.667 -4 32.667 -10.833 48 -20.5s29 -21.5 41 -35.5s21.667 -29.5 29 -46.5s11.666 -34.5 12.999 -52.5c0.666992 -12.667 1 -24.5 1 -35.5s-1.5 -21.667 -4.5 -32s-7.66699 -20.833 -14 -31.5
s-14.833 -21.667 -25.5 -33zM676.003 537c-4 32.667 -19.666 54 -46.999 64s-65.666 13 -114.999 9v-155c4 0 11.167 -0.5 21.5 -1.5s21.666 -1.33301 33.999 -1s25.166 1.5 38.499 3.5s25.333 6 36 12s19 14.5 25 25.5s8.33301 25.5 7 43.5z" />
    <glyph glyph-name="plusminus" unicode="&#xb1;" horiz-adv-x="1706" 
 />
    <glyph glyph-name="acute" unicode="&#xb4;" horiz-adv-x="340" 
d="M66 1245l-66 86l246 207l94 -131z" />
    <glyph glyph-name="cedilla" unicode="&#xb8;" horiz-adv-x="311" 
d="M0 -240c7.33301 -1.33301 20.166 -2.33105 38.499 -2.99805s37.166 0 56.499 2s36.5 6.5 51.5 13.5s22.833 17.833 23.5 32.5c0.666992 11.333 -3 20.333 -11 27s-17.833 12.5 -29.5 17.5s-24.5 9.5 -38.5 13.5s-26.833 8.83301 -38.5 14.5s-21.5 12.334 -29.5 20.001
s-11.667 17.834 -11 30.501c-0.666992 12 1.33301 22 6 30s10.834 14.833 18.501 20.5s15.834 10.5 24.501 14.5s17 7.66699 25 11h113c-13.333 -4.66699 -25 -10 -35 -16c-9.33301 -5.33301 -17.5 -11.5 -24.5 -18.5s-10.5 -15.167 -10.5 -24.5c0 -8 4.33301 -14 13 -18
s19.667 -7.33301 33 -10s27.833 -5.83398 43.5 -9.50098s30.167 -8.83398 43.5 -15.501s24.666 -15.834 33.999 -27.501s14.333 -27.167 15 -46.5c0.666992 -28 -6.33301 -53.833 -21 -77.5s-35.667 -43.834 -63 -60.501s-60.166 -29.167 -98.499 -37.5
s-80.5 -10.833 -126.5 -7.5z" />
    <glyph glyph-name="questiondown" unicode="&#xbf;" horiz-adv-x="1229" 
d="M707.131 1298.05c0 -18.6611 -3.5 -36.9873 -10.498 -54.9824s-16.9951 -34.1572 -29.9912 -48.4863s-28.8242 -25.9922 -47.4854 -34.9893s-39.9883 -13.8291 -63.9814 -14.4951c-25.9922 -0.666992 -48.8184 3.66504 -68.4785 12.9961
c-19.6611 9.33008 -36.1562 21.3262 -49.4854 35.9883s-22.9932 31.1572 -28.9912 49.4854c-5.99805 18.3271 -8.66406 36.4883 -7.99707 54.4834c1.33301 19.3271 6.33105 37.3213 14.9951 53.9824s20.1602 30.9902 34.4893 42.9863
c14.3291 11.9971 30.4912 21.4941 48.4854 28.4922c17.9951 6.99707 36.9893 10.4961 56.9824 10.4961c18.6611 0 36.9893 -3.49902 54.9844 -10.4961c17.9951 -6.99805 34.1572 -16.4951 48.4863 -28.4922c14.3291 -11.9961 25.9922 -26.3252 34.9893 -42.9863
s13.4961 -34.6553 13.4961 -53.9824zM670.141 967.148c-7.99707 -47.9854 -20.4902 -88.4727 -37.4854 -121.463c-16.9951 -32.9893 -36.1562 -61.4805 -57.4834 -85.4736s-43.1533 -44.8203 -65.4795 -62.4814l-62.4814 -51.4834
c-19.3271 -16.6621 -35.8223 -34.3232 -49.4854 -52.9844c-13.6621 -18.6611 -21.8262 -40.9873 -24.4922 -66.9795c-3.99902 -40.6543 1.99902 -73.8105 17.9941 -99.4697s38.8213 -44.1533 68.4785 -55.4834c29.6572 -11.3291 64.4795 -16.1611 104.467 -14.4951
c39.9883 1.66602 81.6426 9.33008 124.962 22.9932c43.3203 13.6631 86.8076 32.8242 130.461 57.4834s83.8076 54.3164 120.463 88.9727l196.939 -332.898c-38.6543 -29.9912 -78.3086 -56.1494 -118.963 -78.4756c-40.6543 -22.3271 -83.3076 -40.9883 -127.961 -55.9834
s-91.9727 -26.1582 -141.958 -33.4893s-103.969 -10.9971 -161.95 -10.9971c-67.9795 0 -132.96 7.49805 -194.941 22.4932c-61.9805 14.9951 -118.13 36.6553 -168.448 64.9805c-50.3174 28.3252 -93.3037 63.3145 -128.959 104.968
c-35.6562 41.6533 -61.1484 89.4717 -76.4775 143.455c-9.33008 42.6533 -11.6621 82.8076 -6.99707 120.463s13.6621 72.4775 26.9912 104.468s29.3242 60.8145 47.9854 86.4736s36.9893 47.8193 54.9844 66.4805c17.9941 18.6611 33.9893 33.4902 47.9854 44.4873
c13.9951 10.9971 22.9922 17.8281 26.9912 20.4941c13.9951 11.3291 29.1572 22.4922 45.4854 33.4893c16.3291 10.9971 33.3242 24.6592 50.9854 40.9873c17.6611 16.3291 35.3223 37.1562 52.9834 62.4814s34.8223 57.9814 51.4844 97.9688z" />
    <glyph glyph-name="Agrave" unicode="&#xc0;" 
d="M930 408h-445l-137 -408l-348 96l524 1338l289 -19l543 -1298l-271 -99zM852 582l-174 407l-135 -407h309zM460 1610l94 131l246 -207l-66 -86z" />
    <glyph glyph-name="Aacute" unicode="&#xc1;" 
d="M930 408h-445l-137 -408l-348 96l524 1338l289 -19l543 -1298l-271 -99zM852 582l-174 407l-135 -407h309zM608 1450l-66 86l246 207l94 -131z" />
    <glyph glyph-name="Acircumflex" unicode="&#xc2;" 
d="M930 408h-445l-137 -408l-348 96l524 1338l289 -19l543 -1298l-271 -99zM852 582l-174 407l-135 -407h309zM537 1457l-57 51l195 211l180 -211l-70 -53l-119 139z" />
    <glyph glyph-name="Atilde" unicode="&#xc3;" 
d="M930 408h-445l-137 -408l-348 96l524 1338l289 -19l543 -1298l-271 -99zM852 582l-174 407l-135 -407h309zM422 1551c4.66699 6.66699 12.833 16.8301 24.5 30.4971s25.5 27 41.5 40s33.667 24.5 53 34.5s39 15 59 15c26 0 45.833 -5.66699 59.5 -17
s25.167 -23.666 34.5 -36.999l26 -37c8 -11.333 19.333 -17 34 -17c10 0 19.833 3.33301 29.5 10s18.167 14.334 25.5 23.001c8.66699 10 17 21.333 25 34l84 -73c-6 -7.33301 -15 -17 -27 -29s-25.333 -23.667 -40 -35s-29.667 -21.166 -45 -29.499
s-30 -12.166 -44 -11.499c-22.667 0 -40.667 4.5 -54 13.5s-25 19 -35 30s-20 21.167 -30 30.5s-22.333 14 -37 14s-27.667 -4.33301 -39 -13s-21 -18.334 -29 -29.001c-9.33301 -12 -18 -26 -26 -42z" />
    <glyph glyph-name="Adieresis" unicode="&#xc4;" 
d="M930 408h-445l-137 -408l-348 96l524 1338l289 -19l543 -1298l-271 -99zM852 582l-174 407l-135 -407h309zM527 1458c-12 -0.666992 -23.998 1.00293 -35.998 5.00293s-22.667 10 -32 18s-17.333 18 -24 30s-10.667 25.667 -12 41c-1.33301 16.667 0.5 31.334 5.5 44.001
s12 23.5 21 32.5s19.167 15.833 30.5 20.5s23 7 35 7c13.333 0.666992 25.666 -1.5 36.999 -6.5s21.166 -11.833 29.499 -20.5s14.833 -18.834 19.5 -30.501s7.33398 -23.834 8.00098 -36.501c0.666992 -12 -0.833008 -24 -4.5 -36s-9 -22.833 -16 -32.5
s-15.833 -17.834 -26.5 -24.501s-22.334 -10.334 -35.001 -11.001zM812.002 1474c-24.667 -1.33301 -45.665 6.16895 -62.998 22.502s-27 36.166 -29 59.499c-0.666992 12.667 1 24.667 5 36s9.83301 21.166 17.5 29.499s16.5 15 26.5 20s21 7.83301 33 8.5
c25.333 0.666992 46.666 -7 63.999 -23s26.666 -37 27.999 -63c2 -24.667 -4.83301 -45.5 -20.5 -62.5s-36.167 -26.167 -61.5 -27.5z" />
    <glyph glyph-name="Aring" unicode="&#xc5;" 
d="M930 408h-445l-137 -408l-348 96l524 1338l289 -19l543 -1298l-271 -99zM852 582l-174 407l-135 -407h309zM652 1747c22.667 0 43.667 -4 63 -12s36.166 -18.833 50.499 -32.5s25.5 -29.834 33.5 -48.501s12 -38.334 12 -59.001s-4 -39.834 -12 -57.501
s-19.167 -33.167 -33.5 -46.5s-31.166 -23.833 -50.499 -31.5s-40.333 -11.5 -63 -11.5c-20.667 0 -40.167 3.83301 -58.5 11.5s-34.5 18.167 -48.5 31.5s-25 28.833 -33 46.5s-12 36.834 -12 57.501s4 40.334 12 59.001s19 34.834 33 48.501s30.167 24.5 48.5 32.5
s37.833 12 58.5 12zM652 1517c23.333 0 42.332 7 56.999 21s22 30.333 22 49c0 20.667 -7.33301 37.5 -22 50.5s-33.667 19.5 -57 19.5c-19.333 0 -36.166 -6.5 -50.499 -19.5s-21.5 -29.833 -21.5 -50.5c0 -9.33301 2 -18.166 6 -26.499s9.16699 -15.833 15.5 -22.5
s13.833 -11.834 22.5 -15.501s18 -5.5 28 -5.5z" />
    <glyph glyph-name="AE" unicode="&#xc6;" horiz-adv-x="1847" 
d="M1746 1430v-343h-613l6 -471h359v-192h-350l4 -156l493 21l8 -273l-870 -18l-6 401h-277l-204 -403l-322 145l737 1291zM775 594l-4 371l-197 -371h201z" />
    <glyph glyph-name="Ccedilla" unicode="&#xc7;" horiz-adv-x="1351" 
d="M853 1059c-25.333 0 -55.3252 -3.33398 -89.9922 -10.001s-70 -17.5 -106 -32.5s-70.833 -34.333 -104.5 -58s-62.667 -52.667 -87 -87s-42 -74.166 -53 -119.499s-11.833 -96.666 -2.5 -153.999c9.33301 -48 30 -90.167 62 -126.5s70.667 -66.833 116 -91.5
s95 -43.334 149 -56.001s107.833 -19.5 161.5 -20.5s104.834 4 153.501 15s90.667 27.833 126 50.5v-289c-23.333 -19.333 -51.166 -35.333 -83.499 -48s-66.5 -22.5 -102.5 -29.5s-72.5 -11.833 -109.5 -14.5s-72.167 -4 -105.5 -4c-14.667 0 -29.334 0.333008 -44.001 1
s-29.334 1.66699 -44.001 3c-7.33301 -4 -13.666 -9.33301 -18.999 -16s-8 -13.667 -8 -21c0 -8 4.5 -13.833 13.5 -17.5s20.167 -7 33.5 -10l43 -9.5c15.333 -3.33301 29.833 -8.5 43.5 -15.5s25.167 -16.333 34.5 -28s14.333 -27.167 15 -46.5
c0.666992 -28 -6.33301 -53.833 -21 -77.5s-35.667 -43.667 -63 -60s-60.333 -28.666 -99 -36.999s-81 -10.833 -127 -7.5l-2 125c7.33301 -1.33301 20.166 -2.5 38.499 -3.5s37.166 -0.5 56.499 1.5s36.5 6.5 51.5 13.5s22.833 18.167 23.5 33.5
c0 10.667 -3.83301 19.5 -11.5 26.5s-17.334 12.833 -29.001 17.5s-24.334 9 -38.001 13s-26.334 8.83301 -38.001 14.5s-21.5 12.334 -29.5 20.001s-11.667 17.834 -11 30.501c-0.666992 10 0.666016 18.5 3.99902 25.5s7.66602 13.167 12.999 18.5s11.5 9.83301 18.5 13.5
s14.167 7.16699 21.5 10.5c-80 18 -156 46.833 -228 86.5s-135.333 88 -190 145s-98 121.167 -130 192.5s-48 147.666 -48 228.999c-4.66699 106 9.66602 206.667 42.999 302s84.166 179.166 152.499 251.499s153.833 129.666 256.5 171.999s221 63.5 355 63.5
c58 0 112.667 -4.16699 164 -12.5s96.833 -18 136.5 -29s72 -21.667 97 -32s39.833 -17.833 44.5 -22.5v-365c-14 9.33301 -34.833 19.5 -62.5 30.5s-59.5 20.667 -95.5 29s-75.167 14.333 -117.5 18s-84.833 3.16699 -127.5 -1.5z" />
    <glyph glyph-name="Egrave" unicode="&#xc8;" horiz-adv-x="1271" 
d="M369 1090l6 -472h438v-192h-430l4 -156l649 21l8 -273l-1026 -18l-18 1432h1161v-342h-792zM448 1616l94 131l246 -207l-66 -86z" />
    <glyph glyph-name="Eacute" unicode="&#xc9;" horiz-adv-x="1271" 
d="M369 1090l6 -472h438v-192h-430l4 -156l649 21l8 -273l-1026 -18l-18 1432h1161v-342h-792zM534 1457l-66 86l246 207l94 -131z" />
    <glyph glyph-name="Ecircumflex" unicode="&#xca;" horiz-adv-x="1271" 
d="M369 1090l6 -472h438v-192h-430l4 -156l649 21l8 -273l-1026 -18l-18 1432h1161v-342h-792zM477.266 1468.37l-67.6387 50.6143l231.396 209.403l213.597 -209.403l-83.0654 -52.5986l-141.211 137.947z" />
    <glyph glyph-name="Edieresis" unicode="&#xcb;" horiz-adv-x="1271" 
d="M369 1090l6 -472h438v-192h-430l4 -156l649 21l8 -273l-1026 -18l-18 1432h1161v-342h-792zM461 1461c-12 -0.666992 -23.998 1.00293 -35.998 5.00293s-22.667 10 -32 18s-17.333 18 -24 30s-10.667 25.667 -12 41c-1.33301 16.667 0.5 31.334 5.5 44.001
s12 23.5 21 32.5s19.167 15.833 30.5 20.5s23 7 35 7c13.333 0.666992 25.666 -1.5 36.999 -6.5s21.166 -11.833 29.499 -20.5s14.833 -18.834 19.5 -30.501s7.33398 -23.834 8.00098 -36.501c0.666992 -12 -0.833008 -24 -4.5 -36s-9 -22.833 -16 -32.5
s-15.833 -17.834 -26.5 -24.501s-22.334 -10.334 -35.001 -11.001zM746.002 1477c-24.667 -1.33301 -45.665 6.16895 -62.998 22.502s-27 36.166 -29 59.499c-0.666992 12.667 1 24.667 5 36s9.83301 21.166 17.5 29.499s16.5 15 26.5 20s21 7.83301 33 8.5
c25.333 0.666992 46.666 -7 63.999 -23s26.666 -37 27.999 -63c2 -24.667 -4.83301 -45.5 -20.5 -62.5s-36.167 -26.167 -61.5 -27.5z" />
    <glyph glyph-name="Igrave" unicode="&#xcc;" horiz-adv-x="585" 
d="M459 -8l-393 20l59 1434l393 -21zM151 1630l94 131l246 -207l-66 -86z" />
    <glyph glyph-name="Iacute" unicode="&#xcd;" horiz-adv-x="585" 
d="M459 -8l-393 20l59 1434l393 -21zM241 1478l-66 86l246 207l94 -131z" />
    <glyph glyph-name="Icircumflex" unicode="&#xce;" horiz-adv-x="585" 
d="M459 -8l-393 20l59 1434l393 -21zM200 1463l-57 51l195 211l180 -211l-70 -53l-119 139z" />
    <glyph glyph-name="Idieresis" unicode="&#xcf;" horiz-adv-x="585" 
d="M459 -8l-393 20l59 1434l393 -21zM177 1475c-12 -0.666992 -23.998 1.00293 -35.998 5.00293s-22.667 10 -32 18s-17.333 18 -24 30s-10.667 25.667 -12 41c-1.33301 16.667 0.5 31.334 5.5 44.001s12 23.5 21 32.5s19.167 15.833 30.5 20.5s23 7 35 7
c13.333 0.666992 25.666 -1.5 36.999 -6.5s21.166 -11.833 29.499 -20.5s14.833 -18.834 19.5 -30.501s7.33398 -23.834 8.00098 -36.501c0.666992 -12 -0.833008 -24 -4.5 -36s-9 -22.833 -16 -32.5s-15.833 -17.834 -26.5 -24.501s-22.334 -10.334 -35.001 -11.001z
M462.002 1491c-24.667 -1.33301 -45.665 6.16895 -62.998 22.502s-27 36.166 -29 59.499c-0.666992 12.667 1 24.667 5 36s9.83301 21.166 17.5 29.499s16.5 15 26.5 20s21 7.83301 33 8.5c25.333 0.666992 46.666 -7 63.999 -23s26.666 -37 27.999 -63
c2 -24.667 -4.83301 -45.5 -20.5 -62.5s-36.167 -26.167 -61.5 -27.5z" />
    <glyph glyph-name="Eth" unicode="&#xd0;" horiz-adv-x="1629" 
d="M1513 870c16.667 -88 19.167 -170.166 7.5 -246.499s-34.5 -145.833 -68.5 -208.5s-78 -118.5 -132 -167.5s-115 -90.667 -183 -125s-141.667 -61.166 -221 -80.499s-161.333 -30.666 -246 -33.999c-98.667 -5.33301 -180.334 -8.33301 -245.001 -9
s-116.667 -0.333984 -156 0.999023c-46 1.33301 -81.667 4 -107 8l-8 565h-156l2 220l150 -2l-9 618c40.667 4.66699 83.5 8.66699 128.5 12s88.833 6.33301 131.5 9s82.334 4.66699 119.001 6s67.334 2 92.001 2c42 0 91.333 -1.83301 148 -5.5
s115.667 -11.834 177 -24.501s122.666 -31.334 183.999 -56.001s118.333 -58 171 -100s98.5 -94.167 137.5 -156.5s66.833 -137.5 83.5 -225.5zM494 279.001c102 -6.66699 193.335 -2.83594 274.002 11.4971s148.667 38.833 204 73.5s96.666 79.167 123.999 133.5
s38.666 117.833 33.999 190.5c-2.66699 46.667 -12 87.667 -28 123s-36.5 65.833 -61.5 91.5s-53.667 46.834 -86 63.501s-66 29.834 -101 39.501s-70.833 16.5 -107.5 20.5s-71.667 5.83301 -105 5.5s-64.333 -2.16602 -93 -5.49902s-53 -7.33301 -73 -12l6 -232l166 -2
l-4 -207h-158z" />
    <glyph glyph-name="Ntilde" unicode="&#xd1;" horiz-adv-x="1345" 
d="M365 868l20 -868h-385v1434h291l639 -912l-43 897l330 13l22 -1393l-270 -21zM324 1529c4.66699 6.66699 12.833 16.8301 24.5 30.4971s25.5 27 41.5 40s33.667 24.5 53 34.5s39 15 59 15c26 0 45.833 -5.66699 59.5 -17s25.167 -23.666 34.5 -36.999l26 -37
c8 -11.333 19.333 -17 34 -17c10 0 19.833 3.33301 29.5 10s18.167 14.334 25.5 23.001c8.66699 10 17 21.333 25 34l84 -73c-6 -7.33301 -15 -17 -27 -29s-25.333 -23.667 -40 -35s-29.667 -21.166 -45 -29.499s-30 -12.166 -44 -11.499c-22.667 0 -40.667 4.5 -54 13.5
s-25 19 -35 30s-20 21.167 -30 30.5s-22.333 14 -37 14s-27.667 -4.33301 -39 -13s-21 -18.334 -29 -29.001c-9.33301 -12 -18 -26 -26 -42z" />
    <glyph glyph-name="Ograve" unicode="&#xd2;" horiz-adv-x="1596" 
d="M743 1460c72.667 0 142 -8.83398 208 -26.501s127.167 -42.5 183.5 -74.5s107.5 -70.667 153.5 -116s85.167 -95.333 117.5 -150s57.333 -113.667 75 -177s26.5 -129 26.5 -197c0 -67.333 -8.83301 -132.166 -26.5 -194.499s-42.667 -120.5 -75 -174.5
s-71.5 -103.167 -117.5 -147.5s-97.167 -82.166 -153.5 -113.499s-117.5 -55.666 -183.5 -72.999s-135.333 -26 -208 -26c-68.667 0 -134.834 8.66699 -198.501 26s-123 41.666 -178 72.999s-105 69.166 -150 113.499s-83.5 93.5 -115.5 147.5s-56.833 112 -74.5 174
s-26.5 127 -26.5 195s8.83301 133.667 26.5 197s42.5 122.333 74.5 177s70.5 104.667 115.5 150s95 84 150 116s114.333 56.833 178 74.5s129.834 26.5 198.501 26.5zM743 275.999c62 0 119.333 11 172 33s98.167 51.5 136.5 88.5s68.333 79.667 90 128
s32.5 99.166 32.5 152.499c0 58.667 -10.833 112.5 -32.5 161.5s-51.667 91 -90 126s-83.833 62.333 -136.5 82s-110 29.5 -172 29.5c-56.667 0 -109.834 -9.83301 -159.501 -29.5s-93 -47 -130 -82s-66.167 -77 -87.5 -126s-32 -102.833 -32 -161.5
c0 -53.333 10.667 -104.166 32 -152.499s50.5 -91 87.5 -128s80.333 -66.5 130 -88.5s102.834 -33 159.501 -33zM475 1640l94 131l246 -207l-66 -86z" />
    <glyph glyph-name="Oacute" unicode="&#xd3;" horiz-adv-x="1596" 
d="M743 1460c72.667 0 142 -8.83398 208 -26.501s127.167 -42.5 183.5 -74.5s107.5 -70.667 153.5 -116s85.167 -95.333 117.5 -150s57.333 -113.667 75 -177s26.5 -129 26.5 -197c0 -67.333 -8.83301 -132.166 -26.5 -194.499s-42.667 -120.5 -75 -174.5
s-71.5 -103.167 -117.5 -147.5s-97.167 -82.166 -153.5 -113.499s-117.5 -55.666 -183.5 -72.999s-135.333 -26 -208 -26c-68.667 0 -134.834 8.66699 -198.501 26s-123 41.666 -178 72.999s-105 69.166 -150 113.499s-83.5 93.5 -115.5 147.5s-56.833 112 -74.5 174
s-26.5 127 -26.5 195s8.83301 133.667 26.5 197s42.5 122.333 74.5 177s70.5 104.667 115.5 150s95 84 150 116s114.333 56.833 178 74.5s129.834 26.5 198.501 26.5zM743 275.999c62 0 119.333 11 172 33s98.167 51.5 136.5 88.5s68.333 79.667 90 128
s32.5 99.166 32.5 152.499c0 58.667 -10.833 112.5 -32.5 161.5s-51.667 91 -90 126s-83.833 62.333 -136.5 82s-110 29.5 -172 29.5c-56.667 0 -109.834 -9.83301 -159.501 -29.5s-93 -47 -130 -82s-66.167 -77 -87.5 -126s-32 -102.833 -32 -161.5
c0 -53.333 10.667 -104.166 32 -152.499s50.5 -91 87.5 -128s80.333 -66.5 130 -88.5s102.834 -33 159.501 -33zM694 1492l-66 86l246 207l94 -131z" />
    <glyph glyph-name="Ocircumflex" unicode="&#xd4;" horiz-adv-x="1596" 
d="M743 1460c72.667 0 142 -8.83398 208 -26.501s127.167 -42.5 183.5 -74.5s107.5 -70.667 153.5 -116s85.167 -95.333 117.5 -150s57.333 -113.667 75 -177s26.5 -129 26.5 -197c0 -67.333 -8.83301 -132.166 -26.5 -194.499s-42.667 -120.5 -75 -174.5
s-71.5 -103.167 -117.5 -147.5s-97.167 -82.166 -153.5 -113.499s-117.5 -55.666 -183.5 -72.999s-135.333 -26 -208 -26c-68.667 0 -134.834 8.66699 -198.501 26s-123 41.666 -178 72.999s-105 69.166 -150 113.499s-83.5 93.5 -115.5 147.5s-56.833 112 -74.5 174
s-26.5 127 -26.5 195s8.83301 133.667 26.5 197s42.5 122.333 74.5 177s70.5 104.667 115.5 150s95 84 150 116s114.333 56.833 178 74.5s129.834 26.5 198.501 26.5zM743 275.999c62 0 119.333 11 172 33s98.167 51.5 136.5 88.5s68.333 79.667 90 128
s32.5 99.166 32.5 152.499c0 58.667 -10.833 112.5 -32.5 161.5s-51.667 91 -90 126s-83.833 62.333 -136.5 82s-110 29.5 -172 29.5c-56.667 0 -109.834 -9.83301 -159.501 -29.5s-93 -47 -130 -82s-66.167 -77 -87.5 -126s-32 -102.833 -32 -161.5
c0 -53.333 10.667 -104.166 32 -152.499s50.5 -91 87.5 -128s80.333 -66.5 130 -88.5s102.834 -33 159.501 -33zM576.853 1477.37l-68.2471 50.6143l233.479 209.403l215.519 -209.403l-83.8125 -52.5986l-142.481 137.947z" />
    <glyph glyph-name="Otilde" unicode="&#xd5;" horiz-adv-x="1596" 
d="M743 1460c72.667 0 142 -8.83398 208 -26.501s127.167 -42.5 183.5 -74.5s107.5 -70.667 153.5 -116s85.167 -95.333 117.5 -150s57.333 -113.667 75 -177s26.5 -129 26.5 -197c0 -67.333 -8.83301 -132.166 -26.5 -194.499s-42.667 -120.5 -75 -174.5
s-71.5 -103.167 -117.5 -147.5s-97.167 -82.166 -153.5 -113.499s-117.5 -55.666 -183.5 -72.999s-135.333 -26 -208 -26c-68.667 0 -134.834 8.66699 -198.501 26s-123 41.666 -178 72.999s-105 69.166 -150 113.499s-83.5 93.5 -115.5 147.5s-56.833 112 -74.5 174
s-26.5 127 -26.5 195s8.83301 133.667 26.5 197s42.5 122.333 74.5 177s70.5 104.667 115.5 150s95 84 150 116s114.333 56.833 178 74.5s129.834 26.5 198.501 26.5zM743 275.999c62 0 119.333 11 172 33s98.167 51.5 136.5 88.5s68.333 79.667 90 128
s32.5 99.166 32.5 152.499c0 58.667 -10.833 112.5 -32.5 161.5s-51.667 91 -90 126s-83.833 62.333 -136.5 82s-110 29.5 -172 29.5c-56.667 0 -109.834 -9.83301 -159.501 -29.5s-93 -47 -130 -82s-66.167 -77 -87.5 -126s-32 -102.833 -32 -161.5
c0 -53.333 10.667 -104.166 32 -152.499s50.5 -91 87.5 -128s80.333 -66.5 130 -88.5s102.834 -33 159.501 -33zM523 1587c4.66699 6.66699 12.833 16.8301 24.5 30.4971s25.5 27 41.5 40s33.667 24.5 53 34.5s39 15 59 15c26 0 45.833 -5.66699 59.5 -17
s25.167 -23.666 34.5 -36.999l26 -37c8 -11.333 19.333 -17 34 -17c10 0 19.833 3.33301 29.5 10s18.167 14.334 25.5 23.001c8.66699 10 17 21.333 25 34l84 -73c-6 -7.33301 -15 -17 -27 -29s-25.333 -23.667 -40 -35s-29.667 -21.166 -45 -29.499
s-30 -12.166 -44 -11.499c-22.667 0 -40.667 4.5 -54 13.5s-25 19 -35 30s-20 21.167 -30 30.5s-22.333 14 -37 14s-27.667 -4.33301 -39 -13s-21 -18.334 -29 -29.001c-9.33301 -12 -18 -26 -26 -42z" />
    <glyph glyph-name="Odieresis" unicode="&#xd6;" horiz-adv-x="1596" 
d="M743 1460c72.667 0 142 -8.83398 208 -26.501s127.167 -42.5 183.5 -74.5s107.5 -70.667 153.5 -116s85.167 -95.333 117.5 -150s57.333 -113.667 75 -177s26.5 -129 26.5 -197c0 -67.333 -8.83301 -132.166 -26.5 -194.499s-42.667 -120.5 -75 -174.5
s-71.5 -103.167 -117.5 -147.5s-97.167 -82.166 -153.5 -113.499s-117.5 -55.666 -183.5 -72.999s-135.333 -26 -208 -26c-68.667 0 -134.834 8.66699 -198.501 26s-123 41.666 -178 72.999s-105 69.166 -150 113.499s-83.5 93.5 -115.5 147.5s-56.833 112 -74.5 174
s-26.5 127 -26.5 195s8.83301 133.667 26.5 197s42.5 122.333 74.5 177s70.5 104.667 115.5 150s95 84 150 116s114.333 56.833 178 74.5s129.834 26.5 198.501 26.5zM743 275.999c62 0 119.333 11 172 33s98.167 51.5 136.5 88.5s68.333 79.667 90 128
s32.5 99.166 32.5 152.499c0 58.667 -10.833 112.5 -32.5 161.5s-51.667 91 -90 126s-83.833 62.333 -136.5 82s-110 29.5 -172 29.5c-56.667 0 -109.834 -9.83301 -159.501 -29.5s-93 -47 -130 -82s-66.167 -77 -87.5 -126s-32 -102.833 -32 -161.5
c0 -53.333 10.667 -104.166 32 -152.499s50.5 -91 87.5 -128s80.333 -66.5 130 -88.5s102.834 -33 159.501 -33zM591 1467c-12 -0.666992 -23.998 1.00293 -35.998 5.00293s-22.667 10 -32 18s-17.333 18 -24 30s-10.667 25.667 -12 41
c-1.33301 16.667 0.5 31.334 5.5 44.001s12 23.5 21 32.5s19.167 15.833 30.5 20.5s23 7 35 7c13.333 0.666992 25.666 -1.5 36.999 -6.5s21.166 -11.833 29.499 -20.5s14.833 -18.834 19.5 -30.501s7.33398 -23.834 8.00098 -36.501c0.666992 -12 -0.833008 -24 -4.5 -36
s-9 -22.833 -16 -32.5s-15.833 -17.834 -26.5 -24.501s-22.334 -10.334 -35.001 -11.001zM876.002 1483c-24.667 -1.33301 -45.665 6.16895 -62.998 22.502s-27 36.166 -29 59.499c-0.666992 12.667 1 24.667 5 36s9.83301 21.166 17.5 29.499s16.5 15 26.5 20
s21 7.83301 33 8.5c25.333 0.666992 46.666 -7 63.999 -23s26.666 -37 27.999 -63c2 -24.667 -4.83301 -45.5 -20.5 -62.5s-36.167 -26.167 -61.5 -27.5z" />
    <glyph glyph-name="multiply" unicode="&#xd7;" horiz-adv-x="971" 
d="M720 223l-274 317l-280 -308l-165 168l300 316l-288 319l192 172l267 -313l242 278l135 -126l-261 -296l329 -365z" />
    <glyph glyph-name="Oslash" unicode="&#xd8;" horiz-adv-x="1596" 
d="M1360 1176c47.333 -62 84 -130.836 110 -206.503s39 -155.167 39 -238.5c0 -67.333 -8.83301 -132.166 -26.5 -194.499s-42.667 -120.5 -75 -174.5s-71.5 -103.167 -117.5 -147.5s-97.167 -82.166 -153.5 -113.499s-117.5 -55.666 -183.5 -72.999s-135.333 -26 -208 -26
c-68 0 -133.167 8.33301 -195.5 25s-120.5 40.334 -174.5 71.001l-70 -75l-219 184l70 76c-48.667 62.667 -86.5 131.667 -113.5 207s-40.5 155.666 -40.5 240.999c0 68 8.83301 133.667 26.5 197s42.5 122.5 74.5 177.5s70.5 105 115.5 150s95 83.667 150 116
s114.333 57.333 178 75s129.834 26.5 198.501 26.5c77.333 0 150.666 -9.83301 219.999 -29.5s133.333 -48.167 192 -85.5l72 78l190 -197zM336 689.997c0 -30 3.50098 -59.5 10.501 -88.5s17.167 -56.167 30.5 -81.5l512 549c-45.333 14 -93.333 21 -144 21
c-56.667 0 -109.834 -9.83301 -159.501 -29.5s-93 -47 -130 -82s-66.167 -77.167 -87.5 -126.5s-32 -103.333 -32 -162zM745.001 288.997c62 0 119.333 10.835 172 32.502s98.167 51 136.5 88s68.333 79.667 90 128s32.5 99.166 32.5 152.499
c0 41.333 -5.5 80.166 -16.5 116.499s-26.167 69.833 -45.5 100.5l-534 -583c52 -23.333 107 -35 165 -35z" />
    <glyph glyph-name="Ugrave" unicode="&#xd9;" horiz-adv-x="1528" 
d="M0 1434l442.003 -0.00585938c0 -151.333 -0.833008 -286.333 -2.5 -405s-0.833984 -223.167 2.49902 -313.5s10.666 -166.833 21.999 -229.5s29.833 -113.5 55.5 -152.5s60 -66.667 103 -83s98.167 -22.833 165.5 -19.5s122 18.333 164 45s74.5 63.834 97.5 111.501
s38.5 105.334 46.5 173.001s12.333 144.167 13 229.5s-0.666016 178.833 -3.99902 280.5s-5 210.5 -5 326.5h24.5c16.333 0 36.5 -0.166992 60.5 -0.5s50 -0.5 78 -0.5h78c24 0 44 0.166992 60 0.5l24 0.5c0 -106 -0.166992 -199.167 -0.5 -279.5s-1 -150.833 -2 -211.5
s-2.16699 -113.5 -3.5 -158.5s-3.33301 -85.667 -6 -122s-6 -69.666 -10 -99.999s-8.66699 -61.5 -14 -93.5c-10.667 -62 -33.5 -119.833 -68.5 -173.5s-79.667 -100.5 -134 -140.5s-116.833 -71.333 -187.5 -94s-147 -34 -229 -34c-80 0 -151.833 6.5 -215.5 19.5
s-120.334 30.167 -170.001 51.5s-92.834 46 -129.501 74s-68 56.833 -94 86.5s-47.5 59.334 -64.5 89.001s-30.167 57.167 -39.5 82.5c-6.66699 19.333 -12.667 41.5 -18 66.5s-10 55.667 -14 92s-7.66699 79.833 -11 130.5s-6 111.334 -8 182.001
s-3.5 152.834 -4.5 246.501s-1.5 201.5 -1.5 323.5zM420.003 1592.99l94 131l246 -207l-66 -86z" />
    <glyph glyph-name="Uacute" unicode="&#xda;" horiz-adv-x="1528" 
d="M0 1434l442.003 -0.00585938c0 -151.333 -0.833008 -286.333 -2.5 -405s-0.833984 -223.167 2.49902 -313.5s10.666 -166.833 21.999 -229.5s29.833 -113.5 55.5 -152.5s60 -66.667 103 -83s98.167 -22.833 165.5 -19.5s122 18.333 164 45s74.5 63.834 97.5 111.501
s38.5 105.334 46.5 173.001s12.333 144.167 13 229.5s-0.666016 178.833 -3.99902 280.5s-5 210.5 -5 326.5h24.5c16.333 0 36.5 -0.166992 60.5 -0.5s50 -0.5 78 -0.5h78c24 0 44 0.166992 60 0.5l24 0.5c0 -106 -0.166992 -199.167 -0.5 -279.5s-1 -150.833 -2 -211.5
s-2.16699 -113.5 -3.5 -158.5s-3.33301 -85.667 -6 -122s-6 -69.666 -10 -99.999s-8.66699 -61.5 -14 -93.5c-10.667 -62 -33.5 -119.833 -68.5 -173.5s-79.667 -100.5 -134 -140.5s-116.833 -71.333 -187.5 -94s-147 -34 -229 -34c-80 0 -151.833 6.5 -215.5 19.5
s-120.334 30.167 -170.001 51.5s-92.834 46 -129.501 74s-68 56.833 -94 86.5s-47.5 59.334 -64.5 89.001s-30.167 57.167 -39.5 82.5c-6.66699 19.333 -12.667 41.5 -18 66.5s-10 55.667 -14 92s-7.66699 79.833 -11 130.5s-6 111.334 -8 182.001
s-3.5 152.834 -4.5 246.501s-1.5 201.5 -1.5 323.5zM798.003 1433.99l-66 86l246 207l94 -131z" />
    <glyph glyph-name="Ucircumflex" unicode="&#xdb;" horiz-adv-x="1528" 
d="M0 1434l442.003 -0.00585938c0 -151.333 -0.833008 -286.333 -2.5 -405s-0.833984 -223.167 2.49902 -313.5s10.666 -166.833 21.999 -229.5s29.833 -113.5 55.5 -152.5s60 -66.667 103 -83s98.167 -22.833 165.5 -19.5s122 18.333 164 45s74.5 63.834 97.5 111.501
s38.5 105.334 46.5 173.001s12.333 144.167 13 229.5s-0.666016 178.833 -3.99902 280.5s-5 210.5 -5 326.5h24.5c16.333 0 36.5 -0.166992 60.5 -0.5s50 -0.5 78 -0.5h78c24 0 44 0.166992 60 0.5l24 0.5c0 -106 -0.166992 -199.167 -0.5 -279.5s-1 -150.833 -2 -211.5
s-2.16699 -113.5 -3.5 -158.5s-3.33301 -85.667 -6 -122s-6 -69.666 -10 -99.999s-8.66699 -61.5 -14 -93.5c-10.667 -62 -33.5 -119.833 -68.5 -173.5s-79.667 -100.5 -134 -140.5s-116.833 -71.333 -187.5 -94s-147 -34 -229 -34c-80 0 -151.833 6.5 -215.5 19.5
s-120.334 30.167 -170.001 51.5s-92.834 46 -129.501 74s-68 56.833 -94 86.5s-47.5 59.334 -64.5 89.001s-30.167 57.167 -39.5 82.5c-6.66699 19.333 -12.667 41.5 -18 66.5s-10 55.667 -14 92s-7.66699 79.833 -11 130.5s-6 111.334 -8 182.001
s-3.5 152.834 -4.5 246.501s-1.5 201.5 -1.5 323.5zM663.75 1440.06l-63.9922 51.9648l218.923 214.992l202.082 -214.992l-78.5879 -54.0029l-133.599 141.63z" />
    <glyph glyph-name="Udieresis" unicode="&#xdc;" horiz-adv-x="1528" 
d="M0 1434l442.003 -0.00585938c0 -151.333 -0.833008 -286.333 -2.5 -405s-0.833984 -223.167 2.49902 -313.5s10.666 -166.833 21.999 -229.5s29.833 -113.5 55.5 -152.5s60 -66.667 103 -83s98.167 -22.833 165.5 -19.5s122 18.333 164 45s74.5 63.834 97.5 111.501
s38.5 105.334 46.5 173.001s12.333 144.167 13 229.5s-0.666016 178.833 -3.99902 280.5s-5 210.5 -5 326.5h24.5c16.333 0 36.5 -0.166992 60.5 -0.5s50 -0.5 78 -0.5h78c24 0 44 0.166992 60 0.5l24 0.5c0 -106 -0.166992 -199.167 -0.5 -279.5s-1 -150.833 -2 -211.5
s-2.16699 -113.5 -3.5 -158.5s-3.33301 -85.667 -6 -122s-6 -69.666 -10 -99.999s-8.66699 -61.5 -14 -93.5c-10.667 -62 -33.5 -119.833 -68.5 -173.5s-79.667 -100.5 -134 -140.5s-116.833 -71.333 -187.5 -94s-147 -34 -229 -34c-80 0 -151.833 6.5 -215.5 19.5
s-120.334 30.167 -170.001 51.5s-92.834 46 -129.501 74s-68 56.833 -94 86.5s-47.5 59.334 -64.5 89.001s-30.167 57.167 -39.5 82.5c-6.66699 19.333 -12.667 41.5 -18 66.5s-10 55.667 -14 92s-7.66699 79.833 -11 130.5s-6 111.334 -8 182.001
s-3.5 152.834 -4.5 246.501s-1.5 201.5 -1.5 323.5zM648.003 1436.99c-12 -0.666992 -23.998 1.00293 -35.998 5.00293s-22.667 10 -32 18s-17.333 18 -24 30s-10.667 25.667 -12 41c-1.33301 16.667 0.5 31.334 5.5 44.001s12 23.5 21 32.5s19.167 15.833 30.5 20.5
s23 7 35 7c13.333 0.666992 25.666 -1.5 36.999 -6.5s21.166 -11.833 29.499 -20.5s14.833 -18.834 19.5 -30.501s7.33398 -23.834 8.00098 -36.501c0.666992 -12 -0.833008 -24 -4.5 -36s-9 -22.833 -16 -32.5s-15.833 -17.834 -26.5 -24.501
s-22.334 -10.334 -35.001 -11.001zM933.005 1453c-24.667 -1.33301 -45.665 6.16895 -62.998 22.502s-27 36.166 -29 59.499c-0.666992 12.667 1 24.667 5 36s9.83301 21.166 17.5 29.499s16.5 15 26.5 20s21 7.83301 33 8.5c25.333 0.666992 46.666 -7 63.999 -23
s26.666 -37 27.999 -63c2 -24.667 -4.83301 -45.5 -20.5 -62.5s-36.167 -26.167 -61.5 -27.5z" />
    <glyph glyph-name="Yacute" unicode="&#xdd;" horiz-adv-x="1510" 
d="M932 700l39 -692l-357 -20l-41 674l-573 573l258 219l514 -555l416 535l219 -160zM761 1434l-66 86l246 207l94 -131z" />
    <glyph glyph-name="Thorn" unicode="&#xde;" horiz-adv-x="1139" 
d="M1040 764c2.66699 -22.667 1.99805 -50.666 -2.00195 -83.999s-13.667 -68.333 -29 -105s-37.833 -73 -67.5 -109s-68.834 -68 -117.501 -96s-108.167 -50.333 -178.5 -67s-153.833 -24 -250.5 -22l11 -292l-367 -14l-39 1478l326 11l10 -300
c22.667 3.33301 50.334 6.16602 83.001 8.49902s67.334 3 104.001 2s73.834 -4.16699 111.501 -9.5s73.167 -14 106.5 -26c40 -14 77.333 -34 112 -60s65.167 -55.667 91.5 -89s47.833 -69.333 64.5 -108s27 -78 31 -118zM377.998 506.001
c7.33301 0 20.8311 -0.334961 40.498 -1.00195s41.834 -0.166992 66.501 1.5s50.167 5.66699 76.5 12s50 16.5 71 30.5s37.333 32.833 49 56.5s15.5 53.834 11.5 90.501c-7.33301 65.333 -39.666 108.333 -96.999 129s-136.333 24.334 -237 11.001z" />
    <glyph glyph-name="germandbls" unicode="&#xdf;" horiz-adv-x="1270" 
d="M585 1491c80 0 148.829 -10.835 206.496 -32.502s105.5 -49.5 143.5 -83.5s67 -71.5 87 -112.5s33 -80.833 39 -119.5c2.66699 -16 3.16699 -38.167 1.5 -66.5s-10 -58.833 -25 -91.5s-38.833 -65.667 -71.5 -99s-79 -63 -139 -89c3.33301 0 14.666 -0.666992 33.999 -2
s42.5 -5.66602 69.5 -12.999s56.167 -18.666 87.5 -33.999s60.833 -37.333 88.5 -66s51.667 -65 72 -109s33.166 -98 38.499 -162c2 -26.667 0.5 -56.667 -4.5 -90s-13.5 -66.833 -25.5 -100.5s-27.667 -65.667 -47 -96s-42.333 -55.5 -69 -75.5
c-22 -16 -44.667 -29.333 -68 -40s-49.166 -19.5 -77.499 -26.5s-59.666 -12 -93.999 -15s-73.166 -4.5 -116.499 -4.5h-130v259h67c22 0 46.667 1.5 74 4.5s53.166 10.333 77.499 22s45 28.667 62 51s26.167 53.166 27.5 92.499c0 40.667 -5.83301 75.667 -17.5 105
s-27.334 53.833 -47.001 73.5s-43 35.334 -70 47.001s-55.833 20.667 -86.5 27s-62.5 10.333 -95.5 12s-65.5 2.5 -97.5 2.5v201h43c22 0 48.333 2.66699 79 8s60 17.166 88 35.499s51.167 45 69.5 80s26.166 81.833 23.499 140.5c-4 32 -13.167 59.667 -27.5 83
s-31.666 42 -51.999 56s-42.5 23.833 -66.5 29.5s-47.667 7.16699 -71 4.5c-17.333 -2 -36.666 -6.66699 -57.999 -14s-41.166 -19.5 -59.499 -36.5s-33.666 -40.167 -45.999 -69.5s-18.5 -67.333 -18.5 -114v-1059h-379v1059c0 24 2.83301 51.167 8.5 81.5
s16.334 61.333 32.001 93s37.167 62.667 64.5 93s62.5 57.333 105.5 81s94.833 42.834 155.5 57.501s132.334 22 215.001 22z" />
    <glyph glyph-name="agrave" unicode="&#xe0;" 
d="M930 408h-445l-137 -408l-348 96l524 1338l289 -19l543 -1298l-271 -99zM852 582l-174 407l-135 -407h309zM422 1640l94 131l246 -207l-66 -86z" />
    <glyph glyph-name="aacute" unicode="&#xe1;" 
d="M930 408h-445l-137 -408l-348 96l524 1338l289 -19l543 -1298l-271 -99zM852 582l-174 407l-135 -407h309zM623 1458l-66 86l246 207l94 -131z" />
    <glyph glyph-name="acircumflex" unicode="&#xe2;" 
d="M930 408h-445l-137 -408l-348 96l524 1338l289 -19l543 -1298l-271 -99zM852 582l-174 407l-135 -407h309zM551 1450l-57 51l195 211l180 -211l-70 -53l-119 139z" />
    <glyph glyph-name="atilde" unicode="&#xe3;" 
d="M930 408h-445l-137 -408l-348 96l524 1338l289 -19l543 -1298l-271 -99zM852 582l-174 407l-135 -407h309zM438 1551c4.66699 6.66699 12.833 16.8301 24.5 30.4971s25.5 27 41.5 40s33.667 24.5 53 34.5s39 15 59 15c26 0 45.833 -5.66699 59.5 -17
s25.167 -23.666 34.5 -36.999l26 -37c8 -11.333 19.333 -17 34 -17c10 0 19.833 3.33301 29.5 10s18.167 14.334 25.5 23.001c8.66699 10 17 21.333 25 34l84 -73c-6 -7.33301 -15 -17 -27 -29s-25.333 -23.667 -40 -35s-29.667 -21.166 -45 -29.499
s-30 -12.166 -44 -11.499c-22.667 0 -40.667 4.5 -54 13.5s-25 19 -35 30s-20 21.167 -30 30.5s-22.333 14 -37 14s-27.667 -4.33301 -39 -13s-21 -18.334 -29 -29.001c-9.33301 -12 -18 -26 -26 -42z" />
    <glyph glyph-name="adieresis" unicode="&#xe4;" 
d="M930 408h-445l-137 -408l-348 96l524 1338l289 -19l543 -1298l-271 -99zM852 582l-174 407l-135 -407h309zM524 1456c-12 -0.666992 -23.998 1.00293 -35.998 5.00293s-22.667 10 -32 18s-17.333 18 -24 30s-10.667 25.667 -12 41c-1.33301 16.667 0.5 31.334 5.5 44.001
s12 23.5 21 32.5s19.167 15.833 30.5 20.5s23 7 35 7c13.333 0.666992 25.666 -1.5 36.999 -6.5s21.166 -11.833 29.499 -20.5s14.833 -18.834 19.5 -30.501s7.33398 -23.834 8.00098 -36.501c0.666992 -12 -0.833008 -24 -4.5 -36s-9 -22.833 -16 -32.5
s-15.833 -17.834 -26.5 -24.501s-22.334 -10.334 -35.001 -11.001zM809.002 1472c-24.667 -1.33301 -45.665 6.16895 -62.998 22.502s-27 36.166 -29 59.499c-0.666992 12.667 1 24.667 5 36s9.83301 21.166 17.5 29.499s16.5 15 26.5 20s21 7.83301 33 8.5
c25.333 0.666992 46.666 -7 63.999 -23s26.666 -37 27.999 -63c2 -24.667 -4.83301 -45.5 -20.5 -62.5s-36.167 -26.167 -61.5 -27.5z" />
    <glyph glyph-name="aring" unicode="&#xe5;" 
d="M930 408h-445l-137 -408l-348 96l524 1338l289 -19l543 -1298l-271 -99zM852 582l-174 407l-135 -407h309zM662 1731c22.667 0 43.667 -4 63 -12s36.166 -18.833 50.499 -32.5s25.5 -29.834 33.5 -48.501s12 -38.334 12 -59.001s-4 -39.834 -12 -57.501
s-19.167 -33.167 -33.5 -46.5s-31.166 -23.833 -50.499 -31.5s-40.333 -11.5 -63 -11.5c-20.667 0 -40.167 3.83301 -58.5 11.5s-34.5 18.167 -48.5 31.5s-25 28.833 -33 46.5s-12 36.834 -12 57.501s4 40.334 12 59.001s19 34.834 33 48.501s30.167 24.5 48.5 32.5
s37.833 12 58.5 12zM662 1501c23.333 0 42.332 7 56.999 21s22 30.333 22 49c0 20.667 -7.33301 37.5 -22 50.5s-33.667 19.5 -57 19.5c-19.333 0 -36.166 -6.5 -50.499 -19.5s-21.5 -29.833 -21.5 -50.5c0 -9.33301 2 -18.166 6 -26.499s9.16699 -15.833 15.5 -22.5
s13.833 -11.834 22.5 -15.501s18 -5.5 28 -5.5z" />
    <glyph glyph-name="ae" unicode="&#xe6;" horiz-adv-x="1848" 
d="M1746 1430v-343h-613l6 -471h359v-192h-350l4 -156l493 21l8 -273l-870 -18l-6 401h-277l-204 -403l-322 145l737 1291zM574 594h201l-4 371z" />
    <glyph glyph-name="ccedilla" unicode="&#xe7;" horiz-adv-x="1354" 
d="M670 -28c-5.33301 -6.66699 -7.99316 -11.668 -7.99316 -15.001v-12c0 -4 4.66699 -7.66699 14 -11c8.66699 -4 19.667 -7.33301 33 -10c13.333 -3.33301 27.666 -6.66602 42.999 -9.99902s30 -8.33301 44 -15c13.333 -7.33301 24.666 -16.666 33.999 -27.999
c9.33301 -12 14.333 -22.667 15 -32v-15l1 -21c0 -14 -7.33301 -32.667 -22 -56c-14.667 -24 -35.667 -44 -63 -60c-27.333 -16.667 -60.333 -29 -99 -37c-38.667 -8.66699 -69.334 -12 -92.001 -10l-35 2l-2 125c7.33301 -1.33301 20.166 -2.5 38.499 -3.5
s37.166 -0.5 56.499 1.5s36.666 6.66699 51.999 14c14.667 6.66699 22.334 14 23.001 22v19c0 5.33301 -3.66699 11.666 -11 18.999c-8 6.66699 -17.667 12.334 -29 17.001c-12 4.66699 -24.667 9 -38 13c-14 4 -26.667 9 -38 15c-12 5.33301 -22 12 -30 20
c-8 7.33301 -11.667 17.333 -11 30c-0.666992 10 0.666016 18.5 3.99902 25.5s7.66602 13.167 12.999 18.5s11.666 10 18.999 14c4.66699 2 9.33398 4.33301 14.001 7l86 -16c-4.66699 -2.66699 -8.66699 -6.33398 -12 -11.001zM600.007 0.999023
c1.33301 0 2.33203 0.334961 2.99902 1.00195c-80 18 -156 46.833 -228 86.5s-135.333 88 -190 145s-98 121.167 -130 192.5s-48 147.666 -48 228.999c-4.66699 106 9.66602 206.667 42.999 302s84.166 179.166 152.499 251.499s153.833 129.666 256.5 171.999
s221 63.5 355 63.5c58 0 112.667 -4.16699 164 -12.5s96.833 -18 136.5 -29s72 -21.667 97 -32s39.833 -17.833 44.5 -22.5v-365c-14 9.33301 -34.833 19.5 -62.5 30.5s-59.5 20.667 -95.5 29s-75.167 14.333 -117.5 18s-84.833 3.16699 -127.5 -1.5
c-25.333 0 -55.333 -3.33301 -90 -10s-70 -17.5 -106 -32.5s-70.833 -34.333 -104.5 -58s-62.667 -52.667 -87 -87s-42 -74.166 -53 -119.499s-11.833 -96.666 -2.5 -153.999c9.33301 -48 30 -90.167 62 -126.5s70.667 -66.833 116 -91.5s95 -43.334 149 -56.001
s107.833 -19.5 161.5 -20.5s104.834 4 153.501 15s90.667 27.833 126 50.5v-289c-23.333 -19.333 -51.166 -35.333 -83.499 -48s-66.5 -22.5 -102.5 -29.5s-72.5 -11.833 -109.5 -14.5s-63.833 -4 -80.5 -4h-36c-7.33301 0 -14.666 0.333008 -21.999 1h-13l-10 1
c-7.33301 0 -18 0.666992 -32 2c-2.66699 -1.33301 -5 -3 -7 -5l-86 16z" />
    <glyph glyph-name="egrave" unicode="&#xe8;" horiz-adv-x="1270" 
d="M1161 1090h-792l6 -472h438v-192h-430l4 -156l649 21l8 -273l-1026 -18l-18 1432h1161v-342v0zM371 1614l94 131l246 -207l-66 -86z" />
    <glyph glyph-name="eacute" unicode="&#xe9;" horiz-adv-x="1270" 
d="M1161 1090h-792l6 -472h438v-192h-430l4 -156l649 21l8 -273l-1026 -18l-18 1432h1161v-342v0zM592 1448l-66 86l246 207l94 -131z" />
    <glyph glyph-name="ecircumflex" unicode="&#xea;" horiz-adv-x="1270" 
d="M1161 1090h-792l6 -472h438v-192h-430l4 -156l649 21l8 -273l-1026 -18l-18 1432h1161v-342v0zM379.916 1466.18l-67.2764 49.4434l230.158 204.561l212.453 -204.561l-82.6211 -51.3828l-140.455 134.759z" />
    <glyph glyph-name="edieresis" unicode="&#xeb;" horiz-adv-x="1270" 
d="M1161 1090h-792l6 -472h438v-192h-430l4 -156l649 21l8 -273l-1026 -18l-18 1432h1161v-342v0zM479 1456c-12 -0.666992 -23.998 1.00293 -35.998 5.00293s-22.667 10 -32 18s-17.333 18 -24 30s-10.667 25.667 -12 41c-1.33301 16.667 0.5 31.334 5.5 44.001
s12 23.5 21 32.5s19.167 15.833 30.5 20.5s23 7 35 7c13.333 0.666992 25.666 -1.5 36.999 -6.5s21.166 -11.833 29.499 -20.5s14.833 -18.834 19.5 -30.501s7.33398 -23.834 8.00098 -36.501c0.666992 -12 -0.833008 -24 -4.5 -36s-9 -22.833 -16 -32.5
s-15.833 -17.834 -26.5 -24.501s-22.334 -10.334 -35.001 -11.001zM764.002 1472c-24.667 -1.33301 -45.665 6.16895 -62.998 22.502s-27 36.166 -29 59.499c-0.666992 12.667 1 24.667 5 36s9.83301 21.166 17.5 29.499s16.5 15 26.5 20s21 7.83301 33 8.5
c25.333 0.666992 46.666 -7 63.999 -23s26.666 -37 27.999 -63c2 -24.667 -4.83301 -45.5 -20.5 -62.5s-36.167 -26.167 -61.5 -27.5z" />
    <glyph glyph-name="igrave" unicode="&#xec;" horiz-adv-x="676" 
d="M459 -8l-393 20l59 1434l393 -21l-59 -1433v0zM68 1624l94 131l246 -207l-66 -86z" />
    <glyph glyph-name="iacute" unicode="&#xed;" horiz-adv-x="676" 
d="M459 -8l-393 20l59 1434l393 -21l-59 -1433v0zM328 1476l-66 86l246 207l94 -131z" />
    <glyph glyph-name="icircumflex" unicode="&#xee;" horiz-adv-x="676" 
d="M459 -8l-393 20l59 1434l393 -21l-59 -1433v0zM182 1489l-57 51l195 211l180 -211l-70 -53l-119 139z" />
    <glyph glyph-name="idieresis" unicode="&#xef;" horiz-adv-x="676" 
d="M459 -8l-393 20l59 1434l393 -21l-59 -1433v0zM188 1464c-12 -0.666992 -23.998 1.00293 -35.998 5.00293s-22.667 10 -32 18s-17.333 18 -24 30s-10.667 25.667 -12 41c-1.33301 16.667 0.5 31.334 5.5 44.001s12 23.5 21 32.5s19.167 15.833 30.5 20.5s23 7 35 7
c13.333 0.666992 25.666 -1.5 36.999 -6.5s21.166 -11.833 29.499 -20.5s14.833 -18.834 19.5 -30.501s7.33398 -23.834 8.00098 -36.501c0.666992 -12 -0.833008 -24 -4.5 -36s-9 -22.833 -16 -32.5s-15.833 -17.834 -26.5 -24.501s-22.334 -10.334 -35.001 -11.001z
M473.002 1480c-24.667 -1.33301 -45.665 6.16895 -62.998 22.502s-27 36.166 -29 59.499c-0.666992 12.667 1 24.667 5 36s9.83301 21.166 17.5 29.499s16.5 15 26.5 20s21 7.83301 33 8.5c25.333 0.666992 46.666 -7 63.999 -23s26.666 -37 27.999 -63
c2 -24.667 -4.83301 -45.5 -20.5 -62.5s-36.167 -26.167 -61.5 -27.5z" />
    <glyph glyph-name="eth" unicode="&#xf0;" horiz-adv-x="1630" 
d="M1513 870c16.667 -88 19.167 -170.166 7.5 -246.499s-34.5 -145.833 -68.5 -208.5s-78 -118.5 -132 -167.5s-115 -90.667 -183 -125s-141.667 -61.166 -221 -80.499s-161.333 -30.666 -246 -33.999c-98.667 -5.33301 -180.334 -8.33301 -245.001 -9
s-116.667 -0.333984 -156 0.999023c-46 1.33301 -81.667 4 -107 8l-8 565h-156l2 220l150 -2l-9 618c40.667 4.66699 83.5 8.66699 128.5 12s88.833 6.33301 131.5 9s82.334 4.66699 119.001 6s67.334 2 92.001 2c42 0 91.333 -1.83301 148 -5.5
s115.667 -11.834 177 -24.501s122.666 -31.334 183.999 -56.001s118.333 -58 171 -100s98.5 -94.167 137.5 -156.5s66.833 -137.5 83.5 -225.5zM494 279.001c102 -6.66699 193.335 -2.83594 274.002 11.4971s148.667 38.833 204 73.5s96.666 79.167 123.999 133.5
s38.666 117.833 33.999 190.5c-2.66699 46.667 -12 87.667 -28 123s-36.5 65.833 -61.5 91.5s-53.667 46.834 -86 63.501s-66 29.834 -101 39.501s-70.833 16.5 -107.5 20.5s-71.667 5.83301 -105 5.5s-64.333 -2.16602 -93 -5.49902s-53 -7.33301 -73 -12l6 -232l166 -2
l-4 -207h-158z" />
    <glyph glyph-name="ntilde" unicode="&#xf1;" horiz-adv-x="1341" 
d="M365 868l20 -868h-385v1434h291l639 -912l-43 897l330 13l22 -1393l-270 -21zM315 1561.07c5.61133 8.02441 15.4316 20.2617 29.46 36.7119s30.6621 32.499 49.9014 48.1465s40.4824 29.4902 63.7295 41.5273c23.2471 12.0361 46.8955 18.0547 70.9453 18.0547
c31.2637 0 55.1123 -6.82129 71.5459 -20.4629s30.2617 -28.4863 41.4844 -44.5352l31.2637 -44.5361c9.62012 -13.6416 23.248 -20.4629 40.8838 -20.4629c12.0244 0 23.8486 4.0127 35.4727 12.0371s21.8447 17.2529 30.6621 27.6846
c10.4209 12.0361 20.4414 25.6777 30.0615 40.9248l101.006 -87.8682c-7.21484 -8.82715 -18.0371 -20.4629 -32.4658 -34.9072c-14.4297 -14.4443 -30.4629 -28.4873 -48.0986 -42.1289s-35.6729 -25.4775 -54.1104 -35.5078s-36.0732 -14.6445 -52.9082 -13.8418
c-27.2549 0 -48.8994 5.41602 -64.9326 16.249c-16.0322 10.833 -30.0605 22.8701 -42.085 36.1104c-12.0244 13.2412 -24.0488 25.4785 -36.0732 36.7119c-12.0244 11.2344 -26.8545 16.8516 -44.4902 16.8516s-33.2676 -5.21582 -46.8955 -15.6475
s-25.252 -22.0674 -34.8721 -34.9062c-11.2227 -14.4443 -21.6436 -31.2959 -31.2637 -50.5547z" />
    <glyph glyph-name="ograve" unicode="&#xf2;" horiz-adv-x="1595" 
d="M743 1460c72.667 0 142 -8.83398 208 -26.501s127.167 -42.5 183.5 -74.5s107.5 -70.667 153.5 -116s85.167 -95.333 117.5 -150s57.333 -113.667 75 -177s26.5 -129 26.5 -197c0 -67.333 -8.83301 -132.166 -26.5 -194.499s-42.667 -120.5 -75 -174.5
s-71.5 -103.167 -117.5 -147.5s-97.167 -82.166 -153.5 -113.499s-117.5 -55.666 -183.5 -72.999s-135.333 -26 -208 -26c-68.667 0 -134.834 8.66699 -198.501 26s-123 41.666 -178 72.999s-105 69.166 -150 113.499s-83.5 93.5 -115.5 147.5s-56.833 112 -74.5 174
s-26.5 127 -26.5 195s8.83301 133.667 26.5 197s42.5 122.333 74.5 177s70.5 104.667 115.5 150s95 84 150 116s114.333 56.833 178 74.5s129.834 26.5 198.501 26.5zM743 275.999c62 0 119.333 11 172 33s98.167 51.5 136.5 88.5s68.333 79.667 90 128
s32.5 99.166 32.5 152.499c0 58.667 -10.833 112.5 -32.5 161.5s-51.667 91 -90 126s-83.833 62.333 -136.5 82s-110 29.5 -172 29.5c-56.667 0 -109.834 -9.83301 -159.501 -29.5s-93 -47 -130 -82s-66.167 -77 -87.5 -126s-32 -102.833 -32 -161.5
c0 -53.333 10.667 -104.166 32 -152.499s50.5 -91 87.5 -128s80.333 -66.5 130 -88.5s102.834 -33 159.501 -33zM391 1659l94 131l246 -207l-66 -86z" />
    <glyph glyph-name="oacute" unicode="&#xf3;" horiz-adv-x="1595" 
d="M743 1460c72.667 0 142 -8.83398 208 -26.501s127.167 -42.5 183.5 -74.5s107.5 -70.667 153.5 -116s85.167 -95.333 117.5 -150s57.333 -113.667 75 -177s26.5 -129 26.5 -197c0 -67.333 -8.83301 -132.166 -26.5 -194.499s-42.667 -120.5 -75 -174.5
s-71.5 -103.167 -117.5 -147.5s-97.167 -82.166 -153.5 -113.499s-117.5 -55.666 -183.5 -72.999s-135.333 -26 -208 -26c-68.667 0 -134.834 8.66699 -198.501 26s-123 41.666 -178 72.999s-105 69.166 -150 113.499s-83.5 93.5 -115.5 147.5s-56.833 112 -74.5 174
s-26.5 127 -26.5 195s8.83301 133.667 26.5 197s42.5 122.333 74.5 177s70.5 104.667 115.5 150s95 84 150 116s114.333 56.833 178 74.5s129.834 26.5 198.501 26.5zM743 275.999c62 0 119.333 11 172 33s98.167 51.5 136.5 88.5s68.333 79.667 90 128
s32.5 99.166 32.5 152.499c0 58.667 -10.833 112.5 -32.5 161.5s-51.667 91 -90 126s-83.833 62.333 -136.5 82s-110 29.5 -172 29.5c-56.667 0 -109.834 -9.83301 -159.501 -29.5s-93 -47 -130 -82s-66.167 -77 -87.5 -126s-32 -102.833 -32 -161.5
c0 -53.333 10.667 -104.166 32 -152.499s50.5 -91 87.5 -128s80.333 -66.5 130 -88.5s102.834 -33 159.501 -33zM797 1487l-66 86l246 207l94 -131z" />
    <glyph glyph-name="ocircumflex" unicode="&#xf4;" horiz-adv-x="1595" 
d="M743 1460c72.667 0 142 -8.83398 208 -26.501s127.167 -42.5 183.5 -74.5s107.5 -70.667 153.5 -116s85.167 -95.333 117.5 -150s57.333 -113.667 75 -177s26.5 -129 26.5 -197c0 -67.333 -8.83301 -132.166 -26.5 -194.499s-42.667 -120.5 -75 -174.5
s-71.5 -103.167 -117.5 -147.5s-97.167 -82.166 -153.5 -113.499s-117.5 -55.666 -183.5 -72.999s-135.333 -26 -208 -26c-68.667 0 -134.834 8.66699 -198.501 26s-123 41.666 -178 72.999s-105 69.166 -150 113.499s-83.5 93.5 -115.5 147.5s-56.833 112 -74.5 174
s-26.5 127 -26.5 195s8.83301 133.667 26.5 197s42.5 122.333 74.5 177s70.5 104.667 115.5 150s95 84 150 116s114.333 56.833 178 74.5s129.834 26.5 198.501 26.5zM743 275.999c62 0 119.333 11 172 33s98.167 51.5 136.5 88.5s68.333 79.667 90 128
s32.5 99.166 32.5 152.499c0 58.667 -10.833 112.5 -32.5 161.5s-51.667 91 -90 126s-83.833 62.333 -136.5 82s-110 29.5 -172 29.5c-56.667 0 -109.834 -9.83301 -159.501 -29.5s-93 -47 -130 -82s-66.167 -77 -87.5 -126s-32 -102.833 -32 -161.5
c0 -53.333 10.667 -104.166 32 -152.499s50.5 -91 87.5 -128s80.333 -66.5 130 -88.5s102.834 -33 159.501 -33zM604 1485l-57 51l195 211l180 -211l-70 -53l-119 139z" />
    <glyph glyph-name="otilde" unicode="&#xf5;" horiz-adv-x="1595" 
d="M743 1460c72.667 0 142 -8.83398 208 -26.501s127.167 -42.5 183.5 -74.5s107.5 -70.667 153.5 -116s85.167 -95.333 117.5 -150s57.333 -113.667 75 -177s26.5 -129 26.5 -197c0 -67.333 -8.83301 -132.166 -26.5 -194.499s-42.667 -120.5 -75 -174.5
s-71.5 -103.167 -117.5 -147.5s-97.167 -82.166 -153.5 -113.499s-117.5 -55.666 -183.5 -72.999s-135.333 -26 -208 -26c-68.667 0 -134.834 8.66699 -198.501 26s-123 41.666 -178 72.999s-105 69.166 -150 113.499s-83.5 93.5 -115.5 147.5s-56.833 112 -74.5 174
s-26.5 127 -26.5 195s8.83301 133.667 26.5 197s42.5 122.333 74.5 177s70.5 104.667 115.5 150s95 84 150 116s114.333 56.833 178 74.5s129.834 26.5 198.501 26.5zM743 275.999c62 0 119.333 11 172 33s98.167 51.5 136.5 88.5s68.333 79.667 90 128
s32.5 99.166 32.5 152.499c0 58.667 -10.833 112.5 -32.5 161.5s-51.667 91 -90 126s-83.833 62.333 -136.5 82s-110 29.5 -172 29.5c-56.667 0 -109.834 -9.83301 -159.501 -29.5s-93 -47 -130 -82s-66.167 -77 -87.5 -126s-32 -102.833 -32 -161.5
c0 -53.333 10.667 -104.166 32 -152.499s50.5 -91 87.5 -128s80.333 -66.5 130 -88.5s102.834 -33 159.501 -33zM526 1586c4.66699 6.66699 12.833 16.8301 24.5 30.4971s25.5 27 41.5 40s33.667 24.5 53 34.5s39 15 59 15c26 0 45.833 -5.66699 59.5 -17
s25.167 -23.666 34.5 -36.999l26 -37c8 -11.333 19.333 -17 34 -17c10 0 19.833 3.33301 29.5 10s18.167 14.334 25.5 23.001c8.66699 10 17 21.333 25 34l84 -73c-6 -7.33301 -15 -17 -27 -29s-25.333 -23.667 -40 -35s-29.667 -21.166 -45 -29.499
s-30 -12.166 -44 -11.499c-22.667 0 -40.667 4.5 -54 13.5s-25 19 -35 30s-20 21.167 -30 30.5s-22.333 14 -37 14s-27.667 -4.33301 -39 -13s-21 -18.334 -29 -29.001c-9.33301 -12 -18 -26 -26 -42z" />
    <glyph glyph-name="odieresis" unicode="&#xf6;" horiz-adv-x="1595" 
d="M743 1460c72.667 0 142 -8.83398 208 -26.501s127.167 -42.5 183.5 -74.5s107.5 -70.667 153.5 -116s85.167 -95.333 117.5 -150s57.333 -113.667 75 -177s26.5 -129 26.5 -197c0 -67.333 -8.83301 -132.166 -26.5 -194.499s-42.667 -120.5 -75 -174.5
s-71.5 -103.167 -117.5 -147.5s-97.167 -82.166 -153.5 -113.499s-117.5 -55.666 -183.5 -72.999s-135.333 -26 -208 -26c-68.667 0 -134.834 8.66699 -198.501 26s-123 41.666 -178 72.999s-105 69.166 -150 113.499s-83.5 93.5 -115.5 147.5s-56.833 112 -74.5 174
s-26.5 127 -26.5 195s8.83301 133.667 26.5 197s42.5 122.333 74.5 177s70.5 104.667 115.5 150s95 84 150 116s114.333 56.833 178 74.5s129.834 26.5 198.501 26.5zM743 275.999c62 0 119.333 11 172 33s98.167 51.5 136.5 88.5s68.333 79.667 90 128
s32.5 99.166 32.5 152.499c0 58.667 -10.833 112.5 -32.5 161.5s-51.667 91 -90 126s-83.833 62.333 -136.5 82s-110 29.5 -172 29.5c-56.667 0 -109.834 -9.83301 -159.501 -29.5s-93 -47 -130 -82s-66.167 -77 -87.5 -126s-32 -102.833 -32 -161.5
c0 -53.333 10.667 -104.166 32 -152.499s50.5 -91 87.5 -128s80.333 -66.5 130 -88.5s102.834 -33 159.501 -33zM559 1467c-12 -0.666992 -23.998 1.00293 -35.998 5.00293s-22.667 10 -32 18s-17.333 18 -24 30s-10.667 25.667 -12 41
c-1.33301 16.667 0.5 31.334 5.5 44.001s12 23.5 21 32.5s19.167 15.833 30.5 20.5s23 7 35 7c13.333 0.666992 25.666 -1.5 36.999 -6.5s21.166 -11.833 29.499 -20.5s14.833 -18.834 19.5 -30.501s7.33398 -23.834 8.00098 -36.501c0.666992 -12 -0.833008 -24 -4.5 -36
s-9 -22.833 -16 -32.5s-15.833 -17.834 -26.5 -24.501s-22.334 -10.334 -35.001 -11.001zM844.002 1483c-24.667 -1.33301 -45.665 6.16895 -62.998 22.502s-27 36.166 -29 59.499c-0.666992 12.667 1 24.667 5 36s9.83301 21.166 17.5 29.499s16.5 15 26.5 20
s21 7.83301 33 8.5c25.333 0.666992 46.666 -7 63.999 -23s26.666 -37 27.999 -63c2 -24.667 -4.83301 -45.5 -20.5 -62.5s-36.167 -26.167 -61.5 -27.5z" />
    <glyph glyph-name="divide" unicode="&#xf7;" horiz-adv-x="914" 
d="M860 569h-860l2 178l862 -10zM279 969c0 18.667 3.50098 36.999 10.501 54.999s17.167 34.167 30.5 48.5s29.333 26 48 35s40 13.833 64 14.5c26 0.666992 49 -3.66602 69 -12.999s36.5 -21.333 49.5 -36s22.667 -31.167 29 -49.5s9.16602 -36.5 8.49902 -54.5
c-0.666992 -20 -5.5 -38.167 -14.5 -54.5s-20.667 -30.5 -35 -42.5s-30.666 -21.333 -48.999 -28s-37.5 -10 -57.5 -10c-19.333 0 -38 3.33301 -56 10s-34.333 16 -49 28s-26.334 26.167 -35.001 42.5s-13 34.5 -13 54.5zM279.001 349.999
c0 19.333 3.66895 37.167 11.002 53.5s17.166 30.5 29.499 42.5s26.666 21.333 42.999 28s33.5 10 51.5 10c19.333 0 37.5 -3.5 54.5 -10.5s31.667 -16.5 44 -28.5s22 -26.167 29 -42.5s10.5 -33.833 10.5 -52.5c0 -20 -3.5 -38.167 -10.5 -54.5s-16.667 -30.5 -29 -42.5
s-27 -21.333 -44 -28s-35.167 -10 -54.5 -10c-40 0 -72.5 12.5 -97.5 37.5s-37.5 57.5 -37.5 97.5z" />
    <glyph glyph-name="oslash" unicode="&#xf8;" horiz-adv-x="1595" 
d="M1360 1176c47.333 -62 84 -130.836 110 -206.503s39 -155.167 39 -238.5c0 -67.333 -8.83301 -132.166 -26.5 -194.499s-42.667 -120.5 -75 -174.5s-71.5 -103.167 -117.5 -147.5s-97.167 -82.166 -153.5 -113.499s-117.5 -55.666 -183.5 -72.999s-135.333 -26 -208 -26
c-68 0 -133.167 8.33301 -195.5 25s-120.5 40.334 -174.5 71.001l-70 -75l-219 184l70 76c-48.667 62.667 -86.5 131.667 -113.5 207s-40.5 155.666 -40.5 240.999c0 68 8.83301 133.667 26.5 197s42.5 122.5 74.5 177.5s70.5 105 115.5 150s95 83.667 150 116
s114.333 57.333 178 75s129.834 26.5 198.501 26.5c77.333 0 150.666 -9.83301 219.999 -29.5s133.333 -48.167 192 -85.5l72 78l190 -197zM336 689.997c0 -30 3.50098 -59.5 10.501 -88.5s17.167 -56.167 30.5 -81.5l512 549c-45.333 14 -93.333 21 -144 21
c-56.667 0 -109.834 -9.83301 -159.501 -29.5s-93 -47 -130 -82s-66.167 -77.167 -87.5 -126.5s-32 -103.333 -32 -162zM745.001 288.997c62 0 119.333 10.835 172 32.502s98.167 51 136.5 88s68.333 79.667 90 128s32.5 99.166 32.5 152.499
c0 41.333 -5.5 80.166 -16.5 116.499s-26.167 69.833 -45.5 100.5l-534 -583c52 -23.333 107 -35 165 -35z" />
    <glyph glyph-name="ugrave" unicode="&#xf9;" horiz-adv-x="1530" 
d="M0 1434l442.003 -0.00585938c0 -151.333 -0.833008 -286.333 -2.5 -405s-0.833984 -223.167 2.49902 -313.5s10.666 -166.833 21.999 -229.5s29.833 -113.5 55.5 -152.5s60 -66.667 103 -83s98.167 -22.833 165.5 -19.5s122 18.333 164 45s74.5 63.834 97.5 111.501
s38.5 105.334 46.5 173.001s12.333 144.167 13 229.5s-0.666016 178.833 -3.99902 280.5s-5 210.5 -5 326.5h24.5c16.333 0 36.5 -0.166992 60.5 -0.5s50 -0.5 78 -0.5h78c24 0 44 0.166992 60 0.5l24 0.5c0 -106 -0.166992 -199.167 -0.5 -279.5s-1 -150.833 -2 -211.5
s-2.16699 -113.5 -3.5 -158.5s-3.33301 -85.667 -6 -122s-6 -69.666 -10 -99.999s-8.66699 -61.5 -14 -93.5c-10.667 -62 -33.5 -119.833 -68.5 -173.5s-79.667 -100.5 -134 -140.5s-116.833 -71.333 -187.5 -94s-147 -34 -229 -34c-80 0 -151.833 6.5 -215.5 19.5
s-120.334 30.167 -170.001 51.5s-92.834 46 -129.501 74s-68 56.833 -94 86.5s-47.5 59.334 -64.5 89.001s-30.167 57.167 -39.5 82.5c-6.66699 19.333 -12.667 41.5 -18 66.5s-10 55.667 -14 92s-7.66699 79.833 -11 130.5s-6 111.334 -8 182.001
s-3.5 152.834 -4.5 246.501s-1.5 201.5 -1.5 323.5zM483.003 1621.99l94 131l246 -207l-66 -86z" />
    <glyph glyph-name="uacute" unicode="&#xfa;" horiz-adv-x="1530" 
d="M0 1434l442.003 -0.00585938c0 -151.333 -0.833008 -286.333 -2.5 -405s-0.833984 -223.167 2.49902 -313.5s10.666 -166.833 21.999 -229.5s29.833 -113.5 55.5 -152.5s60 -66.667 103 -83s98.167 -22.833 165.5 -19.5s122 18.333 164 45s74.5 63.834 97.5 111.501
s38.5 105.334 46.5 173.001s12.333 144.167 13 229.5s-0.666016 178.833 -3.99902 280.5s-5 210.5 -5 326.5h24.5c16.333 0 36.5 -0.166992 60.5 -0.5s50 -0.5 78 -0.5h78c24 0 44 0.166992 60 0.5l24 0.5c0 -106 -0.166992 -199.167 -0.5 -279.5s-1 -150.833 -2 -211.5
s-2.16699 -113.5 -3.5 -158.5s-3.33301 -85.667 -6 -122s-6 -69.666 -10 -99.999s-8.66699 -61.5 -14 -93.5c-10.667 -62 -33.5 -119.833 -68.5 -173.5s-79.667 -100.5 -134 -140.5s-116.833 -71.333 -187.5 -94s-147 -34 -229 -34c-80 0 -151.833 6.5 -215.5 19.5
s-120.334 30.167 -170.001 51.5s-92.834 46 -129.501 74s-68 56.833 -94 86.5s-47.5 59.334 -64.5 89.001s-30.167 57.167 -39.5 82.5c-6.66699 19.333 -12.667 41.5 -18 66.5s-10 55.667 -14 92s-7.66699 79.833 -11 130.5s-6 111.334 -8 182.001
s-3.5 152.834 -4.5 246.501s-1.5 201.5 -1.5 323.5zM785.003 1408.99l-66 86l246 207l94 -131z" />
    <glyph glyph-name="ucircumflex" unicode="&#xfb;" horiz-adv-x="1530" 
d="M0 1434l442.003 -0.00585938c0 -151.333 -0.833008 -286.333 -2.5 -405s-0.833984 -223.167 2.49902 -313.5s10.666 -166.833 21.999 -229.5s29.833 -113.5 55.5 -152.5s60 -66.667 103 -83s98.167 -22.833 165.5 -19.5s122 18.333 164 45s74.5 63.834 97.5 111.501
s38.5 105.334 46.5 173.001s12.333 144.167 13 229.5s-0.666016 178.833 -3.99902 280.5s-5 210.5 -5 326.5h24.5c16.333 0 36.5 -0.166992 60.5 -0.5s50 -0.5 78 -0.5h78c24 0 44 0.166992 60 0.5l24 0.5c0 -106 -0.166992 -199.167 -0.5 -279.5s-1 -150.833 -2 -211.5
s-2.16699 -113.5 -3.5 -158.5s-3.33301 -85.667 -6 -122s-6 -69.666 -10 -99.999s-8.66699 -61.5 -14 -93.5c-10.667 -62 -33.5 -119.833 -68.5 -173.5s-79.667 -100.5 -134 -140.5s-116.833 -71.333 -187.5 -94s-147 -34 -229 -34c-80 0 -151.833 6.5 -215.5 19.5
s-120.334 30.167 -170.001 51.5s-92.834 46 -129.501 74s-68 56.833 -94 86.5s-47.5 59.334 -64.5 89.001s-30.167 57.167 -39.5 82.5c-6.66699 19.333 -12.667 41.5 -18 66.5s-10 55.667 -14 92s-7.66699 79.833 -11 130.5s-6 111.334 -8 182.001
s-3.5 152.834 -4.5 246.501s-1.5 201.5 -1.5 323.5zM662.726 1455.57l-69.1484 52.1855l236.561 215.906l218.364 -215.906l-84.9189 -54.2324l-144.363 142.232z" />
    <glyph glyph-name="udieresis" unicode="&#xfc;" horiz-adv-x="1530" 
d="M0 1434l442.003 -0.00585938c0 -151.333 -0.833008 -286.333 -2.5 -405s-0.833984 -223.167 2.49902 -313.5s10.666 -166.833 21.999 -229.5s29.833 -113.5 55.5 -152.5s60 -66.667 103 -83s98.167 -22.833 165.5 -19.5s122 18.333 164 45s74.5 63.834 97.5 111.501
s38.5 105.334 46.5 173.001s12.333 144.167 13 229.5s-0.666016 178.833 -3.99902 280.5s-5 210.5 -5 326.5h24.5c16.333 0 36.5 -0.166992 60.5 -0.5s50 -0.5 78 -0.5h78c24 0 44 0.166992 60 0.5l24 0.5c0 -106 -0.166992 -199.167 -0.5 -279.5s-1 -150.833 -2 -211.5
s-2.16699 -113.5 -3.5 -158.5s-3.33301 -85.667 -6 -122s-6 -69.666 -10 -99.999s-8.66699 -61.5 -14 -93.5c-10.667 -62 -33.5 -119.833 -68.5 -173.5s-79.667 -100.5 -134 -140.5s-116.833 -71.333 -187.5 -94s-147 -34 -229 -34c-80 0 -151.833 6.5 -215.5 19.5
s-120.334 30.167 -170.001 51.5s-92.834 46 -129.501 74s-68 56.833 -94 86.5s-47.5 59.334 -64.5 89.001s-30.167 57.167 -39.5 82.5c-6.66699 19.333 -12.667 41.5 -18 66.5s-10 55.667 -14 92s-7.66699 79.833 -11 130.5s-6 111.334 -8 182.001
s-3.5 152.834 -4.5 246.501s-1.5 201.5 -1.5 323.5zM628.003 1433.99c-12 -0.666992 -23.998 1.00293 -35.998 5.00293s-22.667 10 -32 18s-17.333 18 -24 30s-10.667 25.667 -12 41c-1.33301 16.667 0.5 31.334 5.5 44.001s12 23.5 21 32.5s19.167 15.833 30.5 20.5
s23 7 35 7c13.333 0.666992 25.666 -1.5 36.999 -6.5s21.166 -11.833 29.499 -20.5s14.833 -18.834 19.5 -30.501s7.33398 -23.834 8.00098 -36.501c0.666992 -12 -0.833008 -24 -4.5 -36s-9 -22.833 -16 -32.5s-15.833 -17.834 -26.5 -24.501
s-22.334 -10.334 -35.001 -11.001zM913.005 1450c-24.667 -1.33301 -45.665 6.16895 -62.998 22.502s-27 36.166 -29 59.499c-0.666992 12.667 1 24.667 5 36s9.83301 21.166 17.5 29.499s16.5 15 26.5 20s21 7.83301 33 8.5c25.333 0.666992 46.666 -7 63.999 -23
s26.666 -37 27.999 -63c2 -24.667 -4.83301 -45.5 -20.5 -62.5s-36.167 -26.167 -61.5 -27.5z" />
    <glyph glyph-name="yacute" unicode="&#xfd;" horiz-adv-x="1509" 
d="M1407 1274l-475 -574l39 -692l-357 -20l-41 674l-573 573l258 219l514 -555l416 535l219 -160v0zM750 1493l-66 86l246 207l94 -131z" />
    <glyph glyph-name="thorn" unicode="&#xfe;" horiz-adv-x="1139" 
d="M1040 764c2.66699 -22.667 1.99805 -50.666 -2.00195 -83.999s-13.667 -68.333 -29 -105s-37.833 -73 -67.5 -109s-68.834 -68 -117.501 -96s-108.167 -50.333 -178.5 -67s-153.833 -24 -250.5 -22l11 -292l-367 -14l-39 1478l326 11l10 -300
c22.667 3.33301 50.334 6.16602 83.001 8.49902s67.334 3 104.001 2s73.834 -4.16699 111.501 -9.5s73.167 -14 106.5 -26c40 -14 77.333 -34 112 -60s65.167 -55.667 91.5 -89s47.833 -69.333 64.5 -108s27 -78 31 -118zM377.998 506.001
c7.33301 0 20.8311 -0.334961 40.498 -1.00195s41.834 -0.166992 66.501 1.5s50.167 5.66699 76.5 12s50 16.5 71 30.5s37.333 32.833 49 56.5s15.5 53.834 11.5 90.501c-7.33301 65.333 -39.666 108.333 -96.999 129s-136.333 24.334 -237 11.001z" />
    <glyph glyph-name="ydieresis" unicode="&#xff;" horiz-adv-x="1509" 
d="M1407 1274l-475 -574l39 -692l-357 -20l-41 674l-573 573l258 219l514 -555l416 535l219 -160v0zM624 1399c-12 -0.666992 -23.998 1.00293 -35.998 5.00293s-22.667 10 -32 18s-17.333 18 -24 30s-10.667 25.667 -12 41c-1.33301 16.667 0.5 31.334 5.5 44.001
s12 23.5 21 32.5s19.167 15.833 30.5 20.5s23 7 35 7c13.333 0.666992 25.666 -1.5 36.999 -6.5s21.166 -11.833 29.499 -20.5s14.833 -18.834 19.5 -30.501s7.33398 -23.834 8.00098 -36.501c0.666992 -12 -0.833008 -24 -4.5 -36s-9 -22.833 -16 -32.5
s-15.833 -17.834 -26.5 -24.501s-22.334 -10.334 -35.001 -11.001zM909.002 1415c-24.667 -1.33301 -45.665 6.16895 -62.998 22.502s-27 36.166 -29 59.499c-0.666992 12.667 1 24.667 5 36s9.83301 21.166 17.5 29.499s16.5 15 26.5 20s21 7.83301 33 8.5
c25.333 0.666992 46.666 -7 63.999 -23s26.666 -37 27.999 -63c2 -24.667 -4.83301 -45.5 -20.5 -62.5s-36.167 -26.167 -61.5 -27.5z" />
    <glyph glyph-name="Aogonek" unicode="&#x104;" 
d="M1177 53c-23.333 -26 -35.4961 -56.167 -36.4961 -90.5s4.16699 -62.833 15.5 -85.5c11.333 -24.667 27.166 -43.334 47.499 -56.001s40.166 -20.667 59.499 -24c28.667 -5.33301 51 -5.33301 67 0v-112c0 -1.33301 -8.33301 -2.5 -25 -3.5s-40.334 2.33301 -71.001 10
s-63.667 25.167 -99 52.5c-28.667 26.667 -46.834 57.334 -54.501 92.001s-9.66699 70.667 -6 108s8.5 66 14.5 86zM930.004 408h-445l-137 -408l-348 96l524 1338l289 -19l543 -1298l-271 -99zM852.004 582l-174 407l-135 -407h309z" />
    <glyph glyph-name="aogonek" unicode="&#x105;" 
d="M1177 53c-23.333 -26 -35.4961 -56.167 -36.4961 -90.5s4.16699 -62.833 15.5 -85.5c11.333 -24.667 27.166 -43.334 47.499 -56.001s40.166 -20.667 59.499 -24c28.667 -5.33301 51 -5.33301 67 0v-112c0 -1.33301 -8.33301 -2.5 -25 -3.5s-40.334 2.33301 -71.001 10
s-63.667 25.167 -99 52.5c-28.667 26.667 -46.834 57.334 -54.501 92.001s-9.66699 70.667 -6 108s8.5 66 14.5 86zM930.004 408h-445l-137 -408l-348 96l524 1338l289 -19l543 -1298l-271 -99zM852.004 582l-174 407l-135 -407h309z" />
    <glyph glyph-name="Cacute" unicode="&#x106;" horiz-adv-x="1351" 
d="M1185 86c-24 -19.333 -52.167 -35.334 -84.5 -48.001s-66.5 -22.5 -102.5 -29.5s-72.5 -11.833 -109.5 -14.5s-72.167 -4 -105.5 -4c-64 0 -127.5 7.66699 -190.5 23s-123 37.333 -180 66s-109.833 63.167 -158.5 103.5s-90.834 85.333 -126.501 135
s-63.667 103.5 -84 161.5s-30.5 119 -30.5 183c-3.33301 70.667 2 139.167 16 205.5s36 128.666 66 186.999s67.833 111.666 113.5 159.999s99 90 160 125s129.167 62.167 204.5 81.5s157.666 29 246.999 29c58 0 112.833 -4.16699 164.5 -12.5s97.334 -18 137.001 -29
s71.834 -21.667 96.501 -32s39.334 -17.833 44.001 -22.5v-365c-14 9.33301 -34.833 19.5 -62.5 30.5s-59.5 20.667 -95.5 29s-75.167 14.333 -117.5 18s-84.833 3.16699 -127.5 -1.5c-26 0 -56.167 -3.33301 -90.5 -10s-69.5 -17.5 -105.5 -32.5
s-70.833 -34.333 -104.5 -58s-62.667 -52.667 -87 -87s-41.833 -74.166 -52.5 -119.499s-11.334 -96.666 -2.00098 -153.999c9.33301 -48 30 -90.167 62 -126.5s70.5 -66.833 115.5 -91.5s94.5 -43.167 148.5 -55.5s107.833 -19 161.5 -20s105 3.83301 154 14.5
s91.167 27.334 126.5 50.001v-289zM719 1536l-66 86l246 207l94 -131z" />
    <glyph glyph-name="cacute" unicode="&#x107;" horiz-adv-x="1351" 
d="M1185 86c-24 -19.333 -52.167 -35.334 -84.5 -48.001s-66.5 -22.5 -102.5 -29.5s-72.5 -11.833 -109.5 -14.5s-72.167 -4 -105.5 -4c-64 0 -127.5 7.66699 -190.5 23s-123 37.333 -180 66s-109.833 63.167 -158.5 103.5s-90.834 85.333 -126.501 135
s-63.667 103.5 -84 161.5s-30.5 119 -30.5 183c-3.33301 70.667 2 139.167 16 205.5s36 128.666 66 186.999s67.833 111.666 113.5 159.999s99 90 160 125s129.167 62.167 204.5 81.5s157.666 29 246.999 29c58 0 112.833 -4.16699 164.5 -12.5s97.334 -18 137.001 -29
s71.834 -21.667 96.501 -32s39.334 -17.833 44.001 -22.5v-365c-14 9.33301 -34.833 19.5 -62.5 30.5s-59.5 20.667 -95.5 29s-75.167 14.333 -117.5 18s-84.833 3.16699 -127.5 -1.5c-26 0 -56.167 -3.33301 -90.5 -10s-69.5 -17.5 -105.5 -32.5
s-70.833 -34.333 -104.5 -58s-62.667 -52.667 -87 -87s-41.833 -74.166 -52.5 -119.499s-11.334 -96.666 -2.00098 -153.999c9.33301 -48 30 -90.167 62 -126.5s70.5 -66.833 115.5 -91.5s94.5 -43.167 148.5 -55.5s107.833 -19 161.5 -20s105 3.83301 154 14.5
s91.167 27.334 126.5 50.001v-289zM719 1536l-66 86l246 207l94 -131z" />
    <glyph glyph-name="Eogonek" unicode="&#x118;" horiz-adv-x="1270" 
d="M996 22c-22.667 -26 -34.498 -56.1689 -35.498 -90.502s3.83301 -63.166 14.5 -86.499c11.333 -24 27.166 -42.333 47.499 -55s40.166 -20.667 59.499 -24c29.333 -5.33301 51.666 -5.33301 66.999 0v-112c0 -2 -8.16699 -3.33301 -24.5 -4s-40 2.83301 -71 10.5
s-63.833 24.834 -98.5 51.501c-29.333 27.333 -47.666 58.333 -54.999 93c-8 33.333 -10 69 -6 107c6.66699 62 9.66699 98.333 9 109zM1161 1090h-792l6 -472h438v-192h-430l4 -156l649 21l8 -273l-1026 -18l-18 1432h1161v-342v0z" />
    <glyph glyph-name="eogonek" unicode="&#x119;" horiz-adv-x="1270" 
d="M996 22c-22.667 -26 -34.498 -56.1689 -35.498 -90.502s3.83301 -63.166 14.5 -86.499c11.333 -24 27.166 -42.333 47.499 -55s40.166 -20.667 59.499 -24c29.333 -5.33301 51.666 -5.33301 66.999 0v-112c0 -2 -8.16699 -3.33301 -24.5 -4s-40 2.83301 -71 10.5
s-63.833 24.834 -98.5 51.501c-29.333 27.333 -47.666 58.333 -54.999 93c-8 33.333 -10 69 -6 107c6.66699 62 9.66699 98.333 9 109zM1161 1090h-792l6 -472h438v-192h-430l4 -156l649 21l8 -273l-1026 -18l-18 1432h1161v-342v0z" />
    <glyph glyph-name="G.001" unicode="&#x11e;" horiz-adv-x="1339" 
d="M852 1061c-26 0 -56.3311 -3.50293 -90.998 -10.5029s-70.167 -18 -106.5 -33s-71.333 -34.5 -105 -58.5s-62.667 -53.167 -87 -87.5s-42 -74.166 -53 -119.499s-11.5 -96.666 -1.5 -153.999c10 -52.667 30.833 -98.167 62.5 -136.5s69.667 -69.333 114 -93
s93 -40.334 146 -50.001s105.833 -12.167 158.5 -7.5v172h-172v232h463v-346v-289v-78h-271h-135c-64 0 -127.5 7.33301 -190.5 22s-123 35.5 -180 62.5s-109.833 59.833 -158.5 98.5s-90.834 82.334 -126.501 131.001s-63.667 101.667 -84 159s-30.5 118 -30.5 182
c-3.33301 70.667 2 139 16 205s36 128.333 66 187s67.833 112.334 113.5 161.001s99 90.5 160 125.5s129.333 62.167 205 81.5s158.5 29 248.5 29c58 0 112.667 -4.16699 164 -12.5s96.666 -18 135.999 -29s71.5 -21.667 96.5 -32s40.167 -17.833 45.5 -22.5v-365
c-14 9.33301 -34.833 19.333 -62.5 30s-59.5 20.167 -95.5 28.5s-75.167 14.5 -117.5 18.5s-84.833 3.66699 -127.5 -1zM1009 1666c-13.333 -46.667 -32.833 -86.333 -58.5 -119s-54.167 -57.667 -85.5 -75s-64 -27 -98 -29s-66.833 4 -98.5 18s-60.5 36 -86.5 66
s-46 68.667 -60 116l98 37c34 -83.333 80.167 -124.333 138.5 -123s107.833 51.333 148.5 150z" />
    <glyph glyph-name="g.001" unicode="&#x11f;" horiz-adv-x="1374" 
d="M852 1061c-26 0 -56.3311 -3.50293 -90.998 -10.5029s-70.167 -18 -106.5 -33s-71.333 -34.5 -105 -58.5s-62.667 -53.167 -87 -87.5s-42 -74.166 -53 -119.499s-11.5 -96.666 -1.5 -153.999c10 -52.667 30.833 -98.167 62.5 -136.5s69.667 -69.333 114 -93
s93 -40.334 146 -50.001s105.833 -12.167 158.5 -7.5v172h-172v232h463v-346v-289v-78h-271h-135c-64 0 -127.5 7.33301 -190.5 22s-123 35.5 -180 62.5s-109.833 59.833 -158.5 98.5s-90.834 82.334 -126.501 131.001s-63.667 101.667 -84 159s-30.5 118 -30.5 182
c-3.33301 70.667 2 139 16 205s36 128.333 66 187s67.833 112.334 113.5 161.001s99 90.5 160 125.5s129.333 62.167 205 81.5s158.5 29 248.5 29c58 0 112.667 -4.16699 164 -12.5s96.666 -18 135.999 -29s71.5 -21.667 96.5 -32s40.167 -17.833 45.5 -22.5v-365
c-14 9.33301 -34.833 19.333 -62.5 30s-59.5 20.167 -95.5 28.5s-75.167 14.5 -117.5 18.5s-84.833 3.66699 -127.5 -1zM1009 1666c-13.333 -46.667 -32.833 -86.333 -58.5 -119s-54.167 -57.667 -85.5 -75s-64 -27 -98 -29s-66.833 4 -98.5 18s-60.5 36 -86.5 66
s-46 68.667 -60 116l98 37c34 -83.333 80.167 -124.333 138.5 -123s107.833 51.333 148.5 150z" />
    <glyph glyph-name="I.001" unicode="&#x130;" horiz-adv-x="609" 
d="M459 -8l-393 20l59 1434l393 -21l-59 -1433v0zM199 1632c0 20.667 4 40 12 58s18.667 33.5 32 46.5s28.833 23.167 46.5 30.5s36.5 11 56.5 11c20.667 0 40.167 -3.83301 58.5 -11.5s34.333 -18.167 48 -31.5s24.334 -28.833 32.001 -46.5s11.5 -36.5 11.5 -56.5
c0 -21.333 -3.83301 -41 -11.5 -59s-18.334 -33.5 -32.001 -46.5s-29.667 -23.167 -48 -30.5s-37.833 -11 -58.5 -11c-21.333 0 -41 3.66699 -59 11s-33.5 17.5 -46.5 30.5s-23.167 28.5 -30.5 46.5s-11 37.667 -11 59z" />
    <glyph glyph-name="i.001" unicode="&#x131;" horiz-adv-x="635" 
d="M459 -8l-393 20l59 1434l393 -21l-59 -1433v0zM199 1632c0 20.667 4 40 12 58s18.667 33.5 32 46.5s28.833 23.167 46.5 30.5s36.5 11 56.5 11c20.667 0 40.167 -3.83301 58.5 -11.5s34.333 -18.167 48 -31.5s24.334 -28.833 32.001 -46.5s11.5 -36.5 11.5 -56.5
c0 -21.333 -3.83301 -41 -11.5 -59s-18.334 -33.5 -32.001 -46.5s-29.667 -23.167 -48 -30.5s-37.833 -11 -58.5 -11c-21.333 0 -41 3.66699 -59 11s-33.5 17.5 -46.5 30.5s-23.167 28.5 -30.5 46.5s-11 37.667 -11 59z" />
    <glyph glyph-name="Lslash" unicode="&#x141;" horiz-adv-x="983" 
d="M752 875l-889 -282l-48 167l894 272zM60 0l-59 1425l391 19l39 -1178l438 31l11 -258z" />
    <glyph glyph-name="lslash" unicode="&#x142;" horiz-adv-x="983" 
d="M752 875l-889 -282l-48 167l894 272zM60 0l-59 1425l391 19l39 -1178l438 31l11 -258z" />
    <glyph glyph-name="Nacute" unicode="&#x143;" horiz-adv-x="1345" 
d="M365 868l20 -868h-385v1434h291l639 -912l-43 897l330 13l22 -1393l-270 -21zM554 1432l-66 86l246 207l94 -131z" />
    <glyph glyph-name="nacute" unicode="&#x144;" horiz-adv-x="1345" 
d="M365 868l20 -868h-385v1434h291l639 -912l-43 897l330 13l22 -1393l-270 -21zM554 1432l-66 86l246 207l94 -131z" />
    <glyph glyph-name="OE" unicode="&#x152;" horiz-adv-x="1706" 
 />
    <glyph glyph-name="oe" unicode="&#x153;" horiz-adv-x="1817" 
d="M1706 1090l-641 -0.000976562l-2 -472h434v-192h-428v-156l549 21l12 -273l-887 -18v2h-14c-68 0 -133.167 8.33301 -195.5 25s-120.5 40.334 -174.5 71.001s-103 67.667 -147 111s-81.833 91.333 -113.5 144s-56 109.334 -73 170.001s-25.5 124 -25.5 190
c0 65.333 8.5 128.5 25.5 189.5s41 118 72 171s68.5 101.5 112.5 145.5s92.833 81.667 146.5 113s111.5 55.666 173.5 72.999s127 26.333 195 27h981v-342zM326 671.999c0 -51.333 7.83398 -102.832 23.501 -154.499s40.167 -98.167 73.5 -139.5s76 -75 128 -101
s114.667 -39 188 -39l-10 847c-56 0 -108.333 -10.833 -157 -32.5s-91.334 -51.334 -128.001 -89.001s-65.5 -81.5 -86.5 -131.5s-31.5 -103.333 -31.5 -160z" />
    <glyph glyph-name="Sacute" unicode="&#x15a;" horiz-adv-x="1225" 
d="M213 406c79.333 -69.333 148.332 -114 206.999 -134s107.667 -14.333 147 17c16 16 20.333 34 13 54s-22 41 -44 63s-49.167 44.5 -81.5 67.5l-98 68l-93.5 64.5c-29.333 20.667 -52.333 39.334 -69 56.001l-24 20c-12.667 10.667 -27.167 25 -43.5 43
s-33.166 39.333 -50.499 64s-32 52.5 -44 83.5s-20 65 -24 102s-1.33301 76.833 8 119.5c15.333 54 40.833 102.667 76.5 146s78.667 80.166 129 110.499s106.666 53.833 168.999 70.5s127.5 25 195.5 25c58 0 112 -2.66699 162 -8s97.167 -14.166 141.5 -26.499
s86.833 -28.5 127.5 -48.5s80.334 -45 119.001 -75l-196 -334c-29.333 30 -62.833 56.667 -100.5 80s-76.334 42.166 -116.001 56.499s-78.667 23.166 -117 26.499s-73 0.166016 -104 -9.50098s-56.667 -27 -77 -52s-31.833 -58.833 -34.5 -101.5
c0 -36.667 7.66699 -69.167 23 -97.5s35.333 -54.5 60 -78.5s52.667 -46.667 84 -68l95.5 -65c32.333 -22 63.5 -45.5 93.5 -70.5s56.167 -53.167 78.5 -84.5s39.333 -66.666 51 -105.999s15.167 -84.666 10.5 -135.999c-4.66699 -49.333 -18.667 -91.166 -42 -125.499
s-52.333 -61.833 -87 -82.5s-73.5 -35 -116.5 -43s-86.833 -10.333 -131.5 -7c-27.333 2 -54.333 5.66699 -81 11s-52.667 12 -78 20s-49.666 16.667 -72.999 26s-45 18.666 -65 27.999c-47.333 22 -92.333 47 -135 75l68 127l25 47l21.5 41l15 29
c3.66699 7.33301 5.5 11.333 5.5 12zM520.999 1513l-66 86l246 207l94 -131z" />
    <glyph glyph-name="sacute" unicode="&#x15b;" horiz-adv-x="1225" 
d="M213 406c79.333 -69.333 148.332 -114 206.999 -134s107.667 -14.333 147 17c16 16 20.333 34 13 54s-22 41 -44 63s-49.167 44.5 -81.5 67.5l-98 68l-93.5 64.5c-29.333 20.667 -52.333 39.334 -69 56.001l-24 20c-12.667 10.667 -27.167 25 -43.5 43
s-33.166 39.333 -50.499 64s-32 52.5 -44 83.5s-20 65 -24 102s-1.33301 76.833 8 119.5c15.333 54 40.833 102.667 76.5 146s78.667 80.166 129 110.499s106.666 53.833 168.999 70.5s127.5 25 195.5 25c58 0 112 -2.66699 162 -8s97.167 -14.166 141.5 -26.499
s86.833 -28.5 127.5 -48.5s80.334 -45 119.001 -75l-196 -334c-29.333 30 -62.833 56.667 -100.5 80s-76.334 42.166 -116.001 56.499s-78.667 23.166 -117 26.499s-73 0.166016 -104 -9.50098s-56.667 -27 -77 -52s-31.833 -58.833 -34.5 -101.5
c0 -36.667 7.66699 -69.167 23 -97.5s35.333 -54.5 60 -78.5s52.667 -46.667 84 -68l95.5 -65c32.333 -22 63.5 -45.5 93.5 -70.5s56.167 -53.167 78.5 -84.5s39.333 -66.666 51 -105.999s15.167 -84.666 10.5 -135.999c-4.66699 -49.333 -18.667 -91.166 -42 -125.499
s-52.333 -61.833 -87 -82.5s-73.5 -35 -116.5 -43s-86.833 -10.333 -131.5 -7c-27.333 2 -54.333 5.66699 -81 11s-52.667 12 -78 20s-49.666 16.667 -72.999 26s-45 18.666 -65 27.999c-47.333 22 -92.333 47 -135 75l68 127l25 47l21.5 41l15 29
c3.66699 7.33301 5.5 11.333 5.5 12zM520.999 1513l-66 86l246 207l94 -131z" />
    <glyph glyph-name="S.001" unicode="&#x15e;" horiz-adv-x="1201" 
d="M207 406c79.333 -69.333 148.332 -114 206.999 -134s107.667 -14.333 147 17c16 16 20.333 34 13 54s-22 41 -44 63s-49.167 44.5 -81.5 67.5l-98 68l-93.5 64.5c-29.333 20.667 -52.333 39.334 -69 56.001l-24 20c-12.667 10.667 -27.167 25 -43.5 43
s-33.166 39.333 -50.499 64s-32 52.5 -44 83.5s-20 65 -24 102s-1.33301 76.833 8 119.5c15.333 54 40.833 102.667 76.5 146s78.667 80.166 129 110.499s106.666 53.833 168.999 70.5s127.5 25 195.5 25c58 0 112 -2.66699 162 -8s97.167 -14.166 141.5 -26.499
s86.833 -28.5 127.5 -48.5s80.334 -45 119.001 -75l-196 -334c-29.333 30 -62.833 56.667 -100.5 80s-76.334 42.166 -116.001 56.499s-78.667 23.166 -117 26.499s-73 0.166016 -104 -9.50098s-56.667 -27 -77 -52s-31.833 -58.833 -34.5 -101.5
c0 -36.667 7.66699 -69.167 23 -97.5s35.333 -54.5 60 -78.5s52.667 -46.667 84 -68l95.5 -65c32.333 -22 63.5 -45.5 93.5 -70.5s56.167 -53.167 78.5 -84.5s39.333 -66.666 51 -105.999s15.167 -84.666 10.5 -135.999c-4.66699 -49.333 -18.667 -91.166 -42 -125.499
s-52.333 -61.833 -87 -82.5s-73.5 -35 -116.5 -43s-86.833 -10.333 -131.5 -7c-27.333 2 -54.333 5.66699 -81 11s-52.667 12 -78 20s-49.666 16.667 -72.999 26s-45 18.666 -65 27.999c-47.333 22 -92.333 47 -135 75l68 127l25 47l21.5 41l15 29
c3.66699 7.33301 5.5 11.333 5.5 12zM437.999 -12c-5.33301 -6.66699 -7.99316 -11.668 -7.99316 -15.001v-12c0 -4 4.66699 -7.66699 14 -11c8.66699 -4 19.667 -7.33301 33 -10c13.333 -3.33301 27.666 -6.66602 42.999 -9.99902s30 -8.33301 44 -15
c13.333 -7.33301 24.666 -16.666 33.999 -27.999c9.33301 -12 14.333 -22.667 15 -32v-15l1 -21c0 -14 -7.33301 -32.667 -22 -56c-14.667 -24 -35.667 -44 -63 -60c-27.333 -16.667 -60.333 -29 -99 -37c-38.667 -8.66699 -69.334 -12 -92.001 -10l-35 2l-2 125
c7.33301 -1.33301 20.166 -2.5 38.499 -3.5s37.166 -0.5 56.499 1.5s36.666 6.66699 51.999 14c14.667 6.66699 22.334 14 23.001 22v19c0 5.33301 -3.66699 11.666 -11 18.999c-8 6.66699 -17.667 12.334 -29 17.001c-12 4.66699 -24.667 9 -38 13c-14 4 -26.667 9 -38 15
c-12 5.33301 -22 12 -30 20c-8 7.33301 -11.667 17.333 -11 30c-0.666992 10 0.666016 18.5 3.99902 25.5s7.66602 13.167 12.999 18.5s11.666 10 18.999 14c4.66699 2 9.33398 4.33301 14.001 7l86 -16c-4.66699 -2.66699 -8.66699 -6.33398 -12 -11.001z" />
    <glyph glyph-name="s.001" unicode="&#x15f;" horiz-adv-x="1266" 
d="M207 406c79.333 -69.333 148.332 -114 206.999 -134s107.667 -14.333 147 17c16 16 20.333 34 13 54s-22 41 -44 63s-49.167 44.5 -81.5 67.5l-98 68l-93.5 64.5c-29.333 20.667 -52.333 39.334 -69 56.001l-24 20c-12.667 10.667 -27.167 25 -43.5 43
s-33.166 39.333 -50.499 64s-32 52.5 -44 83.5s-20 65 -24 102s-1.33301 76.833 8 119.5c15.333 54 40.833 102.667 76.5 146s78.667 80.166 129 110.499s106.666 53.833 168.999 70.5s127.5 25 195.5 25c58 0 112 -2.66699 162 -8s97.167 -14.166 141.5 -26.499
s86.833 -28.5 127.5 -48.5s80.334 -45 119.001 -75l-196 -334c-29.333 30 -62.833 56.667 -100.5 80s-76.334 42.166 -116.001 56.499s-78.667 23.166 -117 26.499s-73 0.166016 -104 -9.50098s-56.667 -27 -77 -52s-31.833 -58.833 -34.5 -101.5
c0 -36.667 7.66699 -69.167 23 -97.5s35.333 -54.5 60 -78.5s52.667 -46.667 84 -68l95.5 -65c32.333 -22 63.5 -45.5 93.5 -70.5s56.167 -53.167 78.5 -84.5s39.333 -66.666 51 -105.999s15.167 -84.666 10.5 -135.999c-4.66699 -49.333 -18.667 -91.166 -42 -125.499
s-52.333 -61.833 -87 -82.5s-73.5 -35 -116.5 -43s-86.833 -10.333 -131.5 -7c-27.333 2 -54.333 5.66699 -81 11s-52.667 12 -78 20s-49.666 16.667 -72.999 26s-45 18.666 -65 27.999c-47.333 22 -92.333 47 -135 75l68 127l25 47l21.5 41l15 29
c3.66699 7.33301 5.5 11.333 5.5 12zM437.999 -12c-5.33301 -6.66699 -7.99316 -11.668 -7.99316 -15.001v-12c0 -4 4.66699 -7.66699 14 -11c8.66699 -4 19.667 -7.33301 33 -10c13.333 -3.33301 27.666 -6.66602 42.999 -9.99902s30 -8.33301 44 -15
c13.333 -7.33301 24.666 -16.666 33.999 -27.999c9.33301 -12 14.333 -22.667 15 -32v-15l1 -21c0 -14 -7.33301 -32.667 -22 -56c-14.667 -24 -35.667 -44 -63 -60c-27.333 -16.667 -60.333 -29 -99 -37c-38.667 -8.66699 -69.334 -12 -92.001 -10l-35 2l-2 125
c7.33301 -1.33301 20.166 -2.5 38.499 -3.5s37.166 -0.5 56.499 1.5s36.666 6.66699 51.999 14c14.667 6.66699 22.334 14 23.001 22v19c0 5.33301 -3.66699 11.666 -11 18.999c-8 6.66699 -17.667 12.334 -29 17.001c-12 4.66699 -24.667 9 -38 13c-14 4 -26.667 9 -38 15
c-12 5.33301 -22 12 -30 20c-8 7.33301 -11.667 17.333 -11 30c-0.666992 10 0.666016 18.5 3.99902 25.5s7.66602 13.167 12.999 18.5s11.666 10 18.999 14c4.66699 2 9.33398 4.33301 14.001 7l86 -16c-4.66699 -2.66699 -8.66699 -6.33398 -12 -11.001z" />
    <glyph glyph-name="Scaron" unicode="&#x160;" horiz-adv-x="1224" 
d="M213 406c79.333 -69.333 148.332 -114 206.999 -134s107.667 -14.333 147 17c16 16 20.333 34 13 54s-22 41 -44 63s-49.167 44.5 -81.5 67.5l-98 68l-93.5 64.5c-29.333 20.667 -52.333 39.334 -69 56.001l-24 20c-12.667 10.667 -27.167 25 -43.5 43
s-33.166 39.333 -50.499 64s-32 52.5 -44 83.5s-20 65 -24 102s-1.33301 76.833 8 119.5c15.333 54 40.833 102.667 76.5 146s78.667 80.166 129 110.499s106.666 53.833 168.999 70.5s127.5 25 195.5 25c58 0 112 -2.66699 162 -8s97.167 -14.166 141.5 -26.499
s86.833 -28.5 127.5 -48.5s80.334 -45 119.001 -75l-196 -334c-29.333 30 -62.833 56.667 -100.5 80s-76.334 42.166 -116.001 56.499s-78.667 23.166 -117 26.499s-73 0.166016 -104 -9.50098s-56.667 -27 -77 -52s-31.833 -58.833 -34.5 -101.5
c0 -36.667 7.66699 -69.167 23 -97.5s35.333 -54.5 60 -78.5s52.667 -46.667 84 -68l95.5 -65c32.333 -22 63.5 -45.5 93.5 -70.5s56.167 -53.167 78.5 -84.5s39.333 -66.666 51 -105.999s15.167 -84.666 10.5 -135.999c-4.66699 -49.333 -18.667 -91.166 -42 -125.499
s-52.333 -61.833 -87 -82.5s-73.5 -35 -116.5 -43s-86.833 -10.333 -131.5 -7c-27.333 2 -54.333 5.66699 -81 11s-52.667 12 -78 20s-49.666 16.667 -72.999 26s-45 18.666 -65 27.999c-47.333 22 -92.333 47 -135 75l68 127l25 47l21.5 41l15 29
c3.66699 7.33301 5.5 11.333 5.5 12zM742.999 1741l62 -51l-191 -213l-184 207l69 55l125 -137z" />
    <glyph glyph-name="scaron" unicode="&#x161;" horiz-adv-x="1225" 
d="M213 406c79.333 -69.333 148.332 -114 206.999 -134s107.667 -14.333 147 17c16 16 20.333 34 13 54s-22 41 -44 63s-49.167 44.5 -81.5 67.5l-98 68l-93.5 64.5c-29.333 20.667 -52.333 39.334 -69 56.001l-24 20c-12.667 10.667 -27.167 25 -43.5 43
s-33.166 39.333 -50.499 64s-32 52.5 -44 83.5s-20 65 -24 102s-1.33301 76.833 8 119.5c15.333 54 40.833 102.667 76.5 146s78.667 80.166 129 110.499s106.666 53.833 168.999 70.5s127.5 25 195.5 25c58 0 112 -2.66699 162 -8s97.167 -14.166 141.5 -26.499
s86.833 -28.5 127.5 -48.5s80.334 -45 119.001 -75l-196 -334c-29.333 30 -62.833 56.667 -100.5 80s-76.334 42.166 -116.001 56.499s-78.667 23.166 -117 26.499s-73 0.166016 -104 -9.50098s-56.667 -27 -77 -52s-31.833 -58.833 -34.5 -101.5
c0 -36.667 7.66699 -69.167 23 -97.5s35.333 -54.5 60 -78.5s52.667 -46.667 84 -68l95.5 -65c32.333 -22 63.5 -45.5 93.5 -70.5s56.167 -53.167 78.5 -84.5s39.333 -66.666 51 -105.999s15.167 -84.666 10.5 -135.999c-4.66699 -49.333 -18.667 -91.166 -42 -125.499
s-52.333 -61.833 -87 -82.5s-73.5 -35 -116.5 -43s-86.833 -10.333 -131.5 -7c-27.333 2 -54.333 5.66699 -81 11s-52.667 12 -78 20s-49.666 16.667 -72.999 26s-45 18.666 -65 27.999c-47.333 22 -92.333 47 -135 75l68 127l25 47l21.5 41l15 29
c3.66699 7.33301 5.5 11.333 5.5 12zM758.102 1709.62l65.0498 -45.8613l-200.396 -191.536l-193.052 186.141l72.3945 49.458l131.148 -123.194z" />
    <glyph glyph-name="Ydieresis" unicode="&#x178;" horiz-adv-x="1510" 
d="M932 700l39 -692l-357 -20l-41 674l-573 573l258 219l514 -555l416 535l219 -160zM624 1433c-12 -0.666992 -23.998 1.00293 -35.998 5.00293s-22.667 10 -32 18s-17.333 18 -24 30s-10.667 25.667 -12 41c-1.33301 16.667 0.5 31.334 5.5 44.001s12 23.5 21 32.5
s19.167 15.833 30.5 20.5s23 7 35 7c13.333 0.666992 25.666 -1.5 36.999 -6.5s21.166 -11.833 29.499 -20.5s14.833 -18.834 19.5 -30.501s7.33398 -23.834 8.00098 -36.501c0.666992 -12 -0.833008 -24 -4.5 -36s-9 -22.833 -16 -32.5s-15.833 -17.834 -26.5 -24.501
s-22.334 -10.334 -35.001 -11.001zM909.002 1449c-24.667 -1.33301 -45.665 6.16895 -62.998 22.502s-27 36.166 -29 59.499c-0.666992 12.667 1 24.667 5 36s9.83301 21.166 17.5 29.499s16.5 15 26.5 20s21 7.83301 33 8.5c25.333 0.666992 46.666 -7 63.999 -23
s26.666 -37 27.999 -63c2 -24.667 -4.83301 -45.5 -20.5 -62.5s-36.167 -26.167 -61.5 -27.5z" />
    <glyph glyph-name="Zacute" unicode="&#x179;" horiz-adv-x="1221" 
d="M508 258l428 -6l-12 -246l-826 27v203l549 862h-647v338l1012 -15v-268l-504 -895v0zM515 1513l-66 86l246 207l94 -131z" />
    <glyph glyph-name="zacute" unicode="&#x17a;" horiz-adv-x="1221" 
d="M508 258l428 -6l-12 -246l-826 27v203l549 862h-647v338l1012 -15v-268l-504 -895v0zM515 1513l-66 86l246 207l94 -131z" />
    <glyph glyph-name="Zdotaccent" unicode="&#x17b;" horiz-adv-x="1221" 
d="M416 1633c0 15.333 3.16992 30.666 9.50293 45.999s15.166 28.833 26.499 40.5s25 21.167 41 28.5s34.333 11.333 55 12c22 0.666992 41.667 -2.83301 59 -10.5s31.833 -17.667 43.5 -30s20.167 -26.166 25.5 -41.499s7.66602 -30.333 6.99902 -45
c-1.33301 -16.667 -5.83301 -32 -13.5 -46s-17.667 -26 -30 -36s-26.5 -17.667 -42.5 -23s-32.333 -8 -49 -8s-32.667 2.66699 -48 8s-29.333 13 -42 23s-22.834 22 -30.501 36s-11.5 29.333 -11.5 46zM508.003 258l428 -6l-12 -246l-826 27v203l549 862h-647v338l1012 -15
v-268l-504 -895v0z" />
    <glyph glyph-name="zdotaccent" unicode="&#x17c;" horiz-adv-x="1221" 
d="M416 1633c0 15.333 3.16992 30.666 9.50293 45.999s15.166 28.833 26.499 40.5s25 21.167 41 28.5s34.333 11.333 55 12c22 0.666992 41.667 -2.83301 59 -10.5s31.833 -17.667 43.5 -30s20.167 -26.166 25.5 -41.499s7.66602 -30.333 6.99902 -45
c-1.33301 -16.667 -5.83301 -32 -13.5 -46s-17.667 -26 -30 -36s-26.5 -17.667 -42.5 -23s-32.333 -8 -49 -8s-32.667 2.66699 -48 8s-29.333 13 -42 23s-22.834 22 -30.501 36s-11.5 29.333 -11.5 46zM508.003 258l428 -6l-12 -246l-826 27v203l549 862h-647v338l1012 -15
v-268l-504 -895v0z" />
    <glyph glyph-name="Zcaron" unicode="&#x17d;" horiz-adv-x="1221" 
d="M936 252l-12 -246l-826 27v203l549 862h-647v338l1012 -15v-268l-504 -895zM672 1718l62 -51l-191 -213l-184 207l69 55l125 -137z" />
    <glyph glyph-name="zcaron" unicode="&#x17e;" horiz-adv-x="1221" 
d="M508 258l428 -6l-12 -246l-826 27v203l549 862h-647v338l1012 -15v-268l-504 -895v0zM688.811 1694.5l66.4053 -46.2559l-204.569 -193.188l-197.072 187.745l73.9014 49.8848l133.881 -124.257z" />
    <glyph glyph-name="circumflex" unicode="&#x2c6;" horiz-adv-x="371" 
d="M55 1272l-57 51l195 211l180 -211l-70 -53l-119 139z" />
    <glyph glyph-name="caron" unicode="&#x2c7;" horiz-adv-x="369" 
d="M307 1532l62 -51l-191 -213l-184 207l69 55l125 -137z" />
    <glyph glyph-name="breve" unicode="&#x2d8;" horiz-adv-x="487" 
d="M485 1518c-13.333 -46.667 -32.833 -86.333 -58.5 -119s-54.167 -57.667 -85.5 -75s-64 -27 -98 -29s-66.833 4 -98.5 18s-60.5 36 -86.5 66s-46 68.667 -60 116l98 37c34 -83.333 80.167 -124.333 138.5 -123s107.833 51.333 148.5 150z" />
    <glyph glyph-name="ring" unicode="&#x2da;" horiz-adv-x="311" 
d="M152 1565c22.667 0 43.667 -4 63 -12s36.166 -18.833 50.499 -32.5s25.5 -29.834 33.5 -48.501s12 -38.334 12 -59.001s-4 -39.834 -12 -57.501s-19.167 -33.167 -33.5 -46.5s-31.166 -23.833 -50.499 -31.5s-40.333 -11.5 -63 -11.5
c-20.667 0 -40.167 3.83301 -58.5 11.5s-34.5 18.167 -48.5 31.5s-25 28.833 -33 46.5s-12 36.834 -12 57.501s4 40.334 12 59.001s19 34.834 33 48.501s30.167 24.5 48.5 32.5s37.833 12 58.5 12zM152 1335c23.333 0 42.332 7 56.999 21s22 30.333 22 49
c0 20.667 -7.33301 37.5 -22 50.5s-33.667 19.5 -57 19.5c-19.333 0 -36.166 -6.5 -50.499 -19.5s-21.5 -29.833 -21.5 -50.5c0 -9.33301 2 -18.166 6 -26.499s9.16699 -15.833 15.5 -22.5s13.833 -11.834 22.5 -15.501s18 -5.5 28 -5.5z" />
    <glyph glyph-name="tilde" unicode="&#x2dc;" horiz-adv-x="496" 
d="M0 1434c4.66699 6.66699 12.833 16.8301 24.5 30.4971s25.5 27 41.5 40s33.667 24.5 53 34.5s39 15 59 15c26 0 45.833 -5.66699 59.5 -17s25.167 -23.666 34.5 -36.999l26 -37c8 -11.333 19.333 -17 34 -17c10 0 19.833 3.33301 29.5 10s18.167 14.334 25.5 23.001
c8.66699 10 17 21.333 25 34l84 -73c-6 -7.33301 -15 -17 -27 -29s-25.333 -23.667 -40 -35s-29.667 -21.166 -45 -29.499s-30 -12.166 -44 -11.499c-22.667 0 -40.667 4.5 -54 13.5s-25 19 -35 30s-20 21.167 -30 30.5s-22.333 14 -37 14s-27.667 -4.33301 -39 -13
s-21 -18.334 -29 -29.001c-9.33301 -12 -18 -26 -26 -42z" />
    <glyph glyph-name="afii10023" unicode="&#x401;" horiz-adv-x="1271" 
d="M369 1090l6 -472h438v-192h-430l4 -156l649 21l8 -273l-1026 -18l-18 1432h1161v-342h-792zM149 1688c0 20.667 4 40 12 58s18.667 33.5 32 46.5s28.833 23.167 46.5 30.5s36.5 11 56.5 11c20.667 0 40.167 -3.83301 58.5 -11.5s34.333 -18.167 48 -31.5
s24.334 -28.833 32.001 -46.5s11.5 -36.5 11.5 -56.5c0 -21.333 -3.83301 -41 -11.5 -59s-18.334 -33.5 -32.001 -46.5s-29.667 -23.167 -48 -30.5s-37.833 -11 -58.5 -11c-21.333 0 -41 3.66699 -59 11s-33.5 17.5 -46.5 30.5s-23.167 28.5 -30.5 46.5s-11 37.667 -11 59z
M693 1689c0 20.667 4 40 12 58s18.667 33.5 32 46.5s28.833 23.167 46.5 30.5s36.5 11 56.5 11c20.667 0 40.167 -3.83301 58.5 -11.5s34.333 -18.167 48 -31.5s24.334 -28.833 32.001 -46.5s11.5 -36.5 11.5 -56.5c0 -21.333 -3.83301 -41 -11.5 -59
s-18.334 -33.5 -32.001 -46.5s-29.667 -23.167 -48 -30.5s-37.833 -11 -58.5 -11c-21.333 0 -41 3.66699 -59 11s-33.5 17.5 -46.5 30.5s-23.167 28.5 -30.5 46.5s-11 37.667 -11 59z" />
    <glyph glyph-name="afii10017" unicode="&#x410;" 
d="M930 408h-445l-137 -408l-348 96l524 1338l289 -19l543 -1298l-271 -99zM852 582l-174 407l-135 -407h309z" />
    <glyph glyph-name="afii10018" unicode="&#x411;" horiz-adv-x="1181" 
d="M396 344c53.333 -2.66699 102.171 -2 146.504 2s82.666 12.333 114.999 25s57.666 30.667 75.999 54s28.5 53.333 30.5 90c1.33301 40 -5.83398 72.167 -21.501 96.5s-36.334 43 -62.001 56s-54 21.833 -85 26.5s-60.667 6.83398 -89 6.50098s-53.333 -1.83301 -75 -4.5
s-36.167 -4.33398 -43.5 -5.00098zM386.005 -11l-296 6.00098l-61 1v1h-30l15 1099l5 323l1026 -11l-8 -342l-649 13l-1 -192c41.333 -8 91 -13 149 -15c156 -14.667 246.333 -24.334 271 -29.001s45.167 -9.5 61.5 -14.5s32.5 -11 48.5 -18s32.333 -15.833 49 -26.5
c32 -19.333 59.167 -44.333 81.5 -75s40.333 -63 54 -97s22.5 -68.667 26.5 -104s3.66699 -67.666 -1 -96.999c-4 -41.333 -14.5 -81.166 -31.5 -119.499s-39.5 -73.333 -67.5 -105s-60.667 -59.334 -98 -83.001s-77 -41.5 -119 -53.5
c-42.667 -12.667 -82.5 -22.667 -119.5 -30s-71.667 -13 -104 -17s-62.333 -6.83301 -90 -8.5s-53.5 -2.83398 -77.5 -3.50098l-34 1v-3z" />
    <glyph glyph-name="afii10019" unicode="&#x412;" horiz-adv-x="1229" 
d="M396 344c53.333 -2.66699 102.171 -2 146.504 2s82.666 12.333 114.999 25s57.666 30.667 75.999 54s28.5 53.333 30.5 90c1.33301 40 -5.83398 72.167 -21.501 96.5s-36.334 43 -62.001 56s-54 21.833 -85 26.5s-60.667 6.83398 -89 6.50098s-53.333 -1.83301 -75 -4.5
s-36.167 -4.33398 -43.5 -5.00098zM392.005 978c26 -2 55 -3.16699 87 -3.5s62.5 3.33398 91.5 11.001s53.5 20.667 73.5 39s31.333 45.5 34 81.5c2 25.333 -2.5 46 -13.5 62s-25.667 28.667 -44 38s-39 15.5 -62 18.5s-45.667 4.66699 -68 5s-43 -0.333984 -62 -2.00098
s-33.5 -3.16699 -43.5 -4.5zM1127 411c-4 -41.333 -14.4971 -81.166 -31.4971 -119.499s-39.5 -73.333 -67.5 -105s-60.667 -59.334 -98 -83.001s-77 -41.5 -119 -53.5c-42.667 -12.667 -82.5 -22.667 -119.5 -30s-71.667 -13 -104 -17s-62.333 -6.83301 -90 -8.5
s-53.5 -2.83398 -77.5 -3.50098l-391 5l-19 1423l371 15c29.333 0.666992 65 0.666992 107 0s85.5 -4.16699 130.5 -10.5s88.667 -17 131 -32s78.5 -36.5 108.5 -64.5c18 -16.667 33.167 -36 45.5 -58s21.666 -44.667 27.999 -68s10 -46.666 11 -69.999
s-1.16699 -45 -6.5 -65c-10 -46 -29.333 -85.333 -58 -118s-67.334 -64.334 -116.001 -95.001c20 -3.33301 38.667 -7 56 -11s34.166 -8.5 50.499 -13.5s32.5 -11 48.5 -18s32.333 -15.833 49 -26.5c32 -19.333 59.167 -44.333 81.5 -75s40.333 -63 54 -97
s22.5 -68.667 26.5 -104s3.66699 -67.666 -1 -96.999z" />
    <glyph glyph-name="afii10020" unicode="&#x413;" horiz-adv-x="1051" 
d="M387 0l-387 8l20 1436l909 -22l-8 -342l-532 10z" />
    <glyph glyph-name="afii10021" unicode="&#x414;" horiz-adv-x="1997" 
d="M1297 248l-310 741l-237 -737zM337 1l-56 -161l-286 3l84 412l140 1h31l128 -1l455 1179l289 -19l483 -1165l127 4h31l133 1l68 -421l-250 2l-65 168z" />
    <glyph glyph-name="afii10022" unicode="&#x415;" horiz-adv-x="1271" 
d="M369 1090l6 -472h438v-192h-430l4 -156l649 21l8 -273l-1026 -18l-18 1432h1161v-342h-792z" />
    <glyph glyph-name="afii10024" unicode="&#x416;" horiz-adv-x="1936" 
d="M1331 671l471 -465l-195 -195l-421 479l15 -299l15 -180l-6 -1l-389 -20l-4 184l-17 297l-368 -522l-214 174l420 510l-563 473l229 259l472 -453l-27 500v2l264 13l126 7l25 -501l423 500l254 -234z" />
    <glyph glyph-name="afii10025" unicode="&#x417;" horiz-adv-x="1224" 
d="M204 402c79.333 -69.333 148.331 -114.004 206.998 -134.004s107.667 -14.333 147 17c16 16 22.667 33.833 20 53.5s-12.167 41.667 -28.5 66s-40 47.333 -71 69s-60.167 36.667 -87.5 45s-57.333 16.166 -90 23.499s-68.667 14 -108 20
c-0.666992 54.667 0.333008 113 3 175c170.667 -36 292 -45.667 364 -29c41.333 23.333 74 46.666 98 69.999c24.667 24 44.667 50.167 60 78.5s23 60.833 23 97.5c-2.66699 42.667 -14.167 76.5 -34.5 101.5s-46 42.333 -77 52s-65.667 12.834 -104 9.50098
s-77.333 -12.166 -117 -26.499s-78.334 -33.166 -116.001 -56.499s-71.167 -50 -100.5 -80l-196 334c38.667 30 78.334 55 119.001 75s83.167 36.167 127.5 48.5s91.5 21.166 141.5 26.499s104 8 162 8c68 0 133.167 -8.33301 195.5 -25s118.666 -40.167 168.999 -70.5
s93.333 -67.166 129 -110.499s61.167 -92 76.5 -146c9.33301 -42.667 12 -82.5 8 -119.5s-12 -71 -24 -102s-26.667 -58.833 -44 -83.5s-34.166 -46 -50.499 -64s-30.833 -32.333 -43.5 -43s-76.667 -57.667 -192 -141c16.667 -17.333 32 -35.666 46 -54.999
c22.667 -31.333 39.834 -66.666 51.501 -105.999s15.167 -84.666 10.5 -135.999c-4.66699 -49.333 -18.667 -91.166 -42 -125.499s-52.333 -61.833 -87 -82.5s-73.5 -35 -116.5 -43s-86.833 -10.333 -131.5 -7c-27.333 2 -54.333 5.66699 -81 11s-52.667 12 -78 20
s-49.666 16.667 -72.999 26s-45 18.666 -65 27.999c-47.333 22 -92.333 47 -135 75l68 127l25 47l21.5 41l15 29c3.66699 7.33301 5.5 11.333 5.5 12z" />
    <glyph glyph-name="afii10026" unicode="&#x418;" horiz-adv-x="1345" 
d="M385 0h-385v1434h291l83 -900l513 885l330 13l22 -1393l-270 -21l-59 932z" />
    <glyph glyph-name="afii10027" unicode="&#x419;" horiz-adv-x="1345" 
d="M385 0h-385v1434h291l83 -900l513 885l330 13l22 -1393l-270 -21l-59 932zM833 1818l109 -78l-337 -324l-326 314l122 84l221 -207z" />
    <glyph glyph-name="afii10028" unicode="&#x41a;" horiz-adv-x="1185" 
d="M582 680l471 -465l-195 -195l-432 492l41 -492l-389 -20l-78 1423l389 19l21 -506l428 506l254 -234z" />
    <glyph glyph-name="afii10029" unicode="&#x41b;" horiz-adv-x="1578" 
d="M1115 -2l-377 997l-401 -971l-289 95l573 1321l320 20l588 -1360z" />
    <glyph glyph-name="afii10030" unicode="&#x41c;" horiz-adv-x="1575" 
d="M782 393l398 1000l270 8l23 -1362l-322 -4l-4 739l-324 -782l-145 16l-313 684l22 -690h-364l-19 1430h307z" />
    <glyph glyph-name="afii10031" unicode="&#x41d;" horiz-adv-x="1558" 
d="M1413 1430l43 -1397l-332 -15l-12 404l-682 -14v-408h-428l-2 1399h428v-758l674 18l-27 758z" />
    <glyph glyph-name="afii10032" unicode="&#x41e;" horiz-adv-x="1596" 
d="M743 1460c72.667 0 142 -8.83398 208 -26.501s127.167 -42.5 183.5 -74.5s107.5 -70.667 153.5 -116s85.167 -95.333 117.5 -150s57.333 -113.667 75 -177s26.5 -129 26.5 -197c0 -67.333 -8.83301 -132.166 -26.5 -194.499s-42.667 -120.5 -75 -174.5
s-71.5 -103.167 -117.5 -147.5s-97.167 -82.166 -153.5 -113.499s-117.5 -55.666 -183.5 -72.999s-135.333 -26 -208 -26c-68.667 0 -134.834 8.66699 -198.501 26s-123 41.666 -178 72.999s-105 69.166 -150 113.499s-83.5 93.5 -115.5 147.5s-56.833 112 -74.5 174
s-26.5 127 -26.5 195s8.83301 133.667 26.5 197s42.5 122.333 74.5 177s70.5 104.667 115.5 150s95 84 150 116s114.333 56.833 178 74.5s129.834 26.5 198.501 26.5zM743 275.999c62 0 119.333 11 172 33s98.167 51.5 136.5 88.5s68.333 79.667 90 128
s32.5 99.166 32.5 152.499c0 58.667 -10.833 112.5 -32.5 161.5s-51.667 91 -90 126s-83.833 62.333 -136.5 82s-110 29.5 -172 29.5c-56.667 0 -109.834 -9.83301 -159.501 -29.5s-93 -47 -130 -82s-66.167 -77 -87.5 -126s-32 -102.833 -32 -161.5
c0 -53.333 10.667 -104.166 32 -152.499s50.5 -91 87.5 -128s80.333 -66.5 130 -88.5s102.834 -33 159.501 -33z" />
    <glyph glyph-name="afii10033" unicode="&#x41f;" horiz-adv-x="1558" 
d="M1413 1430l43 -1397l-332 -15l-41 1131l-660 -15l7 -1134h-428l-2 1399z" />
    <glyph glyph-name="afii10034" unicode="&#x420;" horiz-adv-x="1215" 
d="M1116 1038c0 -29.333 -0.496094 -57.666 -1.49609 -84.999s-4.5 -53.666 -10.5 -78.999s-15.667 -50.333 -29 -75s-32.333 -49.334 -57 -74.001c-22.667 -26.667 -50.334 -49 -83.001 -67s-67.5 -32.833 -104.5 -44.5s-75.5 -20.667 -115.5 -27s-78.5 -11 -115.5 -14
s-71.833 -4.66699 -104.5 -5s-60.334 -0.5 -83.001 -0.5v-547l-373 -20l-39 1430l391 20c24.667 0 51.667 -0.166992 81 -0.5s61.166 -1.83301 95.499 -4.5s71.166 -6.83398 110.499 -12.501s81 -13.5 125 -23.5s85 -26.667 123 -50s71.167 -51.5 99.5 -84.5
s50.5 -69.667 66.5 -110s24 -82.5 24 -126.5zM399.004 770c8 0 23.5 -0.666016 46.5 -1.99902s49.167 -1.66602 78.5 -0.999023s60 3.66699 92 9s60.833 15 86.5 29s46.167 33.5 61.5 58.5s21.333 57.5 18 97.5c-3.33301 38.667 -14.5 70.5 -33.5 95.5
s-45.167 44.167 -78.5 57.5s-73.5 21.666 -120.5 24.999s-99.833 2.66602 -158.5 -2.00098z" />
    <glyph glyph-name="afii10035" unicode="&#x421;" horiz-adv-x="1351" 
d="M1185 86c-24 -19.333 -52.167 -35.334 -84.5 -48.001s-66.5 -22.5 -102.5 -29.5s-72.5 -11.833 -109.5 -14.5s-72.167 -4 -105.5 -4c-64 0 -127.5 7.66699 -190.5 23s-123 37.333 -180 66s-109.833 63.167 -158.5 103.5s-90.834 85.333 -126.501 135
s-63.667 103.5 -84 161.5s-30.5 119 -30.5 183c-3.33301 70.667 2 139.167 16 205.5s36 128.666 66 186.999s67.833 111.666 113.5 159.999s99 90 160 125s129.167 62.167 204.5 81.5s157.666 29 246.999 29c58 0 112.833 -4.16699 164.5 -12.5s97.334 -18 137.001 -29
s71.834 -21.667 96.501 -32s39.334 -17.833 44.001 -22.5v-365c-14 9.33301 -34.833 19.5 -62.5 30.5s-59.5 20.667 -95.5 29s-75.167 14.333 -117.5 18s-84.833 3.16699 -127.5 -1.5c-26 0 -56.167 -3.33301 -90.5 -10s-69.5 -17.5 -105.5 -32.5
s-70.833 -34.333 -104.5 -58s-62.667 -52.667 -87 -87s-41.833 -74.166 -52.5 -119.499s-11.334 -96.666 -2.00098 -153.999c9.33301 -48 30 -90.167 62 -126.5s70.5 -66.833 115.5 -91.5s94.5 -43.167 148.5 -55.5s107.833 -19 161.5 -20s105 3.83301 154 14.5
s91.167 27.334 126.5 50.001v-289z" />
    <glyph glyph-name="afii10036" unicode="&#x422;" horiz-adv-x="1377" 
d="M797 1126l18 -1112l-369 -14l-20 1114l-416 -20l-10 303l1260 39l10 -291z" />
    <glyph glyph-name="afii10037" unicode="&#x423;" horiz-adv-x="1532" 
d="M1479 1358l-588 -1360l-320 20l166 577l-739 744l289 95l556 -566l222 592z" />
    <glyph glyph-name="afii10038" unicode="&#x424;" horiz-adv-x="1596" 
d="M852 -277l-275.003 27v266c-89.333 19.333 -159.666 43.666 -210.999 72.999c-54.667 31.333 -104.5 69.166 -149.5 113.499s-83.5 93.5 -115.5 147.5s-56.833 112 -74.5 174s-26.5 127 -26.5 195s8.83301 133.667 26.5 197s42.5 122.333 74.5 177
s70.5 104.667 115.5 150s95 84 150 116s114.333 56.833 178 74.5s129.834 26.5 198.501 26.5c72.667 0 142 -8.83301 208 -26.5s127.167 -42.5 183.5 -74.5s107.5 -70.667 153.5 -116s85.167 -95.333 117.5 -150s57.333 -113.667 75 -177s26.5 -129 26.5 -197
c0 -67.333 -8.83301 -132.166 -26.5 -194.499s-42.667 -120.5 -75 -174.5s-71.5 -103.167 -117.5 -147.5s-97.167 -82.166 -153.5 -113.499s-117.5 -55.666 -183.5 -72.999c-9.33301 -2.66699 -40.666 -6.33398 -93.999 -11.001zM452.997 965
c-36.667 -34.667 -65.667 -76.502 -87 -125.502s-32 -102.833 -32 -161.5c0 -53.333 10.667 -104.166 32 -152.499s50.333 -91.166 87 -128.499c26.667 -26.667 68 -53.667 124 -81l27 739c-66 -27.333 -116.333 -57.333 -151 -90zM1051 396.998
c38.667 37.333 68.832 80.168 90.499 128.501s32.5 99.166 32.5 152.499c0 58.667 -10.833 112.5 -32.5 161.5s-51.834 90.833 -90.501 125.5c-25.333 23.333 -85.666 54.333 -180.999 93l-13 -742c96.667 22 161.334 49 194.001 81z" />
    <glyph glyph-name="afii10039" unicode="&#x425;" horiz-adv-x="1469" 
d="M1065 -6l-401 465l-410 -451l-242 246l439 463l-422 467l282 252l391 -459l355 407l198 -184l-383 -434l482 -535z" />
    <glyph glyph-name="afii10040" unicode="&#x426;" horiz-adv-x="1521" 
d="M385 0h-385v1434h291l73 -1189l592 32l-69 1142l330 13l18 -1128h31l226 -2l-2 -463l-232 1l1 172l-52 1h-1z" />
    <glyph glyph-name="afii10041" unicode="&#x427;" horiz-adv-x="1230" 
d="M137 721c-26 26.667 -46.3359 52.498 -61.0029 77.498s-25.5 50.167 -32.5 75.5s-11 51 -12 77s-0.5 53.667 1.5 83l59 392l336 -2l-51 -456c-2.66699 -19.333 -4.5 -35.333 -5.5 -48s-1 -23.667 0 -33s2.83301 -18.333 5.5 -27s6.33398 -18.667 11.001 -30
c15.333 -24 35 -42.667 59 -56s51 -24 81 -32c38.667 -1.33301 77.334 -2.16602 116.001 -2.49902s77.334 -1.16602 116.001 -2.49902v707l391 -21l-39 -1423l-371 20l11 521l-164 13c-102 19.333 -168.5 32.5 -199.5 39.5s-61.5 16.333 -91.5 28s-58.833 25.667 -86.5 42
s-52.167 35.5 -73.5 57.5z" />
    <glyph glyph-name="afii10042" unicode="&#x428;" horiz-adv-x="1714" 
d="M385 0h-385v1434h291l73 -1184l358 7l-7 1177l255 -4l73 -1164l313 11l-69 1142l330 13l18 -1128l6 -293z" />
    <glyph glyph-name="afii10043" unicode="&#x429;" horiz-adv-x="1926" 
d="M385 0h-385v1434h291l79 -1189l352 12l-7 1177l255 -4l73 -1164l313 11l-69 1142l330 13l18 -1128h31l226 -2l-2 -463l-232 1l1 172l-52 1h-1z" />
    <glyph glyph-name="afii10044" unicode="&#x42a;" horiz-adv-x="1616" 
d="M1512 427c1.33301 -44 -5.50098 -86.5 -20.501 -127.5s-36.333 -78.333 -64 -112s-60.167 -62.5 -97.5 -86.5s-78 -41.667 -122 -53c-43.333 -10.667 -84.5 -19.334 -123.5 -26.001s-75.833 -11.667 -110.5 -15s-66.667 -5.5 -96 -6.5s-56.333 -2.16699 -81 -3.5l-391 11
l3 1087l-4 46l-172 1l-1 -172l-232 2l4 475l406 -8l374 -11l13 -547c22.667 0.666992 50.334 1.16699 83.001 1.5s67.667 -0.5 105 -2.5s76 -5.66699 116 -11s78.667 -13.5 116 -24.5s72.5 -25 105.5 -42s61.167 -38.833 84.5 -65.5c25.333 -24 45 -48.167 59 -72.5
s24.333 -49 31 -74s10.667 -51.167 12 -78.5s2.33301 -55.666 3 -84.999zM789.999 311c58.667 -3.33301 111.333 -2.83398 158 1.49902s86.5 13.5 119.5 27.5s58.833 33.833 77.5 59.5s29 57.834 31 96.501c2.66699 40 -4 72.333 -20 97s-37 43.667 -63 57
s-55 22.333 -87 27s-62.667 7 -92 7s-55.5 -1 -78.5 -3s-38.5 -3 -46.5 -3z" />
    <glyph glyph-name="afii10045" unicode="&#x42b;" horiz-adv-x="1656" 
d="M1597 1415l-393 21l-59 -1434l393 -20zM389 311c58.667 -3.33301 111.333 -2.83398 158 1.49902s86.5 13.5 119.5 27.5s58.833 33.833 77.5 59.5s29 57.834 31 96.501c2.66699 40 -4 72.333 -20 97s-37 43.667 -63 57s-55 22.333 -87 27s-62.667 7 -92 7
s-55.5 -1 -78.5 -3s-38.5 -3 -46.5 -3zM1111 426.999c1.33301 -44 -5.50098 -86.5 -20.501 -127.5s-36.333 -78.333 -64 -112s-60.167 -62.5 -97.5 -86.5s-78 -41.667 -122 -53c-43.333 -10.667 -84.5 -19.334 -123.5 -26.001s-75.833 -11.667 -110.5 -15
s-66.667 -5.5 -96 -6.5s-56.333 -2.16699 -81 -3.5l-391 11l4 1431l374 -11l13 -547c22.667 0.666992 50.334 1.16699 83.001 1.5s67.667 -0.5 105 -2.5s76 -5.66699 116 -11s78.667 -13.5 116 -24.5s72.5 -25 105.5 -42s61.167 -38.833 84.5 -65.5
c25.333 -24 45 -48.167 59 -72.5s24.333 -49 31 -74s10.667 -51.167 12 -78.5s2.33301 -55.666 3 -84.999z" />
    <glyph glyph-name="afii10046" unicode="&#x42c;" horiz-adv-x="1215" 
d="M389 311c58.667 -3.33301 111.333 -2.83398 158 1.49902s86.5 13.5 119.5 27.5s58.833 33.833 77.5 59.5s29 57.834 31 96.501c2.66699 40 -4 72.333 -20 97s-37 43.667 -63 57s-55 22.333 -87 27s-62.667 7 -92 7s-55.5 -1 -78.5 -3s-38.5 -3 -46.5 -3zM1111 426.999
c1.33301 -44 -5.50098 -86.5 -20.501 -127.5s-36.333 -78.333 -64 -112s-60.167 -62.5 -97.5 -86.5s-78 -41.667 -122 -53c-43.333 -10.667 -84.5 -19.334 -123.5 -26.001s-75.833 -11.667 -110.5 -15s-66.667 -5.5 -96 -6.5s-56.333 -2.16699 -81 -3.5l-391 11l4 1431
l374 -11l13 -547c22.667 0.666992 50.334 1.16699 83.001 1.5s67.667 -0.5 105 -2.5s76 -5.66699 116 -11s78.667 -13.5 116 -24.5s72.5 -25 105.5 -42s61.167 -38.833 84.5 -65.5c25.333 -24 45 -48.167 59 -72.5s24.333 -49 31 -74s10.667 -51.167 12 -78.5
s2.33301 -55.666 3 -84.999z" />
    <glyph glyph-name="afii10047" unicode="&#x42d;" horiz-adv-x="1351" 
d="M150 375c35.333 -22.667 77.498 -39.333 126.498 -50s100.333 -15.5 154 -14.5s107.5 7.66699 161.5 20s103.333 30.833 148 55.5c46.667 10 105.334 56.333 176.001 139l-438 1v192l445 -3c2 -0.666992 -0.333008 13.666 -7 42.999
c-10.667 45.333 -28.167 85.166 -52.5 119.499s-53.333 63.333 -87 87s-68.5 43 -104.5 58s-71.167 25.833 -105.5 32.5s-64.5 10 -90.5 10c-42.667 4.66699 -85.167 5.16699 -127.5 1.5s-81.5 -9.66699 -117.5 -18s-67.833 -18 -95.5 -29s-48.5 -21.167 -62.5 -30.5v365
c4.66699 4.66699 19.334 12.167 44.001 22.5s56.834 21 96.501 32s85.334 20.667 137.001 29s106.5 12.5 164.5 12.5c89.333 0 171.666 -9.66699 246.999 -29s143.5 -46.5 204.5 -81.5s114.333 -76.667 160 -125s83.5 -101.666 113.5 -159.999s52 -120.666 66 -186.999
s19.333 -134.833 16 -205.5c0 -64 -10.167 -125 -30.5 -183s-48.333 -111.833 -84 -161.5s-77.834 -94.667 -126.501 -135s-101.5 -74.833 -158.5 -103.5s-117 -50.667 -180 -66s-126.5 -23 -190.5 -23c-33.333 0 -68.5 1.33301 -105.5 4s-73.5 7.5 -109.5 14.5
s-70.167 16.833 -102.5 29.5s-60.5 28.667 -84.5 48v289z" />
    <glyph glyph-name="afii10048" unicode="&#x42e;" horiz-adv-x="2198" 
d="M1345 276c62 0 119.333 11 172 33s98.167 51.5 136.5 88.5s68.333 79.667 90 128s32.5 99.166 32.5 152.499c0 58.667 -10.833 112.5 -32.5 161.5s-51.667 91 -90 126s-83.833 62.333 -136.5 82s-110 29.5 -172 29.5c-56.667 0 -109.834 -9.83301 -159.501 -29.5
s-93 -47 -130 -82s-66.167 -77 -87.5 -126s-32 -102.833 -32 -161.5c0 -53.333 10.667 -104.166 32 -152.499s50.5 -91 87.5 -128s80.333 -66.5 130 -88.5s102.834 -33 159.501 -33zM396 -2l-387 7.99902l20 1436l377 -11l-8 -711l204 -2v1c0 68 8.83301 133.667 26.5 197
s42.5 122.333 74.5 177s70.5 104.667 115.5 150s95 84 150 116s114.333 56.833 178 74.5s129.834 26.5 198.501 26.5c72.667 0 142 -8.83301 208 -26.5s127.167 -42.5 183.5 -74.5s107.5 -70.667 153.5 -116s85.167 -95.333 117.5 -150s57.333 -113.667 75 -177
s26.5 -129 26.5 -197c0 -67.333 -8.83301 -132.166 -26.5 -194.499s-42.667 -120.5 -75 -174.5s-71.5 -103.167 -117.5 -147.5s-97.167 -82.166 -153.5 -113.499s-117.5 -55.666 -183.5 -72.999s-135.333 -26 -208 -26c-68.667 0 -134.834 8.66699 -198.501 26
s-123 41.666 -178 72.999s-105 69.166 -150 113.499s-83.5 93.5 -115.5 147.5s-57 112 -75 174v2l-230 6z" />
    <glyph glyph-name="afii10049" unicode="&#x42f;" horiz-adv-x="1230" 
d="M371 938c-3.33301 -42.667 2.5 -77.001 17.5 -103.001s35.333 -46.333 61 -61s54.5 -24.667 86.5 -30s63 -8.16602 93 -8.49902s57 0.5 81 2.5s40.667 3 50 3v373c-58.667 4.66699 -111 5.5 -157 2.5s-85.5 -11.333 -118.5 -25s-59 -33 -78 -58
s-30.833 -56.833 -35.5 -95.5zM137 720.999c-26 26.667 -46.333 52.501 -61 77.501s-25.5 50.167 -32.5 75.5s-11 51 -12 77s-0.5 53.667 1.5 83c3.33301 44 14.333 86.5 33 127.5s42.5 78 71.5 111s61.833 61.167 98.5 84.5s74.667 39.333 114 48
c88.667 19.333 167.167 30.666 235.5 33.999s126.5 5 174.5 5l391 -21l-39 -1423l-371 20l11 521l-459 -521l-195 175l379 383c-28 3.33301 -57.5 8.5 -88.5 15.5s-61.5 16.333 -91.5 28s-58.833 25.667 -86.5 42s-52.167 35.5 -73.5 57.5z" />
    <glyph glyph-name="afii10065" unicode="&#x430;" 
d="M930 408h-445l-137 -408l-348 96l524 1338l289 -19l543 -1298l-271 -99zM852 582l-174 407l-135 -407h309z" />
    <glyph glyph-name="afii10066" unicode="&#x431;" horiz-adv-x="1181" 
d="M396 344c53.333 -2.66699 102.171 -2 146.504 2s82.666 12.333 114.999 25s57.666 30.667 75.999 54s28.5 53.333 30.5 90c1.33301 40 -5.83398 72.167 -21.501 96.5s-36.334 43 -62.001 56s-54 21.833 -85 26.5s-60.667 6.83398 -89 6.50098s-53.333 -1.83301 -75 -4.5
s-36.167 -4.33398 -43.5 -5.00098zM386.005 -11l-296 6.00098l-61 1v1h-30l15 1099l5 323l1026 -11l-8 -342l-649 13l-1 -192c41.333 -8 91 -13 149 -15c156 -14.667 246.333 -24.334 271 -29.001s45.167 -9.5 61.5 -14.5s32.5 -11 48.5 -18s32.333 -15.833 49 -26.5
c32 -19.333 59.167 -44.333 81.5 -75s40.333 -63 54 -97s22.5 -68.667 26.5 -104s3.66699 -67.666 -1 -96.999c-4 -41.333 -14.5 -81.166 -31.5 -119.499s-39.5 -73.333 -67.5 -105s-60.667 -59.334 -98 -83.001s-77 -41.5 -119 -53.5
c-42.667 -12.667 -82.5 -22.667 -119.5 -30s-71.667 -13 -104 -17s-62.333 -6.83301 -90 -8.5s-53.5 -2.83398 -77.5 -3.50098l-34 1v-3z" />
    <glyph glyph-name="afii10067" unicode="&#x432;" horiz-adv-x="1229" 
d="M396 344c53.333 -2.66699 102.171 -2 146.504 2s82.666 12.333 114.999 25s57.666 30.667 75.999 54s28.5 53.333 30.5 90c1.33301 40 -5.83398 72.167 -21.501 96.5s-36.334 43 -62.001 56s-54 21.833 -85 26.5s-60.667 6.83398 -89 6.50098s-53.333 -1.83301 -75 -4.5
s-36.167 -4.33398 -43.5 -5.00098zM392.005 978c26 -2 55 -3.16699 87 -3.5s62.5 3.33398 91.5 11.001s53.5 20.667 73.5 39s31.333 45.5 34 81.5c2 25.333 -2.5 46 -13.5 62s-25.667 28.667 -44 38s-39 15.5 -62 18.5s-45.667 4.66699 -68 5s-43 -0.333984 -62 -2.00098
s-33.5 -3.16699 -43.5 -4.5zM1127 411c-4 -41.333 -14.4971 -81.166 -31.4971 -119.499s-39.5 -73.333 -67.5 -105s-60.667 -59.334 -98 -83.001s-77 -41.5 -119 -53.5c-42.667 -12.667 -82.5 -22.667 -119.5 -30s-71.667 -13 -104 -17s-62.333 -6.83301 -90 -8.5
s-53.5 -2.83398 -77.5 -3.50098l-391 5l-19 1423l371 15c29.333 0.666992 65 0.666992 107 0s85.5 -4.16699 130.5 -10.5s88.667 -17 131 -32s78.5 -36.5 108.5 -64.5c18 -16.667 33.167 -36 45.5 -58s21.666 -44.667 27.999 -68s10 -46.666 11 -69.999
s-1.16699 -45 -6.5 -65c-10 -46 -29.333 -85.333 -58 -118s-67.334 -64.334 -116.001 -95.001c20 -3.33301 38.667 -7 56 -11s34.166 -8.5 50.499 -13.5s32.5 -11 48.5 -18s32.333 -15.833 49 -26.5c32 -19.333 59.167 -44.333 81.5 -75s40.333 -63 54 -97
s22.5 -68.667 26.5 -104s3.66699 -67.666 -1 -96.999z" />
    <glyph glyph-name="afii10068" unicode="&#x433;" horiz-adv-x="1051" 
d="M387 0l-387 8l20 1436l909 -22l-8 -342l-532 10z" />
    <glyph glyph-name="afii10069" unicode="&#x434;" horiz-adv-x="1997" 
d="M1297 248l-310 741l-237 -737zM337 1l-56 -161l-286 3l84 412l140 1h31l128 -1l455 1179l289 -19l483 -1165l127 4h31l133 1l68 -421l-250 2l-65 168z" />
    <glyph glyph-name="afii10070" unicode="&#x435;" horiz-adv-x="1271" 
d="M369 1090l6 -472h438v-192h-430l4 -156l649 21l8 -273l-1026 -18l-18 1432h1161v-342h-792z" />
    <glyph glyph-name="afii10072" unicode="&#x436;" horiz-adv-x="1936" 
d="M1331 671l471 -465l-195 -195l-421 479l15 -299l15 -180l-6 -1l-389 -20l-4 184l-17 297l-368 -522l-214 174l420 510l-563 473l229 259l472 -453l-27 500v2l264 13l126 7l25 -501l423 500l254 -234z" />
    <glyph glyph-name="afii10073" unicode="&#x437;" horiz-adv-x="1224" 
d="M204 402c79.333 -69.333 148.331 -114.004 206.998 -134.004s107.667 -14.333 147 17c16 16 22.667 33.833 20 53.5s-12.167 41.667 -28.5 66s-40 47.333 -71 69s-60.167 36.667 -87.5 45s-57.333 16.166 -90 23.499s-68.667 14 -108 20
c-0.666992 54.667 0.333008 113 3 175c170.667 -36 292 -45.667 364 -29c41.333 23.333 74 46.666 98 69.999c24.667 24 44.667 50.167 60 78.5s23 60.833 23 97.5c-2.66699 42.667 -14.167 76.5 -34.5 101.5s-46 42.333 -77 52s-65.667 12.834 -104 9.50098
s-77.333 -12.166 -117 -26.499s-78.334 -33.166 -116.001 -56.499s-71.167 -50 -100.5 -80l-196 334c38.667 30 78.334 55 119.001 75s83.167 36.167 127.5 48.5s91.5 21.166 141.5 26.499s104 8 162 8c68 0 133.167 -8.33301 195.5 -25s118.666 -40.167 168.999 -70.5
s93.333 -67.166 129 -110.499s61.167 -92 76.5 -146c9.33301 -42.667 12 -82.5 8 -119.5s-12 -71 -24 -102s-26.667 -58.833 -44 -83.5s-34.166 -46 -50.499 -64s-30.833 -32.333 -43.5 -43s-76.667 -57.667 -192 -141c16.667 -17.333 32 -35.666 46 -54.999
c22.667 -31.333 39.834 -66.666 51.501 -105.999s15.167 -84.666 10.5 -135.999c-4.66699 -49.333 -18.667 -91.166 -42 -125.499s-52.333 -61.833 -87 -82.5s-73.5 -35 -116.5 -43s-86.833 -10.333 -131.5 -7c-27.333 2 -54.333 5.66699 -81 11s-52.667 12 -78 20
s-49.666 16.667 -72.999 26s-45 18.666 -65 27.999c-47.333 22 -92.333 47 -135 75l68 127l25 47l21.5 41l15 29c3.66699 7.33301 5.5 11.333 5.5 12z" />
    <glyph glyph-name="afii10074" unicode="&#x438;" horiz-adv-x="1345" 
d="M385 0h-385v1434h291l83 -900l513 885l330 13l22 -1393l-270 -21l-59 932z" />
    <glyph glyph-name="afii10075" unicode="&#x439;" horiz-adv-x="1345" 
d="M385 0h-385v1434h291l83 -900l513 885l330 13l22 -1393l-270 -21l-59 932zM833 1818l109 -78l-337 -324l-326 314l122 84l221 -207z" />
    <glyph glyph-name="afii10076" unicode="&#x43a;" horiz-adv-x="1185" 
d="M582 680l471 -465l-195 -195l-432 492l41 -492l-389 -20l-78 1423l389 19l21 -506l428 506l254 -234z" />
    <glyph glyph-name="afii10077" unicode="&#x43b;" horiz-adv-x="1578" 
d="M1115 -2l-377 997l-401 -971l-289 95l573 1321l320 20l588 -1360z" />
    <glyph glyph-name="afii10078" unicode="&#x43c;" horiz-adv-x="1575" 
d="M782 393l398 1000l270 8l23 -1362l-322 -4l-4 739l-324 -782l-145 16l-313 684l22 -690h-364l-19 1430h307z" />
    <glyph glyph-name="afii10079" unicode="&#x43d;" horiz-adv-x="1558" 
d="M1413 1430l43 -1397l-332 -15l-12 404l-682 -14v-408h-428l-2 1399h428v-758l674 18l-27 758z" />
    <glyph glyph-name="afii10080" unicode="&#x43e;" horiz-adv-x="1596" 
d="M743 1460c72.667 0 142 -8.83398 208 -26.501s127.167 -42.5 183.5 -74.5s107.5 -70.667 153.5 -116s85.167 -95.333 117.5 -150s57.333 -113.667 75 -177s26.5 -129 26.5 -197c0 -67.333 -8.83301 -132.166 -26.5 -194.499s-42.667 -120.5 -75 -174.5
s-71.5 -103.167 -117.5 -147.5s-97.167 -82.166 -153.5 -113.499s-117.5 -55.666 -183.5 -72.999s-135.333 -26 -208 -26c-68.667 0 -134.834 8.66699 -198.501 26s-123 41.666 -178 72.999s-105 69.166 -150 113.499s-83.5 93.5 -115.5 147.5s-56.833 112 -74.5 174
s-26.5 127 -26.5 195s8.83301 133.667 26.5 197s42.5 122.333 74.5 177s70.5 104.667 115.5 150s95 84 150 116s114.333 56.833 178 74.5s129.834 26.5 198.501 26.5zM743 275.999c62 0 119.333 11 172 33s98.167 51.5 136.5 88.5s68.333 79.667 90 128
s32.5 99.166 32.5 152.499c0 58.667 -10.833 112.5 -32.5 161.5s-51.667 91 -90 126s-83.833 62.333 -136.5 82s-110 29.5 -172 29.5c-56.667 0 -109.834 -9.83301 -159.501 -29.5s-93 -47 -130 -82s-66.167 -77 -87.5 -126s-32 -102.833 -32 -161.5
c0 -53.333 10.667 -104.166 32 -152.499s50.5 -91 87.5 -128s80.333 -66.5 130 -88.5s102.834 -33 159.501 -33z" />
    <glyph glyph-name="afii10081" unicode="&#x43f;" horiz-adv-x="1558" 
d="M1413 1430l43 -1397l-332 -15l-41 1131l-660 -15l7 -1134h-428l-2 1399z" />
    <glyph glyph-name="afii10082" unicode="&#x440;" horiz-adv-x="1215" 
d="M1116 1038c0 -29.333 -0.496094 -57.666 -1.49609 -84.999s-4.5 -53.666 -10.5 -78.999s-15.667 -50.333 -29 -75s-32.333 -49.334 -57 -74.001c-22.667 -26.667 -50.334 -49 -83.001 -67s-67.5 -32.833 -104.5 -44.5s-75.5 -20.667 -115.5 -27s-78.5 -11 -115.5 -14
s-71.833 -4.66699 -104.5 -5s-60.334 -0.5 -83.001 -0.5v-547l-373 -20l-39 1430l391 20c24.667 0 51.667 -0.166992 81 -0.5s61.166 -1.83301 95.499 -4.5s71.166 -6.83398 110.499 -12.501s81 -13.5 125 -23.5s85 -26.667 123 -50s71.167 -51.5 99.5 -84.5
s50.5 -69.667 66.5 -110s24 -82.5 24 -126.5zM399.004 770c8 0 23.5 -0.666016 46.5 -1.99902s49.167 -1.66602 78.5 -0.999023s60 3.66699 92 9s60.833 15 86.5 29s46.167 33.5 61.5 58.5s21.333 57.5 18 97.5c-3.33301 38.667 -14.5 70.5 -33.5 95.5
s-45.167 44.167 -78.5 57.5s-73.5 21.666 -120.5 24.999s-99.833 2.66602 -158.5 -2.00098z" />
    <glyph glyph-name="afii10083" unicode="&#x441;" horiz-adv-x="1351" 
d="M1185 86c-24 -19.333 -52.167 -35.334 -84.5 -48.001s-66.5 -22.5 -102.5 -29.5s-72.5 -11.833 -109.5 -14.5s-72.167 -4 -105.5 -4c-64 0 -127.5 7.66699 -190.5 23s-123 37.333 -180 66s-109.833 63.167 -158.5 103.5s-90.834 85.333 -126.501 135
s-63.667 103.5 -84 161.5s-30.5 119 -30.5 183c-3.33301 70.667 2 139.167 16 205.5s36 128.666 66 186.999s67.833 111.666 113.5 159.999s99 90 160 125s129.167 62.167 204.5 81.5s157.666 29 246.999 29c58 0 112.833 -4.16699 164.5 -12.5s97.334 -18 137.001 -29
s71.834 -21.667 96.501 -32s39.334 -17.833 44.001 -22.5v-365c-14 9.33301 -34.833 19.5 -62.5 30.5s-59.5 20.667 -95.5 29s-75.167 14.333 -117.5 18s-84.833 3.16699 -127.5 -1.5c-26 0 -56.167 -3.33301 -90.5 -10s-69.5 -17.5 -105.5 -32.5
s-70.833 -34.333 -104.5 -58s-62.667 -52.667 -87 -87s-41.833 -74.166 -52.5 -119.499s-11.334 -96.666 -2.00098 -153.999c9.33301 -48 30 -90.167 62 -126.5s70.5 -66.833 115.5 -91.5s94.5 -43.167 148.5 -55.5s107.833 -19 161.5 -20s105 3.83301 154 14.5
s91.167 27.334 126.5 50.001v-289z" />
    <glyph glyph-name="afii10084" unicode="&#x442;" horiz-adv-x="1377" 
d="M797 1126l18 -1112l-369 -14l-20 1114l-416 -20l-10 303l1260 39l10 -291z" />
    <glyph glyph-name="afii10085" unicode="&#x443;" horiz-adv-x="1532" 
d="M1479 1358l-588 -1360l-320 20l166 577l-739 744l289 95l556 -566l222 592z" />
    <glyph glyph-name="afii10086" unicode="&#x444;" horiz-adv-x="1596" 
d="M852 -277l-275.003 27v266c-89.333 19.333 -159.666 43.666 -210.999 72.999c-54.667 31.333 -104.5 69.166 -149.5 113.499s-83.5 93.5 -115.5 147.5s-56.833 112 -74.5 174s-26.5 127 -26.5 195s8.83301 133.667 26.5 197s42.5 122.333 74.5 177
s70.5 104.667 115.5 150s95 84 150 116s114.333 56.833 178 74.5s129.834 26.5 198.501 26.5c72.667 0 142 -8.83301 208 -26.5s127.167 -42.5 183.5 -74.5s107.5 -70.667 153.5 -116s85.167 -95.333 117.5 -150s57.333 -113.667 75 -177s26.5 -129 26.5 -197
c0 -67.333 -8.83301 -132.166 -26.5 -194.499s-42.667 -120.5 -75 -174.5s-71.5 -103.167 -117.5 -147.5s-97.167 -82.166 -153.5 -113.499s-117.5 -55.666 -183.5 -72.999c-9.33301 -2.66699 -40.666 -6.33398 -93.999 -11.001zM452.997 965
c-36.667 -34.667 -65.667 -76.502 -87 -125.502s-32 -102.833 -32 -161.5c0 -53.333 10.667 -104.166 32 -152.499s50.333 -91.166 87 -128.499c26.667 -26.667 68 -53.667 124 -81l27 739c-66 -27.333 -116.333 -57.333 -151 -90zM1051 396.998
c38.667 37.333 68.832 80.168 90.499 128.501s32.5 99.166 32.5 152.499c0 58.667 -10.833 112.5 -32.5 161.5s-51.834 90.833 -90.501 125.5c-25.333 23.333 -85.666 54.333 -180.999 93l-13 -742c96.667 22 161.334 49 194.001 81z" />
    <glyph glyph-name="afii10087" unicode="&#x445;" horiz-adv-x="1469" 
d="M1065 -6l-401 465l-410 -451l-242 246l439 463l-422 467l282 252l391 -459l355 407l198 -184l-383 -434l482 -535z" />
    <glyph glyph-name="afii10088" unicode="&#x446;" horiz-adv-x="1521" 
d="M385 0h-385v1434h291l73 -1189l592 32l-69 1142l330 13l18 -1128h31l226 -2l-2 -463l-232 1l1 172l-52 1h-1z" />
    <glyph glyph-name="afii10089" unicode="&#x447;" horiz-adv-x="1230" 
d="M137 721c-26 26.667 -46.3359 52.498 -61.0029 77.498s-25.5 50.167 -32.5 75.5s-11 51 -12 77s-0.5 53.667 1.5 83l59 392l336 -2l-51 -456c-2.66699 -19.333 -4.5 -35.333 -5.5 -48s-1 -23.667 0 -33s2.83301 -18.333 5.5 -27s6.33398 -18.667 11.001 -30
c15.333 -24 35 -42.667 59 -56s51 -24 81 -32c38.667 -1.33301 77.334 -2.16602 116.001 -2.49902s77.334 -1.16602 116.001 -2.49902v707l391 -21l-39 -1423l-371 20l11 521l-164 13c-102 19.333 -168.5 32.5 -199.5 39.5s-61.5 16.333 -91.5 28s-58.833 25.667 -86.5 42
s-52.167 35.5 -73.5 57.5z" />
    <glyph glyph-name="afii10090" unicode="&#x448;" horiz-adv-x="1714" 
d="M385 0h-385v1434h291l73 -1184l358 7l-7 1177l255 -4l73 -1164l313 11l-69 1142l330 13l18 -1128l6 -293z" />
    <glyph glyph-name="afii10091" unicode="&#x449;" horiz-adv-x="1926" 
d="M385 0h-385v1434h291l79 -1189l352 12l-7 1177l255 -4l73 -1164l313 11l-69 1142l330 13l18 -1128h31l226 -2l-2 -463l-232 1l1 172l-52 1h-1z" />
    <glyph glyph-name="afii10092" unicode="&#x44a;" horiz-adv-x="1616" 
d="M1512 427c1.33301 -44 -5.50098 -86.5 -20.501 -127.5s-36.333 -78.333 -64 -112s-60.167 -62.5 -97.5 -86.5s-78 -41.667 -122 -53c-43.333 -10.667 -84.5 -19.334 -123.5 -26.001s-75.833 -11.667 -110.5 -15s-66.667 -5.5 -96 -6.5s-56.333 -2.16699 -81 -3.5l-391 11
l3 1087l-4 46l-172 1l-1 -172l-232 2l4 475l406 -8l374 -11l13 -547c22.667 0.666992 50.334 1.16699 83.001 1.5s67.667 -0.5 105 -2.5s76 -5.66699 116 -11s78.667 -13.5 116 -24.5s72.5 -25 105.5 -42s61.167 -38.833 84.5 -65.5c25.333 -24 45 -48.167 59 -72.5
s24.333 -49 31 -74s10.667 -51.167 12 -78.5s2.33301 -55.666 3 -84.999zM789.999 311c58.667 -3.33301 111.333 -2.83398 158 1.49902s86.5 13.5 119.5 27.5s58.833 33.833 77.5 59.5s29 57.834 31 96.501c2.66699 40 -4 72.333 -20 97s-37 43.667 -63 57
s-55 22.333 -87 27s-62.667 7 -92 7s-55.5 -1 -78.5 -3s-38.5 -3 -46.5 -3z" />
    <glyph glyph-name="afii10093" unicode="&#x44b;" horiz-adv-x="1656" 
d="M1597 1415l-393 21l-59 -1434l393 -20zM389 311c58.667 -3.33301 111.333 -2.83398 158 1.49902s86.5 13.5 119.5 27.5s58.833 33.833 77.5 59.5s29 57.834 31 96.501c2.66699 40 -4 72.333 -20 97s-37 43.667 -63 57s-55 22.333 -87 27s-62.667 7 -92 7
s-55.5 -1 -78.5 -3s-38.5 -3 -46.5 -3zM1111 426.999c1.33301 -44 -5.50098 -86.5 -20.501 -127.5s-36.333 -78.333 -64 -112s-60.167 -62.5 -97.5 -86.5s-78 -41.667 -122 -53c-43.333 -10.667 -84.5 -19.334 -123.5 -26.001s-75.833 -11.667 -110.5 -15
s-66.667 -5.5 -96 -6.5s-56.333 -2.16699 -81 -3.5l-391 11l4 1431l374 -11l13 -547c22.667 0.666992 50.334 1.16699 83.001 1.5s67.667 -0.5 105 -2.5s76 -5.66699 116 -11s78.667 -13.5 116 -24.5s72.5 -25 105.5 -42s61.167 -38.833 84.5 -65.5
c25.333 -24 45 -48.167 59 -72.5s24.333 -49 31 -74s10.667 -51.167 12 -78.5s2.33301 -55.666 3 -84.999z" />
    <glyph glyph-name="afii10094" unicode="&#x44c;" horiz-adv-x="1215" 
d="M389 311c58.667 -3.33301 111.333 -2.83398 158 1.49902s86.5 13.5 119.5 27.5s58.833 33.833 77.5 59.5s29 57.834 31 96.501c2.66699 40 -4 72.333 -20 97s-37 43.667 -63 57s-55 22.333 -87 27s-62.667 7 -92 7s-55.5 -1 -78.5 -3s-38.5 -3 -46.5 -3zM1111 426.999
c1.33301 -44 -5.50098 -86.5 -20.501 -127.5s-36.333 -78.333 -64 -112s-60.167 -62.5 -97.5 -86.5s-78 -41.667 -122 -53c-43.333 -10.667 -84.5 -19.334 -123.5 -26.001s-75.833 -11.667 -110.5 -15s-66.667 -5.5 -96 -6.5s-56.333 -2.16699 -81 -3.5l-391 11l4 1431
l374 -11l13 -547c22.667 0.666992 50.334 1.16699 83.001 1.5s67.667 -0.5 105 -2.5s76 -5.66699 116 -11s78.667 -13.5 116 -24.5s72.5 -25 105.5 -42s61.167 -38.833 84.5 -65.5c25.333 -24 45 -48.167 59 -72.5s24.333 -49 31 -74s10.667 -51.167 12 -78.5
s2.33301 -55.666 3 -84.999z" />
    <glyph glyph-name="afii10095" unicode="&#x44d;" horiz-adv-x="1351" 
d="M150 375c35.333 -22.667 77.498 -39.333 126.498 -50s100.333 -15.5 154 -14.5s107.5 7.66699 161.5 20s103.333 30.833 148 55.5c46.667 10 105.334 56.333 176.001 139l-438 1v192l445 -3c2 -0.666992 -0.333008 13.666 -7 42.999
c-10.667 45.333 -28.167 85.166 -52.5 119.499s-53.333 63.333 -87 87s-68.5 43 -104.5 58s-71.167 25.833 -105.5 32.5s-64.5 10 -90.5 10c-42.667 4.66699 -85.167 5.16699 -127.5 1.5s-81.5 -9.66699 -117.5 -18s-67.833 -18 -95.5 -29s-48.5 -21.167 -62.5 -30.5v365
c4.66699 4.66699 19.334 12.167 44.001 22.5s56.834 21 96.501 32s85.334 20.667 137.001 29s106.5 12.5 164.5 12.5c89.333 0 171.666 -9.66699 246.999 -29s143.5 -46.5 204.5 -81.5s114.333 -76.667 160 -125s83.5 -101.666 113.5 -159.999s52 -120.666 66 -186.999
s19.333 -134.833 16 -205.5c0 -64 -10.167 -125 -30.5 -183s-48.333 -111.833 -84 -161.5s-77.834 -94.667 -126.501 -135s-101.5 -74.833 -158.5 -103.5s-117 -50.667 -180 -66s-126.5 -23 -190.5 -23c-33.333 0 -68.5 1.33301 -105.5 4s-73.5 7.5 -109.5 14.5
s-70.167 16.833 -102.5 29.5s-60.5 28.667 -84.5 48v289z" />
    <glyph glyph-name="afii10096" unicode="&#x44e;" horiz-adv-x="2198" 
d="M1345 276c62 0 119.333 11 172 33s98.167 51.5 136.5 88.5s68.333 79.667 90 128s32.5 99.166 32.5 152.499c0 58.667 -10.833 112.5 -32.5 161.5s-51.667 91 -90 126s-83.833 62.333 -136.5 82s-110 29.5 -172 29.5c-56.667 0 -109.834 -9.83301 -159.501 -29.5
s-93 -47 -130 -82s-66.167 -77 -87.5 -126s-32 -102.833 -32 -161.5c0 -53.333 10.667 -104.166 32 -152.499s50.5 -91 87.5 -128s80.333 -66.5 130 -88.5s102.834 -33 159.501 -33zM396 -2l-387 7.99902l20 1436l377 -11l-8 -711l204 -2v1c0 68 8.83301 133.667 26.5 197
s42.5 122.333 74.5 177s70.5 104.667 115.5 150s95 84 150 116s114.333 56.833 178 74.5s129.834 26.5 198.501 26.5c72.667 0 142 -8.83301 208 -26.5s127.167 -42.5 183.5 -74.5s107.5 -70.667 153.5 -116s85.167 -95.333 117.5 -150s57.333 -113.667 75 -177
s26.5 -129 26.5 -197c0 -67.333 -8.83301 -132.166 -26.5 -194.499s-42.667 -120.5 -75 -174.5s-71.5 -103.167 -117.5 -147.5s-97.167 -82.166 -153.5 -113.499s-117.5 -55.666 -183.5 -72.999s-135.333 -26 -208 -26c-68.667 0 -134.834 8.66699 -198.501 26
s-123 41.666 -178 72.999s-105 69.166 -150 113.499s-83.5 93.5 -115.5 147.5s-57 112 -75 174v2l-230 6z" />
    <glyph glyph-name="afii10097" unicode="&#x44f;" horiz-adv-x="1230" 
d="M371 938c-3.33301 -42.667 2.5 -77.001 17.5 -103.001s35.333 -46.333 61 -61s54.5 -24.667 86.5 -30s63 -8.16602 93 -8.49902s57 0.5 81 2.5s40.667 3 50 3v373c-58.667 4.66699 -111 5.5 -157 2.5s-85.5 -11.333 -118.5 -25s-59 -33 -78 -58
s-30.833 -56.833 -35.5 -95.5zM137 720.999c-26 26.667 -46.333 52.501 -61 77.501s-25.5 50.167 -32.5 75.5s-11 51 -12 77s-0.5 53.667 1.5 83c3.33301 44 14.333 86.5 33 127.5s42.5 78 71.5 111s61.833 61.167 98.5 84.5s74.667 39.333 114 48
c88.667 19.333 167.167 30.666 235.5 33.999s126.5 5 174.5 5l391 -21l-39 -1423l-371 20l11 521l-459 -521l-195 175l379 383c-28 3.33301 -57.5 8.5 -88.5 15.5s-61.5 16.333 -91.5 28s-58.833 25.667 -86.5 42s-52.167 35.5 -73.5 57.5z" />
    <glyph glyph-name="afii10071" unicode="&#x451;" horiz-adv-x="1271" 
d="M369 1090l6 -472h438v-192h-430l4 -156l649 21l8 -273l-1026 -18l-18 1432h1161v-342h-792zM149 1688c0 20.667 4 40 12 58s18.667 33.5 32 46.5s28.833 23.167 46.5 30.5s36.5 11 56.5 11c20.667 0 40.167 -3.83301 58.5 -11.5s34.333 -18.167 48 -31.5
s24.334 -28.833 32.001 -46.5s11.5 -36.5 11.5 -56.5c0 -21.333 -3.83301 -41 -11.5 -59s-18.334 -33.5 -32.001 -46.5s-29.667 -23.167 -48 -30.5s-37.833 -11 -58.5 -11c-21.333 0 -41 3.66699 -59 11s-33.5 17.5 -46.5 30.5s-23.167 28.5 -30.5 46.5s-11 37.667 -11 59z
M693 1689c0 20.667 4 40 12 58s18.667 33.5 32 46.5s28.833 23.167 46.5 30.5s36.5 11 56.5 11c20.667 0 40.167 -3.83301 58.5 -11.5s34.333 -18.167 48 -31.5s24.334 -28.833 32.001 -46.5s11.5 -36.5 11.5 -56.5c0 -21.333 -3.83301 -41 -11.5 -59
s-18.334 -33.5 -32.001 -46.5s-29.667 -23.167 -48 -30.5s-37.833 -11 -58.5 -11c-21.333 0 -41 3.66699 -59 11s-33.5 17.5 -46.5 30.5s-23.167 28.5 -30.5 46.5s-11 37.667 -11 59z" />
    <glyph glyph-name="endash" unicode="&#x2013;" horiz-adv-x="860" 
d="M754 506h-752l2 166l754 -10z" />
    <glyph glyph-name="emdash" unicode="&#x2014;" horiz-adv-x="1186" 
d="M1079 451h-1079l2 172l1081 -11z" />
    <glyph glyph-name="quoteleft" unicode="&#x2018;" horiz-adv-x="410" 
d="M20 1190c-2.66699 10.667 -4.83301 22.167 -6.5 34.5s-1.83398 25.5 -0.500977 39.5s4.5 29 9.5 45s13.167 33.667 24.5 53c9.33301 16 20.333 32 33 48s26 31.5 40 46.5s28.333 29.333 43 43s28.667 25.834 42 36.501l76 -68c-17.333 -14.667 -32 -27.834 -44 -39.501
s-22 -22.167 -30 -31.5c-9.33301 -10.667 -17 -20.334 -23 -29.001c15.333 -4.66699 30 -10.167 44 -16.5s26.667 -14.166 38 -23.499s20.833 -20.5 28.5 -33.5s13.167 -28.167 16.5 -45.5c4 -20 3.83301 -39.5 -0.5 -58.5s-11.666 -36.167 -21.999 -51.5
s-23.5 -28.333 -39.5 -39s-33.333 -17.667 -52 -21c-41.333 -7.33301 -78 -1 -110 19s-54.333 50.667 -67 92z" />
    <glyph glyph-name="quoteright" unicode="&#x2019;" horiz-adv-x="410" 
d="M300 1419c2 -10.667 3.66797 -22.001 5.00098 -34.001s1.16602 -25 -0.500977 -39s-5.33398 -29 -11.001 -45s-14.5 -33.333 -26.5 -52c-10 -16 -21.667 -31.833 -35 -47.5s-27.333 -30.667 -42 -45s-29.667 -28 -45 -41s-30 -24.5 -44 -34.5l-73 72
c17.333 13.333 32.5 25.833 45.5 37.5s23.833 21.834 32.5 30.501c10 10 18 19.333 24 28c-31.333 10.667 -58.333 25.167 -81 43.5s-36.667 44.833 -42 79.5c-3.33301 20.667 -2.33301 40.334 3 59.001s13.833 35.5 25.5 50.5s25.5 27.5 41.5 37.5s33.667 16.333 53 19
c41.333 5.33301 77.333 -2.83398 108 -24.501s51.334 -53.167 62.001 -94.5z" />
    <glyph glyph-name="quotesinglbase" unicode="&#x201a;" horiz-adv-x="410" 
d="M300 195c2 -10.667 3.66797 -22.166 5.00098 -34.499s1.16602 -25.5 -0.500977 -39.5s-5.33398 -29 -11.001 -45s-14.5 -33 -26.5 -51c-10 -16 -21.667 -31.833 -35 -47.5s-27.333 -30.667 -42 -45s-29.667 -28 -45 -41s-30 -24.5 -44 -34.5l-73 71
c17.333 13.333 32.5 25.833 45.5 37.5s23.833 22.167 32.5 31.5c10 10 18 19.333 24 28c-31.333 10 -58.333 24.167 -81 42.5s-36.667 44.833 -42 79.5c-3.33301 20.667 -2.33301 40.334 3 59.001s13.833 35.5 25.5 50.5s25.5 27.5 41.5 37.5s33.667 16.333 53 19
c41.333 5.33301 77.333 -2.83398 108 -24.501s51.334 -52.834 62.001 -93.501z" />
    <glyph glyph-name="Euro" unicode="&#x20ac;" horiz-adv-x="983" 
d="M879 1104c-12 4 -30.001 8.83008 -54.001 14.4971s-51.667 9.33398 -83 11.001s-64.666 0 -99.999 -5s-69.833 -15.667 -103.5 -32s-65.167 -39.833 -94.5 -70.5s-53.666 -71 -72.999 -121l401 -27l-10 -139l-412 27c-2.66699 -15.333 -4.33398 -31.333 -5.00098 -48
c-1.33301 -14 -1.66602 -29.167 -0.999023 -45.5s2.66699 -31.5 6 -45.5h320v-138h-277c11.333 -31.333 25.666 -57.666 42.999 -78.999s35.833 -39 55.5 -53s39.834 -24.833 60.501 -32.5s40.167 -13.167 58.5 -16.5s34.666 -5.33301 48.999 -6s25.166 -1 32.499 -1v-229
c-85.333 0 -158.833 10.833 -220.5 32.5s-114 51.334 -157 89.001s-78.333 81.834 -106 132.501s-50.167 105 -67.5 163h-118v138h92c-4 17.333 -6.66699 35.333 -8 54s-2.33301 36 -3 52c-0.666992 18.667 -0.666992 37 0 55l-102 2l10 150l107 -10
c17.333 62.667 42.5 121.667 75.5 177s71.833 103.666 116.5 144.999s93.834 74 147.501 98s109.834 36 168.501 36c46 0 84.833 -2.33301 116.5 -7s57.5 -9.66699 77.5 -15c23.333 -6.66699 42.666 -13.667 57.999 -21v-235v0z" />
    <glyph glyph-name="trademark" unicode="&#x2122;" horiz-adv-x="1229" 
d="M489 1325l-180 -8l6 -430l-143 -6l-8 432l-160 -8l-4 118l487 15l5 -113h-3zM858 1030l156 389l104 2l10 -530l-127 -2v289l-127 -306l-55 7l-123 268l9 -270h-142l-6 557h119z" />
    <glyph glyph-name="minus" unicode="&#x2212;" horiz-adv-x="965" 
d="M860 596h-860l2 178l862 -10z" />
    <glyph glyph-name="NULL" horiz-adv-x="0" 
 />
    <glyph glyph-name="nonmarkingreturn" horiz-adv-x="682" 
 />
    </font>
</defs>
</svg>
